{
.appVersion = "3227";
.formatVersion = 3;
axes = (
{
name = Weight;
tag = wght;
}
);
classes = (
{
automatic = 1;

glyphs = (
{
color = 6;
glyphname = A;
kernLeft = LAT_A_UC;
kernRight = LAT_A_UC;
lastChange = "2023-11-23 10:09:18 +0000";
layers = (
{
anchors = (
{
name = bottom;
pos = (582,0);
},
{
name = ogonek;
pos = (1108,0);
},
{
name = top;
pos = (582,1474);
}
);
guides = (
{
angle = 67.5;
pos = (46,-220);
}
);
layerId = "AB099EFE-E788-4EFC-8633-CF147CB782A6";
shapes = (
{
closed = 1;
nodes = (
(122,0,l),
(286,496,l),
(296,518,l),
(578,1366,l),
(586,1366,l),
(868,518,l),
(878,496,l),
(1042,0,l),
(1108,0,l),
(608,1474,l),
(556,1474,l),
(56,0,l)
);
},
{
closed = 1;
nodes = (
(908,476,l),
(908,536,l),
(256,536,l),
(256,476,l)
);
}
);
width = 1164;
},
{
anchors = (
{
name = bottom;
pos = (656,0);
},
{
name = ogonek;
pos = (1320,0);
},
{
name = top;
pos = (656,1474);
}
);
guides = (
{
angle = 67.5;
pos = (-86,-200);
}
);
layerId = "2D8F7115-C311-411E-929D-56333CF7FFB2";
shapes = (
{
closed = 1;
nodes = (
(378,0,l),
(480,362,l),
(498,504,l),
(652,1036,l),
(660,1036,l),
(814,504,l),
(832,362,l),
(934,0,l),
(1312,0,l),
(836,1474,l),
(476,1474,l),
(0,0,l)
);
},
{
closed = 1;
nodes = (
(996,272,l),
(996,572,l),
(314,572,l),
(314,272,l)
);
}
);
width = 1312;
},
{
anchors = (
{
name = bottom;
pos = (612,0);
},
{
name = ogonek;
pos = (1198,0);
},
{
name = top;
pos = (612,1474);
}
);
layerId = "FD1CEFBD-BAB1-4C2A-A598-30E93F9A29F6";
shapes = (
{
closed = 1;
nodes = (
(212,0,l),
(358,442,l),
(380,504,l),
(608,1220,l),
(616,1220,l),
(844,504,l),
(866,442,l),
(1012,0,l),
(1196,0,l),
(692,1474,l),
(532,1474,l),
(28,0,l)
);
},
{
closed = 1;
nodes = (
(948,390,l),
(948,550,l),
(276,550,l),
(276,390,l)
);
}
);
width = 1224;
}
);
unicode = 65;
},
{
color = 6;
glyphname = AE;
kernLeft = LAT_AE_UC;
kernRight = LAT_E_UC;
lastChange = "2023-11-23 10:09:18 +0000";
layers = (
{
anchors = (
{
name = bottom;
pos = (964,0);
},
{
name = top;
pos = (992,1474);
}
);
layerId = "AB099EFE-E788-4EFC-8633-CF147CB782A6";
shapes = (
{
closed = 1;
nodes = (
(100,0,l),
(338,496,l),
(758,1390,l),
(802,1390,l),
(792,1474,l),
(740,1474,l),
(32,0,l)
);
},
{
closed = 1;
nodes = (
(852,476,l),
(852,536,l),
(310,536,l),
(310,476,l)
);
},
{
closed = 1;
nodes = (
(1476,0,l),
(1476,60,l),
(918,60,l),
(818,1414,l),
(1476,1414,l),
(1476,1474,l),
(754,1474,l),
(826,500,l),
(864,0,l)
);
},
{
closed = 1;
nodes = (
(1392,726,l),
(1392,786,l),
(850,786,l),
(858,726,l)
);
}
);
width = 1612;
},
{
anchors = (
{
name = bottom;
pos = (964,0);
},
{
name = top;
pos = (956,1474);
}
);
background = {
shapes = (
{
pos = (-8,0);
ref = A;
slant = (2,0);
}
);
};
layerId = "2D8F7115-C311-411E-929D-56333CF7FFB2";
shapes = (
{
closed = 1;
nodes = (
(372,0,l),
(534,480,l),
(742,1156,l),
(774,1156,l),
(770,1474,l),
(504,1474,l),
(-8,0,l)
);
},
{
closed = 1;
nodes = (
(964,272,l),
(964,572,l),
(354,572,l),
(354,272,l)
);
},
{
closed = 1;
nodes = (
(1492,0,l),
(1492,328,l),
(1102,328,l),
(1072,1146,l),
(1492,1146,l),
(1492,1474,l),
(742,1474,l),
(774,450,l),
(790,0,l)
);
},
{
closed = 1;
nodes = (
(1420,586,l),
(1420,902,l),
(1052,902,l),
(1072,586,l)
);
}
);
width = 1564;
},
{
anchors = (
{
name = bottom;
pos = (966,0);
},
{
name = top;
pos = (982,1474);
}
);
layerId = "FD1CEFBD-BAB1-4C2A-A598-30E93F9A29F6";
shapes = (
{
closed = 1;
nodes = (
(204,0,l),
(412,492,l),
(754,1306,l),
(790,1306,l),
(780,1474,l),
(668,1474,l),
(20,0,l)
);
},
{
closed = 1;
nodes = (
(906,390,l),
(906,550,l),
(328,550,l),
(328,390,l)
);
},
{
closed = 1;
nodes = (
(1484,0,l),
(1484,160,l),
(988,160,l),
(916,1314,l),
(1484,1314,l),
(1484,1474,l),
(754,1474,l),
(810,484,l),
(836,0,l)
);
},
{
closed = 1;
nodes = (
(1408,670,l),
(1408,830,l),
(928,830,l),
(942,670,l)
);
}
);
width = 1596;
}
);
metricRight = E;
unicode = 198;
},
{
color = 6;
glyphname = B;
kernLeft = LAT_H_UC;
kernRight = LAT_B_UC;
lastChange = "2023-11-23 10:09:18 +0000";
layers = (
{
anchors = (
{
name = bottom;
pos = (520,0);
},
{
name = center;
pos = (224,422);
},
{
name = top;
pos = (516,1474);
}
);
layerId = "AB099EFE-E788-4EFC-8633-CF147CB782A6";
shapes = (
{
closed = 1;
nodes = (
(538,0,ls),
(788,0,o),
(952,156,o),
(952,390,cs),
(952,590,o),
(834,734,o),
(652,770,c),
(656,758,l),
(784,816,o),
(858,944,o),
(858,1104,cs),
(858,1322,o),
(720,1474,o),
(502,1474,cs),
(212,1474,l),
(212,1414,l),
(502,1414,ls),
(680,1414,o),
(794,1290,o),
(794,1098,cs),
(794,914,o),
(678,786,o),
(524,786,cs),
(212,786,l),
(212,726,l),
(520,726,ls),
(742,726,o),
(888,598,o),
(888,392,cs),
(888,192,o),
(750,60,o),
(538,60,cs),
(242,60,l),
(242,0,l)
);
},
{
closed = 1;
nodes = (
(250,0,l),
(250,1474,l),
(186,1474,l),
(186,0,l)
);
}
);
width = 1076;
},
{
anchors = (
{
name = bottom;
pos = (616,0);
},
{
name = center;
pos = (288,462);
},
{
name = top;
pos = (538,1474);
}
);
layerId = "2D8F7115-C311-411E-929D-56333CF7FFB2";
shapes = (
{
closed = 1;
nodes = (
(716,0,ls),
(966,0,o),
(1136,182,o),
(1136,424,cs),
(1136,618,o),
(1026,768,o),
(824,806,c),
(812,716,l),
(946,768,o),
(1050,924,o),
(1050,1094,cs),
(1050,1322,o),
(866,1474,o),
(598,1474,cs),
(448,1474,l),
(448,1154,l),
(578,1154,ls),
(650,1154,o),
(710,1100,o),
(710,1020,cs),
(710,936,o),
(650,876,o),
(578,876,cs),
(448,876,l),
(448,612,l),
(642,612,ls),
(718,612,o),
(778,556,o),
(778,466,cs),
(778,382,o),
(724,320,o),
(642,320,cs),
(442,320,l),
(442,0,l)
);
},
{
closed = 1;
nodes = (
(468,0,l),
(468,1474,l),
(104,1474,l),
(104,0,l)
);
}
);
width = 1184;
},
{
anchors = (
{
name = bottom;
pos = (550,0);
},
{
name = center;
pos = (242,426);
},
{
name = top;
pos = (536,1474);
}
);
hints = (
{
horizontal = 1;
origin = (0,22);
settings = {
deltaV = {
"{100, 370, 0, 0, 0, 0}" = {
"12" = -1;
};
};
};
type = TTDelta;
},
{
horizontal = 1;
origin = (0,23);
settings = {
deltaV = {
"{100, 370, 0, 0, 0, 0}" = {
"12" = -1;
};
};
};
type = TTDelta;
},
{
horizontal = 1;
origin = (0,24);
settings = {
deltaV = {
"{100, 370, 0, 0, 0, 0}" = {
"12" = -1;
};
};
};
type = TTDelta;
},
{
horizontal = 1;
origin = (0,25);
settings = {
deltaV = {
"{100, 370, 0, 0, 0, 0}" = {
"12" = -1;
};
};
};
type = TTDelta;
},
{
horizontal = 1;
origin = (0,23,1,1);
settings = {
deltaV = {
"{100, 370, 0, 0, 0, 0}" = {
"12" = -1;
};
};
};
type = TTDelta;
},
{
horizontal = 1;
origin = (0,25,1,1);
settings = {
deltaV = {
"{100, 370, 0, 0, 0, 0}" = {
"12" = -1;
};
};
};
type = TTDelta;
}
);
layerId = "FD1CEFBD-BAB1-4C2A-A598-30E93F9A29F6";
shapes = (
{
closed = 1;
nodes = (
(572,0,ls),
(834,0,o),
(1004,162,o),
(1004,400,cs),
(1004,594,o),
(902,744,o),
(722,794,c),
(722,750,l),
(842,800,o),
(922,940,o),
(922,1100,cs),
(922,1330,o),
(754,1474,o),
(500,1474,cs),
(296,1474,l),
(296,1314,l),
(504,1314,ls),
(652,1314,o),
(750,1224,o),
(750,1072,cs),
(750,928,o),
(658,828,o),
(518,828,cs),
(296,828,l),
(296,672,l),
(558,672,ls),
(722,672,o),
(832,572,o),
(832,416,cs),
(832,264,o),
(732,160,o),
(578,160,cs),
(314,160,l),
(314,0,l)
);
},
{
closed = 1;
nodes = (
(328,0,l),
(328,1474,l),
(156,1474,l),
(156,0,l)
);
}
);
width = 1100;
}
);
metricLeft = H;
unicode = 66;
},
{
color = 6;
glyphname = C;
kernLeft = LAT_O_UC;
kernRight = LAT_C_UC;
lastChange = "2023-11-23 10:09:18 +0000";
layers = (
{
anchors = (
{
name = base;
pos = (744,0);
},
{
name = bottom;
pos = (710,0);
},
{
name = cedilla;
pos = (712,0);
},
{
name = top;
pos = (710,1474);
}
);
guides = (
{
angle = 112.5;
pos = (968,720);
},
{
angle = 67.5;
pos = (968,720);
}
);
layerId = "AB099EFE-E788-4EFC-8633-CF147CB782A6";
shapes = (
{
closed = 1;
nodes = (
(832,-16,o),
(984,50,o),
(1080,156,c),
(1052,220,l),
(972,110,o),
(830,44,o),
(688,44,cs),
(380,44,o),
(180,316,o),
(180,736,cs),
(180,1157,o),
(382,1430,o),
(694,1430,cs),
(832,1430,o),
(970,1368,o),
(1050,1272,c),
(1076,1336,l),
(984,1426,o),
(840,1490,o),
(690,1490,cs),
(342,1490,o),
(116,1194,o),
(116,736,cs),
(116,279,o),
(338,-16,o),
(682,-16,cs)
);
}
);
width = 1168;
},
{
anchors = (
{
name = base;
pos = (712,0);
},
{
name = bottom;
pos = (706,0);
},
{
name = cedilla;
pos = (730,0);
},
{
name = top;
pos = (696,1474);
}
);
guides = (
{
angle = 112.5;
pos = (846,740);
},
{
angle = 67.5;
pos = (846,740);
}
);
layerId = "2D8F7115-C311-411E-929D-56333CF7FFB2";
shapes = (
{
closed = 1;
nodes = (
(860,-16,o),
(996,18,o),
(1110,92,c),
(976,416,l),
(930,354,o),
(830,320,o),
(736,320,cs),
(530,320,o),
(396,484,o),
(396,740,cs),
(396,992,o),
(524,1154,o),
(722,1154,cs),
(814,1154,o),
(914,1124,o),
(968,1056,c),
(1104,1380,l),
(990,1454,o),
(850,1490,o),
(708,1490,cs),
(298,1490,o),
(32,1194,o),
(32,740,cs),
(32,282,o),
(304,-16,o),
(722,-16,cs)
);
}
);
width = 1146;
},
{
anchors = (
{
name = base;
pos = (736,0);
},
{
name = bottom;
pos = (710,0);
},
{
name = cedilla;
pos = (722,0);
},
{
name = top;
pos = (708,1474);
}
);
guides = (
{
angle = 112.5;
pos = (884,740);
},
{
angle = 67.5;
pos = (884,740);
}
);
layerId = "FD1CEFBD-BAB1-4C2A-A598-30E93F9A29F6";
shapes = (
{
closed = 1;
nodes = (
(850,-16,o),
(1008,42,o),
(1112,136,c),
(1042,302,l),
(968,210,o),
(844,144,o),
(720,144,cs),
(440,144,o),
(260,380,o),
(260,738,cs),
(260,1096,o),
(444,1330,o),
(730,1330,cs),
(846,1330,o),
(970,1274,o),
(1042,1192,c),
(1110,1356,l),
(1014,1436,o),
(854,1490,o),
(716,1490,cs),
(332,1490,o),
(84,1194,o),
(84,738,cs),
(84,280,o),
(330,-16,o),
(708,-16,cs)
);
}
);
width = 1182;
}
);
metricLeft = O;
unicode = 67;
},
{
color = 6;
glyphname = D;
kernLeft = LAT_H_UC;
kernRight = LAT_O_UC;
lastChange = "2023-11-23 10:09:18 +0000";
layers = (
{
anchors = (
{
name = bottom;
pos = (612,0);
},
{
name = center;
pos = (218,758);
},
{
name = top;
pos = (610,1474);
}
);
layerId = "AB099EFE-E788-4EFC-8633-CF147CB782A6";
shapes = (
{
closed = 1;
nodes = (
(536,0,ls),
(918,0,o),
(1140,298,o),
(1140,746,cs),
(1140,1192,o),
(918,1474,o),
(536,1474,cs),
(186,1474,l),
(186,0,l)
);
},
{
closed = 1;
nodes = (
(250,1414,l),
(530,1414,ls),
(876,1414,o),
(1076,1158,o),
(1076,746,cs),
(1076,336,o),
(878,60,o),
(530,60,cs),
(250,60,l)
);
}
);
width = 1256;
},
{
anchors = (
{
name = bottom;
pos = (590,0);
},
{
name = center;
pos = (286,738);
},
{
name = top;
pos = (594,1474);
}
);
layerId = "2D8F7115-C311-411E-929D-56333CF7FFB2";
shapes = (
{
closed = 1;
nodes = (
(578,0,ls),
(970,0,o),
(1238,310,o),
(1238,740,cs),
(1238,1182,o),
(956,1474,o),
(548,1474,cs),
(104,1474,l),
(104,0,l)
);
},
{
closed = 1;
nodes = (
(468,1146,l),
(592,1146,ls),
(760,1146,o),
(874,984,o),
(874,742,cs),
(874,498,o),
(760,328,o),
(592,328,cs),
(468,328,l)
);
}
);
width = 1270;
},
{
anchors = (
{
name = bottom;
pos = (604,0);
},
{
name = center;
pos = (244,750);
},
{
name = top;
pos = (604,1474);
}
);
layerId = "FD1CEFBD-BAB1-4C2A-A598-30E93F9A29F6";
shapes = (
{
closed = 1;
nodes = (
(548,0,ls),
(918,0,o),
(1180,304,o),
(1180,750,cs),
(1180,1180,o),
(914,1474,o),
(536,1474,cs),
(156,1474,l),
(156,0,l)
);
},
{
closed = 1;
nodes = (
(332,1314,l),
(538,1314,ls),
(822,1314,o),
(1004,1086,o),
(1004,750,cs),
(1004,400,o),
(822,160,o),
(538,160,cs),
(332,160,l)
);
}
);
width = 1264;
}
);
metricLeft = H;
metricRight = O;
unicode = 68;
},
{
color = 6;
glyphname = E;
kernLeft = LAT_H_UC;
kernRight = LAT_E_UC;
lastChange = "2023-11-23 10:09:39 +0000";
layers = (
{
anchors = (
{
name = bottom;
pos = (532,0);
},
{
name = cedilla;
pos = (522,0);
},
{
name = ogonek;
pos = (858,0);
},
{
name = top;
pos = (522,1474);
},
{
name = topleft;
pos = (44,1474);
}
);
hints = (
{
horizontal = 1;
options = 4;
origin = (0,11);
target = (0,2);
type = TTStem;
},
{
horizontal = 1;
options = 1;
origin = (0,3);
target = (0,6);
type = TTStem;
},
{
horizontal = 1;
options = 4;
origin = (0,10);
target = (0,7);
type = TTStem;
},
{
horizontal = 1;
options = 1;
origin = (0,4);
type = TTSnap;
},
{
horizontal = 1;
options = 1;
origin = (0,3);
type = TTSnap;
},
{
horizontal = 1;
options = 1;
origin = (0,4);
type = TTSnap;
},
{
horizontal = 1;
options = 1;
origin = (0,5);
type = TTSnap;
},
{
horizontal = 1;
options = 1;
origin = (0,6);
type = TTSnap;
}
);
layerId = "AB099EFE-E788-4EFC-8633-CF147CB782A6";
shapes = (
{
closed = 1;
nodes = (
(858,0,l),
(858,60,l),
(250,60,l),
(250,726,l),
(778,726,l),
(778,786,l),
(250,786,l),
(250,1414,l),
(858,1414,l),
(858,1474,l),
(186,1474,l),
(186,0,l)
);
}
);
width = 994;
},
{
anchors = (
{
name = bottom;
pos = (518,0);
},
{
name = cedilla;
pos = (518,0);
},
{
name = ogonek;
pos = (906,0);
},
{
name = top;
pos = (518,1474);
},
{
name = topleft;
pos = (16,1474);
}
);
hints = (
{
horizontal = 1;
options = 4;
origin = (0,11);
target = (0,2);
type = TTStem;
},
{
horizontal = 1;
options = 1;
origin = (0,3);
target = (0,6);
type = TTStem;
},
{
horizontal = 1;
options = 4;
origin = (0,10);
target = (0,7);
type = TTStem;
},
{
horizontal = 1;
options = 1;
origin = (0,4);
type = TTSnap;
},
{
horizontal = 1;
options = 1;
origin = (0,3);
type = TTSnap;
},
{
horizontal = 1;
options = 1;
origin = (0,4);
type = TTSnap;
},
{
horizontal = 1;
options = 1;
origin = (0,5);
type = TTSnap;
},
{
horizontal = 1;
options = 1;
origin = (0,6);
type = TTSnap;
}
);
layerId = "2D8F7115-C311-411E-929D-56333CF7FFB2";
shapes = (
{
closed = 1;
nodes = (
(906,0,l),
(906,328,l),
(468,328,l),
(468,586,l),
(832,586,l),
(832,902,l),
(468,902,l),
(468,1146,l),
(906,1146,l),
(906,1474,l),
(104,1474,l),
(104,0,l)
);
}
);
width = 978;
},
{
anchors = (
{
name = bottom;
pos = (522,0);
},
{
name = cedilla;
pos = (514,0);
},
{
name = ogonek;
pos = (862,0);
},
{
name = top;
pos = (514,1474);
},
{
name = topleft;
pos = (38,1474);
}
);
hints = (
{
horizontal = 1;
options = 4;
origin = (0,11);
target = (0,2);
type = TTStem;
},
{
horizontal = 1;
options = 1;
origin = (0,3);
target = (0,6);
type = TTStem;
},
{
horizontal = 1;
options = 4;
origin = (0,10);
target = (0,7);
type = TTStem;
},
{
horizontal = 1;
options = 1;
origin = (0,4);
type = TTSnap;
},
{
horizontal = 1;
options = 1;
origin = (0,3);
type = TTSnap;
},
{
horizontal = 1;
options = 1;
origin = (0,4);
type = TTSnap;
},
{
horizontal = 1;
options = 1;
origin = (0,5);
type = TTSnap;
},
{
horizontal = 1;
options = 1;
origin = (0,6);
type = TTSnap;
}
);
layerId = "FD1CEFBD-BAB1-4C2A-A598-30E93F9A29F6";
shapes = (
{
closed = 1;
nodes = (
(862,0,l),
(862,160,l),
(332,160,l),
(332,670,l),
(790,670,l),
(790,830,l),
(332,830,l),
(332,1314,l),
(862,1314,l),
(862,1474,l),
(156,1474,l),
(156,0,l)
);
}
);
width = 974;
}
);
metricLeft = H;
unicode = 69;
},
{
color = 6;
glyphname = Schwa;
kernLeft = LAT_SCHWA_UC;
kernRight = LAT_O_UC;
lastChange = "2023-11-23 10:09:18 +0000";
layers = (
{
anchors = (
{
name = bottom;
pos = (648,0);
},
{
name = top;
pos = (648,1474);
}
);
layerId = "AB099EFE-E788-4EFC-8633-CF147CB782A6";
shapes = (
{
closed = 1;
nodes = (
(938,-16,o),
(1178,312,o),
(1178,748,cs),
(1178,1170,o),
(968,1490,o),
(628,1490,cs),
(466,1490,o),
(298,1418,o),
(216,1336,c),
(244,1272,l),
(320,1366,o),
(482,1430,o),
(622,1430,cs),
(928,1430,o),
(1114,1126,o),
(1114,738,cs),
(1114,332,o),
(894,44,o),
(608,44,cs),
(314,44,o),
(180,346,o),
(180,698,c),
(1138,698,l),
(1138,758,l),
(116,758,l),
(116,704,ls),
(116,274,o),
(294,-16,o),
(606,-16,cs)
);
}
);
width = 1294;
},
{
anchors = (
{
name = bottom;
pos = (648,0);
},
{
name = top;
pos = (654,1474);
}
);
layerId = "2D8F7115-C311-411E-929D-56333CF7FFB2";
shapes = (
{
closed = 1;
nodes = (
(1030,-16,o),
(1288,276,o),
(1288,728,cs),
(1288,1190,o),
(1020,1490,o),
(616,1490,cs),
(462,1490,o),
(308,1446,o),
(194,1378,c),
(330,1060,l),
(380,1106,o),
(472,1154,o),
(598,1154,cs),
(804,1154,o),
(924,1026,o),
(924,734,cs),
(924,454,o),
(816,320,o),
(652,320,cs),
(516,320,o),
(418,414,o),
(418,568,c),
(962,568,l),
(962,872,l),
(60,872,l),
(60,622,ls),
(60,246,o),
(286,-16,o),
(648,-16,cs)
);
}
);
width = 1320;
},
{
anchors = (
{
name = bottom;
pos = (636,0);
},
{
name = top;
pos = (648,1474);
}
);
layerId = "FD1CEFBD-BAB1-4C2A-A598-30E93F9A29F6";
shapes = (
{
closed = 1;
nodes = (
(968,-16,o),
(1222,292,o),
(1222,732,cs),
(1222,1182,o),
(960,1490,o),
(608,1490,cs),
(458,1490,o),
(306,1434,o),
(200,1352,c),
(268,1188,l),
(354,1274,o),
(470,1330,o),
(596,1330,cs),
(860,1330,o),
(1046,1088,o),
(1046,734,cs),
(1046,386,o),
(864,144,o),
(622,144,cs),
(398,144,o),
(260,350,o),
(260,640,c),
(1072,640,l),
(1072,800,l),
(88,800,l),
(88,674,ls),
(88,264,o),
(296,-16,o),
(624,-16,cs)
);
}
);
width = 1306;
}
);
metricRight = O;
unicode = 399;
},
{
color = 6;
glyphname = F;
kernLeft = LAT_H_UC;
kernRight = LAT_F_UC;
lastChange = "2023-11-23 10:09:18 +0000";
layers = (
{
anchors = (
{
name = bottom;
pos = (218,0);
},
{
name = center;
pos = (218,376);
},
{
name = top;
pos = (540,1474);
}
);
layerId = "AB099EFE-E788-4EFC-8633-CF147CB782A6";
shapes = (
{
closed = 1;
nodes = (
(250,0,l),
(250,726,l),
(768,726,l),
(768,786,l),
(250,786,l),
(250,1414,l),
(836,1414,l),
(836,1474,l),
(186,1474,l),
(186,0,l)
);
}
);
width = 920;
},
{
anchors = (
{
name = bottom;
pos = (288,0);
},
{
name = center;
pos = (288,292);
},
{
name = top;
pos = (560,1474);
}
);
layerId = "2D8F7115-C311-411E-929D-56333CF7FFB2";
shapes = (
{
closed = 1;
nodes = (
(468,0,l),
(468,524,l),
(832,524,l),
(832,852,l),
(468,852,l),
(468,1146,l),
(906,1146,l),
(906,1474,l),
(104,1474,l),
(104,0,l)
);
}
);
width = 938;
},
{
anchors = (
{
name = bottom;
pos = (244,0);
},
{
name = center;
pos = (244,346);
},
{
name = top;
pos = (542,1474);
}
);
layerId = "FD1CEFBD-BAB1-4C2A-A598-30E93F9A29F6";
shapes = (
{
closed = 1;
nodes = (
(332,0,l),
(332,650,l),
(778,650,l),
(778,810,l),
(332,810,l),
(332,1314,l),
(850,1314,l),
(850,1474,l),
(156,1474,l),
(156,0,l)
);
}
);
width = 918;
}
);
metricLeft = H;
unicode = 70;
},
{
color = 6;
glyphname = G;
kernLeft = LAT_O_UC;
kernRight = LAT_G_UC;
lastChange = "2023-11-23 10:10:50 +0000";
layers = (
{
anchors = (
{
name = bottom;
pos = (676,0);
},
{
name = hook;
pos = (1090,1336);
},
{
name = top;
pos = (674,1474);
}
);
layerId = "AB099EFE-E788-4EFC-8633-CF147CB782A6";
shapes = (
{
closed = 1;
nodes = (
(1002,-16,o),
(1176,272,o),
(1176,704,cs),
(1176,758,l),
(654,758,l),
(654,698,l),
(1112,698,l),
(1112,346,o),
(984,44,o),
(674,44,cs),
(384,44,o),
(180,314,o),
(180,730,cs),
(180,1156,o),
(392,1430,o),
(704,1430,cs),
(846,1430,o),
(980,1374,o),
(1062,1272,c),
(1090,1336,l),
(1008,1418,o),
(868,1490,o),
(696,1490,cs),
(350,1490,o),
(116,1196,o),
(116,738,cs),
(116,280,o),
(348,-16,o),
(676,-16,cs)
);
}
);
width = 1308;
},
{
anchors = (
{
name = bottom;
pos = (702,0);
},
{
name = hook;
pos = (1126,1378);
},
{
name = top;
pos = (678,1474);
}
);
layerId = "2D8F7115-C311-411E-929D-56333CF7FFB2";
shapes = (
{
closed = 1;
nodes = (
(1034,-16,o),
(1260,246,o),
(1260,622,cs),
(1260,872,l),
(658,872,l),
(658,568,l),
(902,568,l),
(902,418,o),
(812,320,o),
(680,320,cs),
(510,320,o),
(396,484,o),
(396,734,cs),
(396,994,o),
(516,1154,o),
(718,1154,cs),
(812,1154,o),
(942,1114,o),
(990,1056,c),
(1126,1378,l),
(1012,1446,o),
(858,1490,o),
(704,1490,cs),
(300,1490,o),
(32,1190,o),
(32,728,cs),
(32,276,o),
(290,-16,o),
(672,-16,cs)
);
}
);
width = 1304;
},
{
anchors = (
{
name = bottom;
pos = (684,0);
},
{
name = hook;
pos = (1106,1352);
},
{
name = top;
pos = (674,1474);
}
);
layerId = "FD1CEFBD-BAB1-4C2A-A598-30E93F9A29F6";
shapes = (
{
closed = 1;
nodes = (
(1010,-16,o),
(1218,264,o),
(1218,674,cs),
(1218,800,l),
(656,800,l),
(656,640,l),
(1046,640,l),
(1046,352,o),
(908,144,o),
(682,144,cs),
(426,144,o),
(260,376,o),
(260,734,cs),
(260,1094,o),
(438,1330,o),
(712,1330,cs),
(836,1330,o),
(962,1274,o),
(1038,1188,c),
(1106,1352,l),
(1004,1430,o),
(856,1490,o),
(698,1490,cs),
(326,1490,o),
(84,1192,o),
(84,732,cs),
(84,278,o),
(320,-16,o),
(680,-16,cs)
);
}
);
width = 1310;
}
);
metricLeft = O;
unicode = 71;
},
{
color = 6;
glyphname = H;
kernLeft = LAT_H_UC;
kernRight = LAT_H_UC;
lastChange = "2023-11-23 10:09:18 +0000";
layers = (
{
anchors = (
{
name = bottom;
pos = (622,0);
},
{
name = center;
pos = (622,1086);
},
{
name = top;
pos = (622,1474);
}
);
layerId = "AB099EFE-E788-4EFC-8633-CF147CB782A6";
shapes = (
{
closed = 1;
nodes = (
(250,0,l),
(250,726,l),
(996,726,l),
(996,0,l),
(1060,0,l),
(1060,1474,l),
(996,1474,l),
(996,786,l),
(250,786,l),
(250,1474,l),
(186,1474,l),
(186,0,l)
);
}
);
width = 1246;
},
{
anchors = (
{
name = bottom;
pos = (668,0);
},
{
name = center;
pos = (668,1182);
},
{
name = top;
pos = (668,1474);
}
);
layerId = "2D8F7115-C311-411E-929D-56333CF7FFB2";
shapes = (
{
closed = 1;
nodes = (
(468,0,l),
(468,578,l),
(868,578,l),
(868,0,l),
(1232,0,l),
(1232,1474,l),
(868,1474,l),
(868,906,l),
(468,906,l),
(468,1474,l),
(104,1474,l),
(104,0,l)
);
}
);
width = 1336;
},
{
anchors = (
{
name = bottom;
pos = (646,0);
},
{
name = center;
pos = (646,1120);
},
{
name = top;
pos = (646,1474);
}
);
layerId = "FD1CEFBD-BAB1-4C2A-A598-30E93F9A29F6";
shapes = (
{
closed = 1;
nodes = (
(332,0,l),
(332,674,l),
(952,674,l),
(952,0,l),
(1128,0,l),
(1128,1474,l),
(952,1474,l),
(952,834,l),
(332,834,l),
(332,1474,l),
(156,1474,l),
(156,0,l)
);
}
);
width = 1284;
}
);
unicode = 72;
},
{
color = 6;
glyphname = I;
kernLeft = LAT_H_UC;
kernRight = LAT_H_UC;
lastChange = "2023-11-23 10:09:18 +0000";
layers = (
{
anchors = (
{
name = bottom;
pos = (226,0);
},
{
name = ogonek;
pos = (258,0);
},
{
name = top;
pos = (226,1474);
}
);
layerId = "AB099EFE-E788-4EFC-8633-CF147CB782A6";
shapes = (
{
closed = 1;
nodes = (
(258,0,l),
(258,1474,l),
(194,1474,l),
(194,0,l)
);
}
);
width = 454;
},
{
anchors = (
{
name = bottom;
pos = (308,0);
},
{
name = ogonek;
pos = (490,0);
},
{
name = top;
pos = (308,1474);
}
);
layerId = "2D8F7115-C311-411E-929D-56333CF7FFB2";
shapes = (
{
closed = 1;
nodes = (
(490,0,l),
(490,1474,l),
(126,1474,l),
(126,0,l)
);
}
);
width = 616;
},
{
anchors = (
{
name = bottom;
pos = (258,0);
},
{
name = ogonek;
pos = (346,0);
},
{
name = top;
pos = (258,1474);
}
);
layerId = "FD1CEFBD-BAB1-4C2A-A598-30E93F9A29F6";
shapes = (
{
closed = 1;
nodes = (
(346,0,l),
(346,1474,l),
(170,1474,l),
(170,0,l)
);
}
);
width = 518;
}
);
unicode = 73;
},
{
color = 6;
glyphname = I.ss03;
kernLeft = LAT_ISS03_UC;
kernRight = LAT_ISS03_UC;
lastChange = "2023-11-23 10:09:18 +0000";
layers = (
{
anchors = (
{
name = bottom;
pos = (330,0);
},
{
name = ogonek;
pos = (518,0);
},
{
name = top;
pos = (330,1474);
}
);
layerId = "AB099EFE-E788-4EFC-8633-CF147CB782A6";
shapes = (
{
closed = 1;
nodes = (
(364,0,l),
(364,1474,l),
(300,1474,l),
(300,0,l)
);
},
{
closed = 1;
nodes = (
(518,0,l),
(518,60,l),
(146,60,l),
(146,0,l)
);
},
{
closed = 1;
nodes = (
(518,1416,l),
(518,1474,l),
(146,1474,l),
(146,1416,l)
);
}
);
width = 664;
},
{
anchors = (
{
name = bottom;
pos = (448,0);
},
{
name = ogonek;
pos = (796,0);
},
{
name = top;
pos = (448,1474);
}
);
layerId = "2D8F7115-C311-411E-929D-56333CF7FFB2";
shapes = (
{
closed = 1;
nodes = (
(630,0,l),
(630,1474,l),
(266,1474,l),
(266,0,l)
);
},
{
closed = 1;
nodes = (
(796,0,l),
(796,320,l),
(96,320,l),
(96,0,l)
);
},
{
closed = 1;
nodes = (
(796,1154,l),
(796,1474,l),
(96,1474,l),
(96,1154,l)
);
}
);
width = 894;
},
{
anchors = (
{
name = bottom;
pos = (374,0);
},
{
name = ogonek;
pos = (626,0);
},
{
name = top;
pos = (374,1474);
}
);
layerId = "FD1CEFBD-BAB1-4C2A-A598-30E93F9A29F6";
shapes = (
{
closed = 1;
nodes = (
(462,0,l),
(462,1474,l),
(286,1474,l),
(286,0,l)
);
},
{
closed = 1;
nodes = (
(626,0,l),
(626,160,l),
(124,160,l),
(124,0,l)
);
},
{
closed = 1;
nodes = (
(626,1314,l),
(626,1474,l),
(124,1474,l),
(124,1314,l)
);
}
);
width = 750;
}
);
},
{
color = 6;
glyphname = J;
kernLeft = LAT_J_UC;
kernRight = LAT_U_UC;
lastChange = "2023-11-23 10:09:18 +0000";
layers = (
{
anchors = (
{
name = bottom;
pos = (388,0);
},
{
name = top;
pos = (610,1474);
}
);
layerId = "AB099EFE-E788-4EFC-8633-CF147CB782A6";
shapes = (
{
closed = 1;
nodes = (
(532,-16,o),
(654,122,o),
(654,322,cs),
(654,1474,l),
(590,1474,l),
(590,318,ls),
(590,156,o),
(494,44,o),
(360,44,cs),
(222,44,o),
(122,162,o),
(120,346,c),
(56,346,l),
(60,126,o),
(186,-16,o),
(360,-16,cs)
);
}
);
width = 840;
},
{
anchors = (
{
name = bottom;
pos = (522,0);
},
{
name = top;
pos = (724,1474);
}
);
layerId = "2D8F7115-C311-411E-929D-56333CF7FFB2";
shapes = (
{
closed = 1;
nodes = (
(750,-16,o),
(914,144,o),
(914,424,cs),
(914,1474,l),
(550,1474,l),
(550,422,ls),
(550,352,o),
(516,312,o),
(462,312,cs),
(390,312,o),
(358,380,o),
(358,510,c),
(20,510,l),
(20,166,o),
(166,-16,o),
(468,-16,cs)
);
}
);
width = 1018;
},
{
anchors = (
{
name = bottom;
pos = (424,0);
},
{
name = top;
pos = (656,1474);
}
);
layerId = "FD1CEFBD-BAB1-4C2A-A598-30E93F9A29F6";
shapes = (
{
closed = 1;
nodes = (
(608,-16,o),
(750,128,o),
(750,352,cs),
(750,1474,l),
(574,1474,l),
(574,328,ls),
(574,210,o),
(502,144,o),
(402,144,cs),
(282,144,o),
(216,242,o),
(212,426,c),
(40,426,l),
(46,148,o),
(178,-16,o),
(398,-16,cs)
);
}
);
width = 906;
}
);
metricRight = H;
unicode = 74;
},
{
color = 6;
glyphname = K;
kernLeft = LAT_H_UC;
kernRight = LAT_K_UC;
lastChange = "2023-11-23 10:09:18 +0000";
layers = (
{
anchors = (
{
name = bottom;
pos = (530,0);
},
{
name = top;
pos = (528,1474);
}
);
layerId = "AB099EFE-E788-4EFC-8633-CF147CB782A6";
shapes = (
{
closed = 1;
nodes = (
(250,0,l),
(250,708,l),
(278,708,l),
(246,734,l),
(852,0,l),
(940,0,l),
(306,762,l),
(306,716,l),
(902,1474,l),
(814,1474,l),
(246,742,l),
(278,766,l),
(250,766,l),
(250,1474,l),
(186,1474,l),
(186,0,l)
);
}
);
width = 1016;
},
{
anchors = (
{
name = bottom;
pos = (642,0);
},
{
name = top;
pos = (604,1474);
}
);
guides = (
{
angle = 120;
pos = (650,0);
}
);
layerId = "2D8F7115-C311-411E-929D-56333CF7FFB2";
shapes = (
{
closed = 1;
nodes = (
(468,0,l),
(468,638,l),
(552,638,l),
(442,692,l),
(838,0,l),
(1252,0,l),
(748,844,l),
(748,646,l),
(1242,1474,l),
(818,1474,l),
(442,774,l),
(552,828,l),
(468,828,l),
(468,1474,l),
(104,1474,l),
(104,0,l)
);
}
);
width = 1248;
},
{
anchors = (
{
name = bottom;
pos = (574,0);
},
{
name = top;
pos = (558,1474);
}
);
layerId = "FD1CEFBD-BAB1-4C2A-A598-30E93F9A29F6";
shapes = (
{
closed = 1;
nodes = (
(332,0,l),
(332,682,l),
(382,682,l),
(318,718,l),
(844,0,l),
(1058,0,l),
(470,794,l),
(470,690,l),
(1030,1474,l),
(814,1474,l),
(318,754,l),
(382,790,l),
(332,790,l),
(332,1474,l),
(156,1474,l),
(156,0,l)
);
}
);
width = 1102;
}
);
metricLeft = H;
unicode = 75;
},
{
color = 6;
glyphname = L;
kernLeft = LAT_H_UC;
kernRight = LAT_L_UC;
lastChange = "2023-11-23 10:09:18 +0000";
layers = (
{
anchors = (
{
name = bottom;
pos = (522,0);
},
{
name = center;
pos = (218,738);
},
{
name = dot;
pos = (668,738);
},
{
name = top;
pos = (218,1474);
},
{
name = topright;
pos = (664,1474);
}
);
layerId = "AB099EFE-E788-4EFC-8633-CF147CB782A6";
shapes = (
{
closed = 1;
nodes = (
(834,0,l),
(834,60,l),
(250,60,l),
(250,1474,l),
(186,1474,l),
(186,0,l)
);
}
);
width = 894;
},
{
anchors = (
{
name = bottom;
pos = (494,0);
},
{
name = center;
pos = (284,758);
},
{
name = dot;
pos = (754,754);
},
{
name = top;
pos = (296,1474);
},
{
name = topright;
pos = (522,1474);
}
);
layerId = "2D8F7115-C311-411E-929D-56333CF7FFB2";
shapes = (
{
closed = 1;
nodes = (
(866,0,l),
(866,328,l),
(468,328,l),
(468,1474,l),
(104,1474,l),
(104,0,l)
);
}
);
width = 876;
},
{
anchors = (
{
name = bottom;
pos = (512,0);
},
{
name = center;
pos = (244,746);
},
{
name = dot;
pos = (698,746);
},
{
name = top;
pos = (246,1474);
},
{
name = topright;
pos = (610,1474);
}
);
layerId = "FD1CEFBD-BAB1-4C2A-A598-30E93F9A29F6";
shapes = (
{
closed = 1;
nodes = (
(846,0,l),
(846,160,l),
(332,160,l),
(332,1474,l),
(156,1474,l),
(156,0,l)
);
}
);
width = 890;
}
);
metricLeft = H;
unicode = 76;
},
{
color = 6;
glyphname = M;
kernLeft = LAT_H_UC;
kernRight = LAT_H_UC;
lastChange = "2023-11-23 10:09:18 +0000";
layers = (
{
anchors = (
{
name = bottom;
pos = (698,0);
},
{
name = top;
pos = (698,1474);
}
);
layerId = "AB099EFE-E788-4EFC-8633-CF147CB782A6";
shapes = (
{
closed = 1;
nodes = (
(250,0,l),
(250,1076,l),
(250,1320,l),
(258,1320,l),
(440,866,l),
(680,274,l),
(716,274,l),
(956,866,l),
(1138,1320,l),
(1146,1320,l),
(1146,1076,l),
(1146,0,l),
(1210,0,l),
(1210,1474,l),
(1134,1474,l),
(702,390,l),
(694,390,l),
(262,1474,l),
(186,1474,l),
(186,0,l)
);
}
);
width = 1396;
},
{
anchors = (
{
name = bottom;
pos = (796,0);
},
{
name = top;
pos = (796,1474);
}
);
layerId = "2D8F7115-C311-411E-929D-56333CF7FFB2";
shapes = (
{
closed = 1;
nodes = (
(468,0,l),
(468,422,l),
(460,778,l),
(468,778,l),
(584,588,l),
(756,330,l),
(836,330,l),
(1008,588,l),
(1124,778,l),
(1132,778,l),
(1124,422,l),
(1124,0,l),
(1488,0,l),
(1488,1474,l),
(1220,1474,l),
(800,820,l),
(794,820,l),
(372,1474,l),
(104,1474,l),
(104,0,l)
);
}
);
width = 1592;
},
{
anchors = (
{
name = bottom;
pos = (736,0);
},
{
name = top;
pos = (736,1474);
}
);
layerId = "FD1CEFBD-BAB1-4C2A-A598-30E93F9A29F6";
shapes = (
{
closed = 1;
nodes = (
(332,0,l),
(332,770,l),
(324,1070,l),
(332,1070,l),
(444,826,l),
(704,300,l),
(768,300,l),
(1028,826,l),
(1140,1070,l),
(1148,1070,l),
(1140,770,l),
(1140,0,l),
(1316,0,l),
(1316,1474,l),
(1174,1474,l),
(740,570,l),
(732,570,l),
(298,1474,l),
(156,1474,l),
(156,0,l)
);
}
);
width = 1472;
}
);
metricLeft = H;
metricRight = H;
unicode = 77;
},
{
color = 6;
glyphname = N;
kernLeft = LAT_H_UC;
kernRight = LAT_H_UC;
lastChange = "2023-11-23 10:09:18 +0000";
layers = (
{
anchors = (
{
name = bottom;
pos = (616,0);
},
{
name = leghookright;
pos = (1038,0);
},
{
name = top;
pos = (628,1474);
}
);
layerId = "AB099EFE-E788-4EFC-8633-CF147CB782A6";
shapes = (
{
closed = 1;
nodes = (
(250,0,l),
(250,946,l),
(250,1322,l),
(258,1322,l),
(402,1068,l),
(1016,0,l),
(1068,0,l),
(1068,1474,l),
(1004,1474,l),
(1004,538,l),
(1004,152,l),
(996,152,l),
(852,406,l),
(238,1474,l),
(186,1474,l),
(186,0,l)
);
}
);
width = 1254;
},
{
anchors = (
{
name = bottom;
pos = (682,0);
},
{
name = leghookright;
pos = (1090,0);
},
{
name = top;
pos = (686,1474);
}
);
layerId = "2D8F7115-C311-411E-929D-56333CF7FFB2";
shapes = (
{
closed = 1;
nodes = (
(468,0,l),
(468,524,l),
(462,854,l),
(468,854,l),
(540,716,l),
(982,0,l),
(1266,0,l),
(1266,1474,l),
(902,1474,l),
(902,950,l),
(912,642,l),
(904,642,l),
(832,774,l),
(386,1474,l),
(104,1474,l),
(104,0,l)
);
}
);
width = 1370;
},
{
anchors = (
{
name = bottom;
pos = (646,0);
},
{
name = leghookright;
pos = (1050,0);
},
{
name = top;
pos = (648,1474);
}
);
layerId = "FD1CEFBD-BAB1-4C2A-A598-30E93F9A29F6";
shapes = (
{
closed = 1;
nodes = (
(332,0,l),
(332,722,l),
(328,1104,l),
(336,1104,l),
(456,904,l),
(1012,0,l),
(1136,0,l),
(1136,1474,l),
(960,1474,l),
(960,752,l),
(964,370,l),
(956,370,l),
(836,570,l),
(282,1474,l),
(156,1474,l),
(156,0,l)
);
}
);
width = 1292;
}
);
metricLeft = H;
metricRight = H;
unicode = 78;
},
{
color = 6;
glyphname = O;
kernLeft = LAT_O_UC;
kernRight = LAT_O_UC;
lastChange = "2023-11-23 10:09:18 +0000";
layers = (
{
anchors = (
{
name = bottom;
pos = (652,0);
},
{
name = center;
pos = (654,738);
},
{
name = horn;
pos = (900,1410);
},
{
name = ogonek;
pos = (756,0);
},
{
name = top;
pos = (652,1474);
},
{
name = topleft;
pos = (80,1474);
},
{
name = topright;
pos = (1226,1474);
}
);
layerId = "AB099EFE-E788-4EFC-8633-CF147CB782A6";
shapes = (
{
closed = 1;
nodes = (
(972,-16,o),
(1192,290,o),
(1192,738,cs),
(1192,1184,o),
(972,1490,o),
(652,1490,cs),
(334,1490,o),
(116,1182,o),
(116,738,cs),
(116,292,o),
(334,-16,o),
(652,-16,cs)
);
},
{
closed = 1;
nodes = (
(372,44,o),
(180,328,o),
(180,738,cs),
(180,1146,o),
(372,1430,o),
(652,1430,cs),
(934,1430,o),
(1128,1148,o),
(1128,738,cs),
(1128,326,o),
(934,44,o),
(652,44,cs)
);
}
);
width = 1308;
},
{
anchors = (
{
name = bottom;
pos = (662,0);
},
{
name = center;
pos = (662,738);
},
{
name = horn;
pos = (916,1426);
},
{
name = ogonek;
pos = (792,0);
},
{
name = top;
pos = (662,1474);
},
{
name = topleft;
pos = (-10,1474);
},
{
name = topright;
pos = (1338,1474);
}
);
layerId = "2D8F7115-C311-411E-929D-56333CF7FFB2";
shapes = (
{
closed = 1;
nodes = (
(1042,-16,o),
(1290,280,o),
(1290,738,cs),
(1290,1194,o),
(1042,1490,o),
(660,1490,cs),
(280,1490,o),
(32,1194,o),
(32,738,cs),
(32,280,o),
(280,-16,o),
(660,-16,cs)
);
},
{
closed = 1;
nodes = (
(500,320,o),
(396,482,o),
(396,738,cs),
(396,994,o),
(500,1154,o),
(660,1154,cs),
(822,1154,o),
(926,992,o),
(926,738,cs),
(926,484,o),
(822,320,o),
(660,320,cs)
);
}
);
width = 1322;
},
{
anchors = (
{
name = bottom;
pos = (654,0);
},
{
name = center;
pos = (658,738);
},
{
name = horn;
pos = (900,1422);
},
{
name = ogonek;
pos = (764,0);
},
{
name = top;
pos = (654,1474);
},
{
name = topleft;
pos = (48,1470);
},
{
name = topright;
pos = (1262,1470);
}
);
layerId = "FD1CEFBD-BAB1-4C2A-A598-30E93F9A29F6";
shapes = (
{
closed = 1;
nodes = (
(1004,-16,o),
(1230,280,o),
(1230,738,cs),
(1230,1195,o),
(1004,1490,o),
(656,1490,cs),
(309,1490,o),
(84,1195,o),
(84,738,cs),
(84,280,o),
(309,-16,o),
(656,-16,cs)
);
},
{
closed = 1;
nodes = (
(416,144,o),
(260,377,o),
(260,738,cs),
(260,1097,o),
(416,1330,o),
(656,1330,cs),
(896,1330,o),
(1052,1097,o),
(1054,738,cs),
(1056,377,o),
(900,144,o),
(658,144,cs)
);
}
);
width = 1314;
}
);
unicode = 79;
},
{
color = 6;
glyphname = OE;
kernLeft = LAT_O_UC;
kernRight = LAT_E_UC;
lastChange = "2023-11-23 10:09:18 +0000";
layers = (
{
anchors = (
{
name = bottom;
pos = (956,0);
},
{
name = top;
pos = (956,1474);
}
);
background = {
shapes = (
{
pos = (-6,0);
ref = O;
},
{
pos = (940,0);
ref = E;
}
);
};
layerId = "AB099EFE-E788-4EFC-8633-CF147CB782A6";
shapes = (
{
closed = 1;
nodes = (
(882,-16,o),
(1075,176,o),
(1126,456,c),
(1098,456,l),
(1098,0,l),
(1764,0,l),
(1764,60,l),
(1162,60,l),
(1162,726,l),
(1688,726,l),
(1688,786,l),
(1162,786,l),
(1162,1414,l),
(1764,1414,l),
(1764,1474,l),
(1098,1474,l),
(1098,1018,l),
(1126,1018,l),
(1076,1298,o),
(883,1490,o),
(652,1490,cs),
(334,1490,o),
(116,1184,o),
(116,738,cs),
(116,291,o),
(334,-16,o),
(652,-16,cs)
);
},
{
closed = 1;
nodes = (
(374,44,o),
(180,327,o),
(180,740,cs),
(180,1149,o),
(374,1430,o),
(656,1430,cs),
(918,1430,o),
(1098,1150,o),
(1098,742,cs),
(1098,328,o),
(918,44,o),
(656,44,cs)
);
}
);
width = 1900;
},
{
anchors = (
{
name = bottom;
pos = (890,0);
},
{
name = top;
pos = (890,1474);
}
);
background = {
shapes = (
{
pos = (-22,0);
ref = O;
},
{
pos = (910,0);
ref = E;
}
);
};
layerId = "2D8F7115-C311-411E-929D-56333CF7FFB2";
shapes = (
{
closed = 1;
nodes = (
(830,-16,o),
(954,108,o),
(1020,310,c),
(930,310,l),
(930,0,l),
(1682,0,l),
(1682,328,l),
(1246,328,l),
(1246,586,l),
(1612,586,l),
(1612,902,l),
(1246,902,l),
(1246,1146,l),
(1682,1146,l),
(1682,1474,l),
(930,1474,l),
(930,1166,l),
(1020,1166,l),
(952,1374,o),
(826,1490,o),
(610,1490,cs),
(266,1490,o),
(32,1196,o),
(32,738,cs),
(32,278,o),
(266,-16,o),
(608,-16,cs)
);
},
{
closed = 1;
nodes = (
(490,320,o),
(396,482,o),
(396,738,cs),
(396,994,o),
(490,1154,o),
(662,1154,cs),
(836,1154,o),
(928,992,o),
(928,738,cs),
(928,484,o),
(836,320,o),
(662,320,cs)
);
}
);
width = 1754;
},
{
anchors = (
{
name = bottom;
pos = (956,0);
},
{
name = top;
pos = (956,1474);
}
);
background = {
shapes = (
{
ref = O;
},
{
pos = (886,0);
ref = E;
}
);
};
layerId = "FD1CEFBD-BAB1-4C2A-A598-30E93F9A29F6";
shapes = (
{
closed = 1;
nodes = (
(856,-16,o),
(1060,140,o),
(1122,404,c),
(1054,404,l),
(1054,0,l),
(1748,0,l),
(1748,160,l),
(1214,160,l),
(1214,670,l),
(1674,670,l),
(1674,830,l),
(1214,830,l),
(1214,1314,l),
(1748,1314,l),
(1748,1474,l),
(1054,1474,l),
(1054,1076,l),
(1122,1076,l),
(1058,1344,o),
(866,1490,o),
(640,1490,cs),
(304,1490,o),
(84,1172,o),
(84,740,cs),
(84,306,o),
(306,-16,o),
(634,-16,cs)
);
},
{
closed = 1;
nodes = (
(398,144,o),
(260,396,o),
(260,738,cs),
(260,1084,o),
(398,1330,o),
(652,1330,cs),
(904,1330,o),
(1054,1084,o),
(1054,738,cs),
(1054,396,o),
(904,144,o),
(652,144,cs)
);
}
);
width = 1860;
}
);
metricLeft = O;
metricRight = E;
unicode = 338;
},
{
color = 6;
glyphname = P;
kernLeft = LAT_H_UC;
kernRight = LAT_P_UC;
lastChange = "2023-11-23 10:09:18 +0000";
layers = (
{
anchors = (
{
name = bottom;
pos = (218,0);
},
{
name = top;
pos = (568,1474);
}
);
layerId = "AB099EFE-E788-4EFC-8633-CF147CB782A6";
shapes = (
{
closed = 1;
nodes = (
(524,666,ls),
(748,666,o),
(894,854,o),
(894,1078,cs),
(894,1320,o),
(730,1474,o),
(512,1474,cs),
(222,1474,l),
(222,1414,l),
(506,1414,ls),
(696,1414,o),
(830,1286,o),
(830,1078,cs),
(830,868,o),
(698,726,o),
(514,726,cs),
(222,726,l),
(222,666,l)
);
},
{
closed = 1;
nodes = (
(250,0,l),
(250,1474,l),
(186,1474,l),
(186,0,l)
);
}
);
width = 998;
},
{
anchors = (
{
name = bottom;
pos = (288,0);
},
{
name = top;
pos = (588,1474);
}
);
layerId = "2D8F7115-C311-411E-929D-56333CF7FFB2";
shapes = (
{
closed = 1;
nodes = (
(590,454,ls),
(882,454,o),
(1088,662,o),
(1088,976,cs),
(1088,1278,o),
(902,1474,o),
(584,1474,cs),
(402,1474,l),
(402,1146,l),
(564,1146,ls),
(666,1146,o),
(728,1076,o),
(728,964,cs),
(728,856,o),
(668,782,o),
(574,782,cs),
(402,782,l),
(402,454,l)
);
},
{
closed = 1;
nodes = (
(468,0,l),
(468,1474,l),
(104,1474,l),
(104,0,l)
);
}
);
width = 1112;
},
{
anchors = (
{
name = bottom;
pos = (244,0);
},
{
name = top;
pos = (574,1474);
}
);
layerId = "FD1CEFBD-BAB1-4C2A-A598-30E93F9A29F6";
shapes = (
{
closed = 1;
nodes = (
(534,588,ls),
(794,588,o),
(964,776,o),
(964,1036,cs),
(964,1298,o),
(790,1474,o),
(526,1474,cs),
(288,1474,l),
(288,1314,l),
(514,1314,ls),
(684,1314,o),
(788,1202,o),
(788,1034,cs),
(788,868,o),
(686,748,o),
(524,748,cs),
(288,748,l),
(288,588,l)
);
},
{
closed = 1;
nodes = (
(332,0,l),
(332,1474,l),
(156,1474,l),
(156,0,l)
);
}
);
width = 1040;
}
);
metricLeft = H;
unicode = 80;
},
{
color = 6;
glyphname = Thorn;
kernLeft = LAT_H_UC;
kernRight = LAT_THORN_UC;
lastChange = "2023-11-23 10:09:18 +0000";
layers = (
{
layerId = "AB099EFE-E788-4EFC-8633-CF147CB782A6";
shapes = (
{
closed = 1;
nodes = (
(546,328,ls),
(776,328,o),
(916,500,o),
(916,742,cs),
(916,984,o),
(776,1138,o),
(546,1138,cs),
(230,1138,l),
(230,1078,l),
(552,1078,ls),
(740,1078,o),
(852,950,o),
(852,742,cs),
(852,532,o),
(740,388,o),
(552,388,cs),
(230,388,l),
(230,328,l)
);
},
{
closed = 1;
nodes = (
(250,0,l),
(250,1474,l),
(186,1474,l),
(186,0,l)
);
}
);
width = 1022;
},
{
layerId = "2D8F7115-C311-411E-929D-56333CF7FFB2";
shapes = (
{
closed = 1;
nodes = (
(590,228,ls),
(882,227,o),
(1088,435,o),
(1088,750,cs),
(1088,1051,o),
(902,1247,o),
(584,1248,cs),
(402,1248,l),
(402,920,l),
(564,920,ls),
(666,919,o),
(728,849,o),
(728,738,cs),
(728,629,o),
(668,555,o),
(574,556,cs),
(402,556,l),
(402,228,l)
);
},
{
closed = 1;
nodes = (
(468,0,l),
(468,1474,l),
(104,1474,l),
(104,0,l)
);
}
);
width = 1116;
},
{
background = {
shapes = (
{
closed = 1;
nodes = (
(332,0,l),
(332,1474,l),
(156,1474,l),
(156,0,l)
);
}
);
};
layerId = "FD1CEFBD-BAB1-4C2A-A598-30E93F9A29F6";
shapes = (
{
closed = 1;
nodes = (
(546,294,ls),
(806,294,o),
(976,483,o),
(976,742,cs),
(976,1004,o),
(802,1180,o),
(538,1180,cs),
(288,1180,l),
(288,1020,l),
(526,1020,ls),
(696,1020,o),
(800,908,o),
(800,740,cs),
(800,574,o),
(698,454,o),
(536,454,cs),
(288,454,l),
(288,294,l)
);
},
{
closed = 1;
nodes = (
(332,0,l),
(332,1474,l),
(156,1474,l),
(156,0,l)
);
}
);
width = 1060;
}
);
metricLeft = H;
unicode = 222;
},
{
color = 6;
glyphname = Q;
kernLeft = LAT_O_UC;
kernRight = LAT_Q_UC;
lastChange = "2023-11-23 10:09:18 +0000";
layers = (
{
anchors = (
{
name = bottom;
pos = (716,0);
},
{
name = center;
pos = (658,738);
},
{
name = horn;
pos = (906,1410);
},
{
name = ogonek;
pos = (760,0);
},
{
name = top;
pos = (710,1474);
},
{
name = topleft;
pos = (80,1474);
},
{
name = topright;
pos = (1234,1474);
}
);
layerId = "AB099EFE-E788-4EFC-8633-CF147CB782A6";
shapes = (
{
closed = 1;
nodes = (
(972,-16,o),
(1192,290,o),
(1192,738,cs),
(1192,1184,o),
(972,1490,o),
(652,1490,cs),
(334,1490,o),
(116,1182,o),
(116,738,cs),
(116,292,o),
(334,-16,o),
(652,-16,cs)
);
},
{
closed = 1;
nodes = (
(1126,0,l),
(1018,170,l),
(1004,186,l),
(790,548,l),
(718,548,l),
(958,150,l),
(970,136,l),
(1054,0,l)
);
},
{
closed = 1;
nodes = (
(372,44,o),
(180,328,o),
(180,738,cs),
(180,1146,o),
(372,1430,o),
(652,1430,cs),
(934,1430,o),
(1128,1148,o),
(1128,738,cs),
(1128,326,o),
(934,44,o),
(652,44,cs)
);
}
);
width = 1316;
},
{
anchors = (
{
name = bottom;
pos = (688,0);
},
{
name = center;
pos = (676,738);
},
{
name = horn;
pos = (936,1426);
},
{
name = ogonek;
pos = (810,0);
},
{
name = top;
pos = (690,1474);
},
{
name = topleft;
pos = (-12,1474);
},
{
name = topright;
pos = (1364,1474);
}
);
layerId = "2D8F7115-C311-411E-929D-56333CF7FFB2";
shapes = (
{
closed = 1;
nodes = (
(1044,-16,o),
(1318,280,o),
(1318,738,cs),
(1318,1196,o),
(1064,1490,o),
(674,1490,cs),
(284,1490,o),
(32,1194,o),
(32,738,cs),
(32,282,o),
(284,-16,o),
(674,-16,cs)
);
},
{
closed = 1;
nodes = (
(1376,0,l),
(1156,302,l),
(956,454,l),
(844,640,l),
(496,640,l),
(726,324,l),
(892,204,l),
(1034,0,l)
);
},
{
closed = 1;
nodes = (
(502,308,o),
(396,476,o),
(396,738,cs),
(396,1000,o),
(502,1154,o),
(674,1154,cs),
(848,1154,o),
(954,1000,o),
(954,738,cs),
(954,438,o),
(848,308,o),
(674,308,cs)
);
}
);
width = 1404;
},
{
anchors = (
{
name = bottom;
pos = (706,0);
},
{
name = center;
pos = (662,738);
},
{
name = horn;
pos = (908,1422);
},
{
name = ogonek;
pos = (770,0);
},
{
name = top;
pos = (706,1474);
},
{
name = topleft;
pos = (48,1470);
},
{
name = topright;
pos = (1274,1470);
}
);
layerId = "FD1CEFBD-BAB1-4C2A-A598-30E93F9A29F6";
shapes = (
{
closed = 1;
nodes = (
(1012,-16,o),
(1242,280,o),
(1242,738,cs),
(1242,1194,o),
(1014,1490,o),
(662,1490,cs),
(312,1490,o),
(84,1194,o),
(84,738,cs),
(84,280,o),
(312,-16,o),
(662,-16,cs)
);
},
{
closed = 1;
nodes = (
(1234,0,l),
(1074,224,l),
(1000,290,l),
(812,596,l),
(624,596,l),
(876,216,l),
(942,160,l),
(1050,0,l)
);
},
{
closed = 1;
nodes = (
(420,144,o),
(260,378,o),
(260,738,cs),
(260,1096,o),
(418,1330,o),
(662,1330,cs),
(904,1330,o),
(1064,1096,o),
(1066,738,cs),
(1068,378,o),
(908,144,o),
(664,144,cs)
);
}
);
width = 1326;
}
);
metricLeft = O;
unicode = 81;
},
{
color = 6;
glyphname = R;
kernLeft = LAT_H_UC;
kernRight = LAT_R_UC;
lastChange = "2023-11-23 10:09:18 +0000";
layers = (
{
anchors = (
{
name = bottom;
pos = (564,0);
},
{
name = top;
pos = (504,1474);
}
);
guides = (
{
angle = 120;
pos = (670,-20);
},
{
angle = 67.5;
pos = (258,-18);
}
);
layerId = "AB099EFE-E788-4EFC-8633-CF147CB782A6";
shapes = (
{
closed = 1;
nodes = (
(510,666,ls),
(728,666,o),
(870,854,o),
(870,1078,cs),
(870,1320,o),
(712,1474,o),
(502,1474,cs),
(220,1474,l),
(220,1414,l),
(494,1414,ls),
(678,1414,o),
(806,1286,o),
(806,1078,cs),
(806,868,o),
(680,726,o),
(500,726,cs),
(220,726,l),
(220,666,l)
);
},
{
closed = 1;
nodes = (
(250,0,l),
(250,1474,l),
(186,1474,l),
(186,0,l)
);
},
{
closed = 1;
nodes = (
(954,0,l),
(548,716,l),
(504,672,l),
(882,0,l)
);
}
);
width = 1052;
},
{
anchors = (
{
name = bottom;
pos = (610,0);
},
{
name = top;
pos = (558,1474);
}
);
guides = (
{
angle = 120;
pos = (672,0);
}
);
layerId = "2D8F7115-C311-411E-929D-56333CF7FFB2";
shapes = (
{
closed = 1;
nodes = (
(502,486,ls),
(856,486,o),
(1072,720,o),
(1072,1018,cs),
(1072,1316,o),
(864,1474,o),
(606,1474,cs),
(366,1474,l),
(366,1146,l),
(554,1146,ls),
(658,1146,o),
(712,1084,o),
(712,978,cs),
(712,858,o),
(646,786,o),
(558,786,cs),
(366,786,l),
(366,486,l)
);
},
{
closed = 1;
nodes = (
(468,0,l),
(468,1474,l),
(104,1474,l),
(104,0,l)
);
},
{
closed = 1;
nodes = (
(1182,0,l),
(816,754,l),
(560,538,l),
(786,0,l)
);
}
);
width = 1224;
},
{
anchors = (
{
name = bottom;
pos = (580,0);
},
{
name = top;
pos = (530,1474);
}
);
hints = (
{
horizontal = 1;
origin = (0,0);
settings = {
deltaV = {
"{100, 88, 0, 0, 0, 0}" = {
"12" = 3;
};
};
};
type = TTDelta;
},
{
horizontal = 1;
origin = (0,17);
settings = {
deltaV = {
"{100, 88, 0, 0, 0, 0}" = {
"12" = 3;
};
};
};
type = TTDelta;
},
{
horizontal = 1;
origin = (0,16);
settings = {
deltaV = {
"{100, 88, 0, 0, 0, 0}" = {
"12" = 3;
};
};
};
type = TTDelta;
},
{
horizontal = 1;
origin = (0,15);
settings = {
deltaV = {
"{100, 88, 0, 0, 0, 0}" = {
"12" = 3;
};
};
};
type = TTDelta;
},
{
horizontal = 1;
origin = (1,0);
settings = {
deltaV = {
"{100, 88, 0, 0, 0, 0}" = {
"12" = 3;
};
};
};
type = TTDelta;
},
{
horizontal = 1;
origin = (0,10,1,0);
settings = {
deltaV = {
"{100, 88, 0, 0, 0, 0}" = {
"12" = 3;
};
};
};
type = TTDelta;
},
{
horizontal = 1;
origin = (0,13,2,1);
settings = {
deltaV = {
"{100, 88, 0, 0, 0, 0}" = {
"12" = 3;
};
};
};
type = TTDelta;
},
{
horizontal = 1;
origin = (0,13,2,3);
settings = {
deltaV = {
"{100, 88, 0, 0, 0, 0}" = {
"12" = 3;
};
};
};
type = TTDelta;
}
);
layerId = "FD1CEFBD-BAB1-4C2A-A598-30E93F9A29F6";
shapes = (
{
closed = 1;
nodes = (
(510,600,ls),
(778,600,o),
(956,792,o),
(956,1058,cs),
(956,1308,o),
(790,1474,o),
(544,1474,cs),
(274,1474,l),
(274,1314,l),
(516,1314,ls),
(676,1314,o),
(780,1208,o),
(780,1044,cs),
(780,874,o),
(680,756,o),
(526,756,cs),
(274,756,l),
(274,600,l)
);
},
{
closed = 1;
nodes = (
(332,0,l),
(332,1474,l),
(156,1474,l),
(156,0,l)
);
},
{
closed = 1;
nodes = (
(1036,0,l),
(632,734,l),
(500,628,l),
(840,0,l)
);
}
);
width = 1124;
}
);
metricLeft = H;
unicode = 82;
},
{
color = 6;
glyphname = S;
kernLeft = LAT_S_UC;
kernRight = LAT_S_UC;
lastChange = "2023-11-23 10:09:18 +0000";
layers = (
{
anchors = (
{
name = bottom;
pos = (482,0);
},
{
name = cedilla;
pos = (462,0);
},
{
name = top;
pos = (456,1478);
}
);
background = {
shapes = (
{
closed = 1;
nodes = (
(694,-16,o),
(858,144,o),
(858,378,cs),
(858,588,o),
(728,704,o),
(496,794,cs),
(268,882,o),
(178,984,o),
(178,1138,cs),
(178,1308,o),
(284,1426,o),
(444,1426,cs),
(576,1426,o),
(702,1344,o),
(760,1242,c),
(790,1304,l),
(720,1418,o),
(584,1486,o),
(448,1486,cs),
(248,1486,o),
(114,1346,o),
(114,1148,cs),
(114,964,o),
(228,836,o),
(428,756,cs),
(668,660,o),
(794,582,o),
(794,384,cs),
(794,180,o),
(660,44,o),
(486,44,cs),
(328,44,o),
(186,156,o),
(114,320,c),
(82,242,l),
(160,86,o),
(322,-16,o),
(488,-16,cs)
);
}
);
};
guides = (
{
angle = 67.5;
pos = (120,300);
}
);
layerId = "AB099EFE-E788-4EFC-8633-CF147CB782A6";
shapes = (
{
closed = 1;
nodes = (
(700,-16,o),
(864,148,o),
(864,378,cs),
(864,592,o),
(726,696,o),
(504,794,cs),
(289,889,o),
(184,976,o),
(184,1142,cs),
(184,1308,o),
(290,1430,o),
(450,1430,cs),
(580,1430,o),
(708,1348,o),
(766,1266,c),
(796,1328,l),
(726,1422,o),
(588,1490,o),
(452,1490,cs),
(254,1490,o),
(120,1348,o),
(120,1152,cs),
(120,956,o),
(252,840,o),
(448,752,cs),
(672,652,o),
(800,582,o),
(800,382,cs),
(800,184,o),
(666,44,o),
(490,44,cs),
(336,44,o),
(192,155,o),
(120,300,c),
(88,224,l),
(166,87,o),
(330,-16,o),
(492,-16,cs)
);
}
);
userData = {
RMXScaler = {
height = 139;
width = 140;
};
};
width = 948;
},
{
anchors = (
{
name = bottom;
pos = (542,0);
},
{
name = cedilla;
pos = (566,0);
},
{
name = top;
pos = (510,1474);
}
);
background = {
shapes = (
{
closed = 1;
nodes = (
(794,-16,o),
(996,198,o),
(992,454,cs),
(988,730,o),
(802,824,o),
(700,862,cs),
(652,880,o),
(430,938,o),
(430,1054,cs),
(430,1116,o),
(458,1164,o),
(514,1164,cs),
(562,1164,o),
(610,1094,o),
(630,1036,c),
(966,1176,l),
(904,1356,o),
(748,1490,o),
(512,1490,cs),
(236,1490,o),
(62,1312,o),
(62,1062,cs),
(62,816,o),
(232,688,o),
(396,626,cs),
(492,590,o),
(622,558,o),
(622,444,cs),
(622,376,o),
(584,320,o),
(534,320,cs),
(452,320,o),
(396,418,o),
(372,504,c),
(18,356,l),
(80,148,o),
(308,-16,o),
(524,-16,cs)
);
}
);
};
guides = (
{
angle = 22.5;
pos = (310,288);
},
{
angle = 90;
pos = (78,-108);
},
{
angle = 90;
pos = (530,-108);
}
);
layerId = "2D8F7115-C311-411E-929D-56333CF7FFB2";
shapes = (
{
closed = 1;
nodes = (
(804,-16,o),
(1012,164,o),
(1012,438,cs),
(1012,678,o),
(844,810,o),
(632,886,cs),
(498,934,o),
(440,980,o),
(440,1042,cs),
(440,1106,o),
(504,1144,o),
(576,1144,cs),
(664,1144,o),
(792,1080,o),
(838,1016,c),
(970,1334,l),
(852,1438,o),
(696,1490,o),
(556,1490,cs),
(290,1490,o),
(80,1316,o),
(80,1056,cs),
(80,804,o),
(286,668,o),
(456,608,cs),
(588,562,o),
(652,512,o),
(652,442,cs),
(652,382,o),
(612,328,o),
(516,328,cs),
(398,328,o),
(268,412,o),
(184,510,c),
(44,172,l),
(160,68,o),
(354,-16,o),
(536,-16,cs)
);
}
);
userData = {
RMXScaler = {
height = 137;
weight = 160;
width = 140;
};
};
width = 1056;
},
{
anchors = (
{
name = bottom;
pos = (510,0);
},
{
name = cedilla;
pos = (510,0);
},
{
name = top;
pos = (498,1474);
}
);
background = {
shapes = (
{
closed = 1;
nodes = (
(730,-16,o),
(906,150,o),
(906,402,cs),
(906,654,o),
(732,778,o),
(540,838,cs),
(388,886,o),
(282,962,o),
(282,1104,cs),
(282,1228,o),
(364,1314,o),
(488,1314,cs),
(606,1314,o),
(710,1236,o),
(784,1134,c),
(860,1306,l),
(768,1420,o),
(630,1490,o),
(486,1490,cs),
(260,1490,o),
(106,1334,o),
(106,1110,cs),
(106,888,o),
(256,740,o),
(460,676,cs),
(624,624,o),
(726,552,o),
(726,406,cs),
(726,260,o),
(624,160,o),
(500,160,cs),
(380,160,o),
(244,252,o),
(152,394,c),
(62,222,l),
(168,86,o),
(336,-16,o),
(510,-16,cs)
);
}
);
};
guides = (
{
angle = 67.5;
pos = (792,1098);
}
);
layerId = "FD1CEFBD-BAB1-4C2A-A598-30E93F9A29F6";
shapes = (
{
closed = 1;
nodes = (
(728,-16,o),
(912,152,o),
(912,402,cs),
(912,642,o),
(742,756,o),
(550,830,cs),
(388,892,o),
(286,970,o),
(286,1112,cs),
(286,1232,o),
(368,1326,o),
(492,1326,cs),
(600,1326,o),
(714,1256,o),
(796,1150,c),
(864,1314,l),
(774,1420,o),
(632,1490,o),
(488,1490,cs),
(268,1490,o),
(110,1336,o),
(110,1116,cs),
(110,912,o),
(246,774,o),
(464,688,cs),
(634,622,o),
(736,546,o),
(736,404,cs),
(736,256,o),
(626,148,o),
(496,148,cs),
(364,148,o),
(234,258,o),
(156,374,c),
(80,194,l),
(170,82,o),
(334,-16,o),
(504,-16,cs)
);
}
);
userData = {
RMXScaler = {
height = 139;
width = 140;
};
};
width = 1000;
}
);
unicode = 83;
userData = {
RMXScaler = {
source = s;
};
};
},
{
color = 6;
glyphname = Germandbls;
kernLeft = LAT_GERMANDBLS_UC;
kernRight = LAT_GERMANDBLS_UC;
lastChange = "2023-11-23 10:09:18 +0000";
layers = (
{
layerId = "AB099EFE-E788-4EFC-8633-CF147CB782A6";
shapes = (
{
closed = 1;
nodes = (
(850,-16,o),
(1028,190,o),
(1028,458,cs),
(1028,714,o),
(872,906,o),
(642,892,c),
(674,860,l),
(874,1414,l),
(874,1430,l),
(778,1476,o),
(633,1490,o),
(562,1490,cs),
(296,1490,o),
(174,1362,o),
(174,1126,cs),
(174,0,l),
(238,0,l),
(238,1132,ls),
(238,1326,o),
(334,1430,o),
(550,1430,cs),
(625,1430,o),
(765,1412,o),
(814,1386,c),
(810,1420,l),
(610,864,l),
(610,836,l),
(644,836,ls),
(833,836,o),
(964,688,o),
(964,460,cs),
(964,208,o),
(800,44,o),
(618,44,cs),
(566,44,o),
(498,60,o),
(450,80,c),
(450,16,l),
(488,-4,o),
(556,-16,o),
(612,-16,cs)
);
}
);
width = 1152;
},
{
layerId = "2D8F7115-C311-411E-929D-56333CF7FFB2";
shapes = (
{
closed = 1;
nodes = (
(1048,-16,o),
(1248,178,o),
(1248,486,cs),
(1248,720,o),
(1132,904,o),
(948,934,c),
(952,768,l),
(1158,1342,l),
(1158,1376,l),
(1066,1438,o),
(854,1490,o),
(662,1490,cs),
(306,1490,o),
(94,1312,o),
(94,1022,cs),
(94,0,l),
(458,0,l),
(458,976,ls),
(458,1098,o),
(528,1174,o),
(668,1174,cs),
(742,1174,o),
(782,1152,o),
(796,1138,c),
(774,1218,l),
(636,740,l),
(636,678,l),
(718,678,ls),
(824,678,o),
(888,604,o),
(888,490,cs),
(888,376,o),
(824,308,o),
(716,308,cs),
(690,308,o),
(640,312,o),
(598,318,c),
(598,-12,l),
(648,-16,o),
(680,-16,o),
(740,-16,cs)
);
}
);
width = 1296;
},
{
layerId = "FD1CEFBD-BAB1-4C2A-A598-30E93F9A29F6";
shapes = (
{
closed = 1;
nodes = (
(925,-16,o),
(1112,186,o),
(1112,470,cs),
(1112,716,o),
(970,905,o),
(758,908,c),
(780,826,l),
(986,1388,l),
(986,1410,l),
(894,1462,o),
(717,1490,o),
(600,1490,cs),
(300,1490,o),
(144,1343,o),
(144,1088,cs),
(144,0,l),
(320,0,l),
(320,1074,ls),
(320,1240,o),
(412,1328,o),
(598,1330,cs),
(674,1330,o),
(774,1314,o),
(806,1290,c),
(792,1344,l),
(618,818,l),
(618,776,l),
(672,776,ls),
(830,776,o),
(936,656,o),
(936,470,cs),
(936,272,o),
(809,144,o),
(660,144,cs),
(618,144,o),
(568,155,o),
(506,172,c),
(506,6,l),
(551,-7,o),
(603,-16,o),
(660,-16,cs)
);
}
);
width = 1208;
}
);
metricRight = B;
unicode = 7838;
},
{
color = 6;
glyphname = T;
kernLeft = LAT_T_UC;
kernRight = LAT_T_UC;
lastChange = "2023-11-23 10:09:18 +0000";
layers = (
{
anchors = (
{
name = bottom;
pos = (464,0);
},
{
name = cedilla;
pos = (464,0);
},
{
name = center;
pos = (464,738);
},
{
name = top;
pos = (464,1474);
}
);
layerId = "AB099EFE-E788-4EFC-8633-CF147CB782A6";
shapes = (
{
closed = 1;
nodes = (
(496,0,l),
(496,1432,l),
(432,1432,l),
(432,0,l)
);
},
{
closed = 1;
nodes = (
(850,1414,l),
(850,1474,l),
(78,1474,l),
(78,1414,l)
);
}
);
width = 928;
},
{
anchors = (
{
name = bottom;
pos = (496,0);
},
{
name = cedilla;
pos = (496,0);
},
{
name = center;
pos = (496,672);
},
{
name = top;
pos = (496,1474);
}
);
layerId = "2D8F7115-C311-411E-929D-56333CF7FFB2";
shapes = (
{
closed = 1;
nodes = (
(678,0,l),
(678,1200,l),
(314,1200,l),
(314,0,l)
);
},
{
closed = 1;
nodes = (
(964,1146,l),
(964,1474,l),
(28,1474,l),
(28,1146,l)
);
}
);
width = 992;
},
{
anchors = (
{
name = bottom;
pos = (480,0);
},
{
name = cedilla;
pos = (482,0);
},
{
name = center;
pos = (482,712);
},
{
name = top;
pos = (482,1474);
}
);
layerId = "FD1CEFBD-BAB1-4C2A-A598-30E93F9A29F6";
shapes = (
{
closed = 1;
nodes = (
(570,0,l),
(570,1348,l),
(394,1348,l),
(394,0,l)
);
},
{
closed = 1;
nodes = (
(900,1314,l),
(900,1474,l),
(64,1474,l),
(64,1314,l)
);
}
);
width = 964;
}
);
unicode = 84;
},
{
color = 6;
glyphname = U;
kernLeft = LAT_U_UC;
kernRight = LAT_U_UC;
lastChange = "2023-11-23 10:09:18 +0000";
layers = (
{
anchors = (
{
name = bottom;
pos = (602,0);
},
{
name = horn;
pos = (984,1474);
},
{
name = ogonek;
pos = (714,0);
},
{
name = top;
pos = (602,1474);
}
);
layerId = "AB099EFE-E788-4EFC-8633-CF147CB782A6";
shapes = (
{
closed = 1;
nodes = (
(852,-16,o),
(1014,158,o),
(1014,424,cs),
(1014,1474,l),
(950,1474,l),
(950,424,ls),
(950,194,o),
(814,44,o),
(602,44,cs),
(388,44,o),
(250,194,o),
(250,424,cs),
(250,1474,l),
(186,1474,l),
(186,424,ls),
(186,158,o),
(350,-16,o),
(602,-16,cs)
);
}
);
width = 1200;
},
{
anchors = (
{
name = bottom;
pos = (630,0);
},
{
name = horn;
pos = (1074,1474);
},
{
name = ogonek;
pos = (752,0);
},
{
name = top;
pos = (630,1474);
}
);
layerId = "2D8F7115-C311-411E-929D-56333CF7FFB2";
shapes = (
{
closed = 1;
nodes = (
(950,-16,o),
(1156,190,o),
(1156,508,cs),
(1156,1474,l),
(792,1474,l),
(792,496,ls),
(792,380,o),
(728,312,o),
(630,312,cs),
(532,312,o),
(468,382,o),
(468,496,cs),
(468,1474,l),
(104,1474,l),
(104,508,ls),
(104,192,o),
(310,-16,o),
(630,-16,cs)
);
}
);
width = 1260;
},
{
anchors = (
{
name = bottom;
pos = (612,0);
},
{
name = horn;
pos = (1020,1474);
},
{
name = ogonek;
pos = (730,0);
},
{
name = top;
pos = (612,1474);
}
);
layerId = "FD1CEFBD-BAB1-4C2A-A598-30E93F9A29F6";
shapes = (
{
closed = 1;
nodes = (
(892,-16,o),
(1070,172,o),
(1070,458,cs),
(1070,1474,l),
(894,1474,l),
(894,458,ls),
(894,270,o),
(784,144,o),
(612,144,cs),
(442,144,o),
(332,270,o),
(332,458,cs),
(332,1474,l),
(156,1474,l),
(156,458,ls),
(156,172,o),
(336,-16,o),
(612,-16,cs)
);
}
);
width = 1226;
}
);
metricLeft = H;
metricRight = H;
unicode = 85;
},
{
color = 6;
glyphname = V;
kernLeft = LAT_V_UC;
kernRight = LAT_V_UC;
lastChange = "2023-11-23 10:09:18 +0000";
layers = (
{
anchors = (
{
name = bottom;
pos = (594,0);
},
{
name = top;
pos = (594,1474);
}
);
layerId = "AB099EFE-E788-4EFC-8633-CF147CB782A6";
shapes = (
{
closed = 1;
nodes = (
(620,0,l),
(1120,1474,l),
(1054,1474,l),
(760,596,l),
(598,108,l),
(590,108,l),
(428,596,l),
(134,1474,l),
(68,1474,l),
(568,0,l)
);
}
);
width = 1188;
},
{
anchors = (
{
name = bottom;
pos = (652,0);
},
{
name = top;
pos = (656,1474);
}
);
background = {
shapes = (
{
pos = (4,1474);
ref = A;
scale = (1,-1);
}
);
};
layerId = "2D8F7115-C311-411E-929D-56333CF7FFB2";
shapes = (
{
closed = 1;
nodes = (
(836,0,l),
(1320,1474,l),
(932,1474,l),
(766,910,l),
(660,520,l),
(652,520,l),
(546,910,l),
(380,1474,l),
(-8,1474,l),
(476,0,l)
);
}
);
width = 1312;
},
{
anchors = (
{
name = bottom;
pos = (618,0);
},
{
name = top;
pos = (616,1474);
}
);
background = {
shapes = (
{
pos = (6,1474);
ref = A;
scale = (1,-1);
}
);
};
layerId = "FD1CEFBD-BAB1-4C2A-A598-30E93F9A29F6";
shapes = (
{
closed = 1;
nodes = (
(696,0,l),
(1200,1474,l),
(1016,1474,l),
(770,726,l),
(620,270,l),
(612,270,l),
(462,726,l),
(216,1474,l),
(32,1474,l),
(536,0,l)
);
}
);
width = 1232;
}
);
unicode = 86;
},
{
color = 6;
glyphname = W;
kernLeft = LAT_W_UC;
kernRight = LAT_W_UC;
lastChange = "2023-11-23 10:09:18 +0000";
layers = (
{
anchors = (
{
name = bottom;
pos = (804,0);
},
{
name = top;
pos = (804,1474);
}
);
layerId = "AB099EFE-E788-4EFC-8633-CF147CB782A6";
shapes = (
{
closed = 1;
nodes = (
(492,0,l),
(802,1212,l),
(806,1212,l),
(1118,0,l),
(1194,0,l),
(1536,1474,l),
(1470,1474,l),
(1202,280,l),
(1160,82,l),
(1152,82,l),
(824,1376,l),
(784,1376,l),
(456,82,l),
(450,82,l),
(410,280,l),
(140,1474,l),
(72,1474,l),
(414,0,l)
);
}
);
width = 1608;
},
{
anchors = (
{
name = bottom;
pos = (912,0);
},
{
name = top;
pos = (912,1474);
}
);
background = {
shapes = (
{
closed = 1;
nodes = (
(368,0,l),
(658,0,l),
(898,638,l),
(906,638,l),
(1144,0,l),
(1440,0,l),
(1808,1474,l),
(1428,1474,l),
(1314,880,l),
(1238,512,l),
(1230,512,l),
(974,1306,l),
(828,1306,l),
(572,512,l),
(566,512,l),
(490,880,l),
(380,1474,l),
(-4,1474,l)
);
}
);
};
layerId = "2D8F7115-C311-411E-929D-56333CF7FFB2";
shapes = (
{
closed = 1;
nodes = (
(688,0,l),
(908,596,l),
(916,596,l),
(1136,0,l),
(1428,0,l),
(1832,1474,l),
(1458,1474,l),
(1334,958,l),
(1256,592,l),
(1248,592,l),
(982,1298,l),
(842,1298,l),
(576,592,l),
(568,592,l),
(490,958,l),
(366,1474,l),
(-8,1474,l),
(396,0,l)
);
}
);
width = 1824;
},
{
anchors = (
{
name = bottom;
pos = (832,0);
},
{
name = top;
pos = (832,1474);
}
);
layerId = "FD1CEFBD-BAB1-4C2A-A598-30E93F9A29F6";
shapes = (
{
closed = 1;
nodes = (
(556,0,l),
(828,888,l),
(836,888,l),
(1108,0,l),
(1264,0,l),
(1632,1474,l),
(1452,1474,l),
(1254,620,l),
(1178,288,l),
(1170,288,l),
(870,1326,l),
(794,1326,l),
(494,288,l),
(486,288,l),
(410,620,l),
(212,1474,l),
(32,1474,l),
(400,0,l)
);
}
);
width = 1664;
}
);
unicode = 87;
},
{
color = 6;
glyphname = W.ss03;
kernLeft = LAT_W_UC;
kernRight = LAT_W_UC;
lastChange = "2023-11-23 10:09:18 +0000";
layers = (
{
anchors = (
{
name = bottom;
pos = (798,0);
},
{
name = top;
pos = (796,1474);
}
);
layerId = "AB099EFE-E788-4EFC-8633-CF147CB782A6";
shapes = (
{
closed = 1;
nodes = (
(482,0,l),
(620,600,l),
(794,1352,l),
(800,1352,l),
(972,600,l),
(1112,0,l),
(1188,0,l),
(1532,1474,l),
(1464,1474,l),
(1266,592,l),
(1156,78,l),
(1148,78,l),
(1030,592,l),
(822,1474,l),
(772,1474,l),
(564,592,l),
(446,78,l),
(438,78,l),
(326,592,l),
(130,1474,l),
(62,1474,l),
(402,0,l)
);
}
);
width = 1594;
},
{
anchors = (
{
name = bottom;
pos = (886,0);
},
{
name = top;
pos = (886,1474);
}
);
layerId = "2D8F7115-C311-411E-929D-56333CF7FFB2";
shapes = (
{
closed = 1;
nodes = (
(664,0,l),
(804,478,l),
(882,758,l),
(890,758,l),
(964,478,l),
(1108,0,l),
(1490,0,l),
(1760,1474,l),
(1348,1474,l),
(1296,916,l),
(1262,534,l),
(1254,534,l),
(1176,832,l),
(1006,1474,l),
(766,1474,l),
(596,838,l),
(518,534,l),
(510,534,l),
(476,916,l),
(424,1474,l),
(12,1474,l),
(282,0,l)
);
}
);
width = 1772;
},
{
anchors = (
{
name = bottom;
pos = (826,0);
},
{
name = top;
pos = (822,1474);
}
);
layerId = "FD1CEFBD-BAB1-4C2A-A598-30E93F9A29F6";
shapes = (
{
closed = 1;
nodes = (
(550,0,l),
(676,480,l),
(820,1094,l),
(826,1094,l),
(970,480,l),
(1096,0,l),
(1268,0,l),
(1606,1474,l),
(1426,1474,l),
(1258,688,l),
(1180,274,l),
(1172,274,l),
(1068,708,l),
(876,1474,l),
(770,1474,l),
(576,708,l),
(472,274,l),
(466,274,l),
(386,688,l),
(224,1474,l),
(38,1474,l),
(378,0,l)
);
}
);
width = 1644;
}
);
},
{
color = 6;
glyphname = X;
kernLeft = LAT_X_UC;
kernRight = LAT_X_UC;
lastChange = "2023-11-23 10:09:18 +0000";
layers = (
{
anchors = (
{
name = bottom;
pos = (550,0);
},
{
name = top;
pos = (550,1474);
}
);
layerId = "AB099EFE-E788-4EFC-8633-CF147CB782A6";
shapes = (
{
closed = 1;
nodes = (
(1004,0,l),
(596,734,l),
(596,742,l),
(556,784,l),
(548,784,l),
(170,1474,l),
(96,1474,l),
(504,738,l),
(504,730,l),
(544,690,l),
(552,690,l),
(928,0,l)
);
},
{
closed = 1;
nodes = (
(172,0,l),
(548,690,l),
(556,690,l),
(596,730,l),
(596,738,l),
(1004,1474,l),
(932,1474,l),
(552,784,l),
(544,784,l),
(504,742,l),
(504,734,l),
(96,0,l)
);
}
);
width = 1100;
},
{
anchors = (
{
name = bottom;
pos = (652,0);
},
{
name = top;
pos = (652,1474);
}
);
layerId = "2D8F7115-C311-411E-929D-56333CF7FFB2";
shapes = (
{
closed = 1;
nodes = (
(1292,0,l),
(904,734,l),
(904,738,l),
(656,972,l),
(650,972,l),
(440,1474,l),
(18,1474,l),
(400,742,l),
(400,738,l),
(646,466,l),
(652,466,l),
(860,0,l)
);
},
{
closed = 1;
nodes = (
(438,0,l),
(650,466,l),
(656,466,l),
(904,738,l),
(904,742,l),
(1284,1474,l),
(858,1474,l),
(652,972,l),
(646,972,l),
(400,738,l),
(400,734,l),
(10,0,l)
);
}
);
width = 1302;
},
{
anchors = (
{
name = bottom;
pos = (580,0);
},
{
name = top;
pos = (580,1474);
}
);
layerId = "FD1CEFBD-BAB1-4C2A-A598-30E93F9A29F6";
shapes = (
{
closed = 1;
nodes = (
(1096,0,l),
(700,734,l),
(700,742,l),
(586,872,l),
(578,872,l),
(270,1474,l),
(70,1474,l),
(460,742,l),
(460,734,l),
(574,600,l),
(584,600,l),
(896,0,l)
);
},
{
closed = 1;
nodes = (
(264,0,l),
(578,600,l),
(586,600,l),
(700,734,l),
(700,742,l),
(1090,1474,l),
(890,1474,l),
(584,872,l),
(574,872,l),
(460,742,l),
(460,734,l),
(64,0,l)
);
}
);
width = 1160;
}
);
unicode = 88;
},
{
color = 6;
glyphname = Y;
kernLeft = LAT_Y_UC;
kernRight = LAT_Y_UC;
lastChange = "2023-11-23 10:09:18 +0000";
layers = (
{
anchors = (
{
name = bottom;
pos = (538,0);
},
{
name = top;
pos = (538,1474);
}
);
layerId = "AB099EFE-E788-4EFC-8633-CF147CB782A6";
shapes = (
{
closed = 1;
nodes = (
(570,0,l),
(570,680,l),
(1004,1474,l),
(932,1474,l),
(704,1042,l),
(540,748,l),
(534,748,l),
(370,1042,l),
(142,1474,l),
(70,1474,l),
(506,680,l),
(506,0,l)
);
}
);
width = 1074;
},
{
anchors = (
{
name = bottom;
pos = (596,0);
},
{
name = top;
pos = (596,1474);
}
);
layerId = "2D8F7115-C311-411E-929D-56333CF7FFB2";
shapes = (
{
closed = 1;
nodes = (
(778,0,l),
(778,554,l),
(1210,1474,l),
(792,1474,l),
(706,1206,l),
(600,904,l),
(594,904,l),
(488,1206,l),
(402,1474,l),
(-16,1474,l),
(414,554,l),
(414,0,l)
);
}
);
width = 1194;
},
{
anchors = (
{
name = bottom;
pos = (562,0);
},
{
name = top;
pos = (562,1474);
}
);
layerId = "FD1CEFBD-BAB1-4C2A-A598-30E93F9A29F6";
shapes = (
{
closed = 1;
nodes = (
(650,0,l),
(650,636,l),
(1086,1474,l),
(884,1474,l),
(708,1104,l),
(568,810,l),
(560,810,l),
(418,1104,l),
(242,1474,l),
(40,1474,l),
(474,636,l),
(474,0,l)
);
}
);
width = 1126;
}
);
unicode = 89;
},
{
color = 6;
glyphname = Z;
kernLeft = LAT_Z_UC;
kernRight = LAT_Z_UC;
lastChange = "2023-11-23 10:09:18 +0000";
layers = (
{
anchors = (
{
name = bottom;
pos = (568,0);
},
{
name = top;
pos = (562,1474);
}
);
guides = (
{
angle = 58;
pos = (320,92);
}
);
layerId = "AB099EFE-E788-4EFC-8633-CF147CB782A6";
shapes = (
{
closed = 1;
nodes = (
(954,0,l),
(954,60,l),
(218,60,l),
(218,68,l),
(934,1438,l),
(934,1474,l),
(176,1474,l),
(176,1414,l),
(850,1414,l),
(850,1406,l),
(132,36,l),
(132,0,l)
);
}
);
width = 1086;
},
{
anchors = (
{
name = bottom;
pos = (530,0);
},
{
name = top;
pos = (530,1474);
}
);
guides = (
{
angle = 63;
pos = (198,112);
}
);
layerId = "2D8F7115-C311-411E-929D-56333CF7FFB2";
shapes = (
{
closed = 1;
nodes = (
(1034,0,l),
(1034,328,l),
(546,328,l),
(546,336,l),
(1020,1422,l),
(1020,1474,l),
(56,1474,l),
(56,1146,l),
(514,1146,l),
(514,1138,l),
(38,50,l),
(38,0,l)
);
}
);
width = 1070;
},
{
anchors = (
{
name = bottom;
pos = (534,0);
},
{
name = top;
pos = (530,1474);
}
);
layerId = "FD1CEFBD-BAB1-4C2A-A598-30E93F9A29F6";
shapes = (
{
closed = 1;
nodes = (
(948,0,l),
(948,160,l),
(344,160,l),
(344,168,l),
(944,1434,l),
(944,1474,l),
(146,1474,l),
(146,1314,l),
(700,1314,l),
(700,1306,l),
(100,40,l),
(100,0,l)
);
}
);
width = 1046;
}
);
unicode = 90;
},
{
color = 6;
glyphname = a;
kernLeft = LAT_ASS02_LC;
kernRight = LAT_A_LC;
lastChange = "2023-11-23 10:09:18 +0000";
layers = (
{
anchors = (
{
name = bottom;
pos = (450,0);
},
{
name = ogonek;
pos = (806,-16);
},
{
name = top;
pos = (462,1068);
}
);
guides = (
{
angle = 112.5;
pos = (364,718);
},
{
angle = 67.5;
pos = (1238,720);
}
);
layerId = "AB099EFE-E788-4EFC-8633-CF147CB782A6";
shapes = (
{
closed = 1;
nodes = (
(530,-16,o),
(632,44,o),
(692,160,c),
(676,152,l),
(700,152,l),
(692,160,l),
(702,80,o),
(724,33,o),
(786,-4,cs),
(806,-16,l),
(830,42,l),
(822,46,ls),
(782,66,o),
(750,106,o),
(750,210,cs),
(750,766,ls),
(750,974,o),
(656,1084,o),
(466,1084,cs),
(350,1084,o),
(238,1040,o),
(158,968,c),
(180,916,l),
(258,986,o),
(360,1028,o),
(464,1028,cs),
(610,1028,o),
(690,942,o),
(690,774,cs),
(690,572,l),
(690,562,l),
(690,340,ls),
(690,172,o),
(564,40,o),
(406,40,cs),
(262,40,o),
(172,150,o),
(172,290,cs),
(172,456,o),
(306,560,o),
(500,560,cs),
(710,560,l),
(710,616,l),
(500,616,ls),
(272,616,o),
(112,490,o),
(112,290,cs),
(112,126,o),
(218,-16,o),
(406,-16,cs)
);
}
);
width = 946;
},
{
anchors = (
{
name = bottom;
pos = (508,0);
},
{
name = ogonek;
pos = (880,-16);
},
{
name = top;
pos = (520,1100);
}
);
guides = (
{
angle = 67.5;
pos = (1196,740);
},
{
angle = 112.5;
pos = (316,500);
}
);
layerId = "2D8F7115-C311-411E-929D-56333CF7FFB2";
shapes = (
{
closed = 1;
nodes = (
(532,-16,o),
(640,58,o),
(670,144,c),
(564,120,l),
(720,120,l),
(634,182,l),
(648,106,o),
(734,30,o),
(842,-4,cs),
(880,-16,l),
(1000,274,l),
(978,282,ls),
(944,294,o),
(924,340,o),
(924,398,cs),
(924,764,ls),
(924,1000,o),
(772,1116,o),
(522,1116,cs),
(344,1116,o),
(194,1058,o),
(98,1014,c),
(206,752,l),
(272,794,o),
(386,834,o),
(468,834,cs),
(544,834,o),
(600,796,o),
(600,722,cs),
(600,562,l),
(612,522,l),
(612,380,ls),
(612,278,o),
(530,244,o),
(482,244,cs),
(434,244,o),
(380,282,o),
(380,348,cs),
(380,420,o),
(452,450,o),
(526,450,cs),
(646,450,l),
(646,664,l),
(474,664,ls),
(224,664,o),
(52,536,o),
(52,330,cs),
(52,152,o),
(176,-16,o),
(392,-16,cs)
);
}
);
width = 1040;
},
{
anchors = (
{
name = bottom;
pos = (466,0);
},
{
name = ogonek;
pos = (824,-16);
},
{
name = top;
pos = (476,1080);
}
);
background = {
shapes = (
{
pos = (-74,0);
ref = u;
}
);
};
guides = (
{
angle = 67.5;
pos = (1164,740);
},
{
angle = 112.5;
pos = (258,722);
}
);
layerId = "FD1CEFBD-BAB1-4C2A-A598-30E93F9A29F6";
shapes = (
{
closed = 1;
nodes = (
(530,-16,o),
(636,60,o),
(690,176,c),
(638,138,l),
(698,138,l),
(668,170,l),
(672,114,o),
(720,36,o),
(800,-4,cs),
(824,-16,l),
(888,134,l),
(870,144,ls),
(830,166,o),
(808,202,o),
(808,270,cs),
(808,774,ls),
(808,970,o),
(670,1096,o),
(466,1096,cs),
(356,1096,o),
(220,1056,o),
(130,988,c),
(194,840,l),
(258,900,o),
(364,940,o),
(452,940,cs),
(564,940,o),
(648,870,o),
(648,758,cs),
(648,568,l),
(652,510,l),
(652,388,ls),
(652,236,o),
(546,128,o),
(420,128,cs),
(316,128,o),
(244,202,o),
(244,312,cs),
(244,432,o),
(338,504,o),
(496,504,cs),
(680,504,l),
(680,640,l),
(490,640,ls),
(246,640,o),
(84,516,o),
(84,306,cs),
(84,122,o),
(214,-16,o),
(394,-16,cs)
);
}
);
width = 960;
}
);
metricRight = u;
unicode = 97;
},
{
color = 3;
glyphname = a.ss01;
kernLeft = LAT_O_LC;
kernRight = LAT_ASS01_LC;
lastChange = "2023-11-23 10:09:18 +0000";
layers = (
{
anchors = (
{
name = bottom;
pos = (490,0);
},
{
name = ogonek;
pos = (908,0);
},
{
name = top;
pos = (528,1068);
}
);
layerId = "AB099EFE-E788-4EFC-8633-CF147CB782A6";
shapes = (
{
closed = 1;
nodes = (
(908,0,l),
(908,1068,l),
(846,1068,l),
(846,844,l),
(830,844,l),
(852,794,l),
(852,272,l),
(826,224,l),
(846,224,l),
(846,0,l)
);
},
{
alignment = -1;
pos = (1064,0);
ref = _part.bowl.ss01;
scale = (-1,1);
}
);
width = 1068;
},
{
anchors = (
{
name = bottom;
pos = (576,0);
},
{
name = ogonek;
pos = (1026,0);
},
{
name = top;
pos = (584,1100);
}
);
layerId = "2D8F7115-C311-411E-929D-56333CF7FFB2";
shapes = (
{
closed = 1;
nodes = (
(1026,0,l),
(1026,1100,l),
(698,1100,l),
(698,982,l),
(658,982,l),
(698,876,l),
(698,180,l),
(668,122,l),
(698,122,l),
(698,0,l)
);
},
{
alignment = -1;
pos = (1104,0);
ref = _part.bowl.ss01;
scale = (-1,1);
}
);
width = 1106;
},
{
anchors = (
{
name = bottom;
pos = (510,0);
},
{
name = ogonek;
pos = (942,0);
},
{
name = top;
pos = (536,1080);
}
);
layerId = "FD1CEFBD-BAB1-4C2A-A598-30E93F9A29F6";
shapes = (
{
closed = 1;
nodes = (
(942,0,l),
(942,1080,l),
(778,1080,l),
(778,934,l),
(750,934,l),
(786,876,l),
(786,202,l),
(752,146,l),
(778,146,l),
(778,0,l)
);
},
{
alignment = -1;
pos = (1080,0);
ref = _part.bowl.ss01;
scale = (-1,1);
}
);
width = 1070;
}
);
metricLeft = o.ss01;
},
{
color = 3;
glyphname = a.ss02;
kernLeft = LAT_O_LC;
kernRight = LAT_A_LC;
lastChange = "2023-11-23 10:09:18 +0000";
layers = (
{
anchors = (
{
name = bottom;
pos = (516,0);
},
{
name = ogonek;
pos = (948,-16);
},
{
name = top;
pos = (528,1068);
},
{
name = topright;
pos = (1002,1068);
}
);
layerId = "AB099EFE-E788-4EFC-8633-CF147CB782A6";
shapes = (
{
closed = 1;
nodes = (
(972,38,l),
(912,72,o),
(892,120,o),
(892,224,cs),
(892,1068,l),
(832,1068,l),
(832,854,l),
(808,854,l),
(836,766,l),
(836,296,l),
(814,222,l),
(842,222,l),
(834,234,l),
(836,86,o),
(866,42,o),
(948,-16,c)
);
},
{
pos = (1046,0);
ref = _part.bowl;
scale = (-1,1);
}
);
width = 1088;
},
{
anchors = (
{
name = bottom;
pos = (542,0);
},
{
name = ogonek;
pos = (968,-16);
},
{
name = top;
pos = (564,1100);
},
{
name = topright;
pos = (1068,1100);
}
);
layerId = "2D8F7115-C311-411E-929D-56333CF7FFB2";
shapes = (
{
closed = 1;
nodes = (
(1088,274,l),
(1030,300,o),
(1016,322,o),
(1016,420,cs),
(1016,1100,l),
(688,1100,l),
(688,988,l),
(642,988,l),
(682,898,l),
(682,280,l),
(644,162,l),
(724,162,l),
(706,176,l),
(736,94,o),
(836,24,o),
(968,-16,c)
);
},
{
pos = (1096,0);
ref = _part.bowl;
scale = (-1,1);
}
);
width = 1128;
},
{
anchors = (
{
name = bottom;
pos = (532,0);
},
{
name = ogonek;
pos = (946,-16);
},
{
name = top;
pos = (536,1080);
},
{
name = topright;
pos = (1028,1080);
}
);
layerId = "FD1CEFBD-BAB1-4C2A-A598-30E93F9A29F6";
shapes = (
{
closed = 1;
nodes = (
(1010,136,l),
(950,164,o),
(936,204,o),
(936,300,cs),
(936,1080,l),
(772,1080,l),
(772,952,l),
(724,952,l),
(790,840,l),
(790,296,l),
(746,164,l),
(824,164,l),
(788,198,l),
(796,94,o),
(844,40,o),
(946,-16,c)
);
},
{
alignment = -1;
pos = (1058,0);
ref = _part.bowl;
scale = (-1,1);
}
);
width = 1082;
}
);
metricLeft = o;
metricRight = u;
},
{
color = 6;
glyphname = ae;
kernLeft = LAT_ASS02_LC;
kernRight = LAT_E_LC;
lastChange = "2023-11-23 10:09:18 +0000";
layers = (
{
anchors = (
{
name = bottom;
pos = (730,0);
},
{
name = top;
pos = (730,1068);
}
);
background = {
shapes = (
{
closed = 1;
nodes = (
(1168,-16,o),
(1274,34,o),
(1352,108,c),
(1328,172,l),
(1258,94,o),
(1160,40,o),
(1054,40,cs),
(864,40,o),
(728,226,o),
(730,528,cs),
(730,808,o),
(844,1008,o),
(1040,1008,cs),
(1222,1008,o),
(1338,834,o),
(1336,562,c),
(714,562,l),
(714,506,l),
(1396,506,l),
(1398,520,o),
(1400,536,o),
(1400,548,cs),
(1400,860,o),
(1266,1064,o),
(1044,1064,cs),
(812,1064,o),
(672,842,o),
(672,532,cs),
(672,200,o),
(830,-16,o),
(1056,-16,cs)
);
}
);
};
layerId = "AB099EFE-E788-4EFC-8633-CF147CB782A6";
shapes = (
{
closed = 1;
nodes = (
(566,-16,o),
(698,124,o),
(736,300,c),
(726,300,l),
(782,104,o),
(884,-16,o),
(1062,-16,cs),
(1170,-16,o),
(1282,34,o),
(1360,110,c),
(1336,174,l),
(1266,96,o),
(1168,40,o),
(1062,40,cs),
(874,40,o),
(750,238,o),
(750,548,cs),
(750,852,o),
(870,1028,o),
(1050,1028,cs),
(1238,1028,o),
(1348,840,o),
(1344,580,c),
(738,580,l),
(738,524,l),
(1404,524,l),
(1406,540,o),
(1408,566,o),
(1408,582,cs),
(1408,888,o),
(1260,1084,o),
(1046,1084,cs),
(900,1084,o),
(784,990,o),
(726,788,c),
(742,788,l),
(724,974,o),
(636,1084,o),
(466,1084,cs),
(350,1084,o),
(226,1030,o),
(162,968,c),
(188,918,l),
(256,984,o),
(368,1028,o),
(464,1028,cs),
(686,1028,o),
(690,786,o),
(690,708,cs),
(690,406,ls),
(690,162,o),
(524,40,o),
(388,40,cs),
(266,40,o),
(172,140,o),
(172,278,cs),
(172,434,o),
(286,524,o),
(522,524,cs),
(706,524,l),
(706,580,l),
(528,580,ls),
(262,580,o),
(112,480,o),
(112,278,cs),
(112,100,o),
(230,-16,o),
(392,-16,cs)
);
}
);
width = 1516;
},
{
anchors = (
{
name = bottom;
pos = (754,0);
},
{
name = top;
pos = (762,1100);
}
);
background = {
shapes = (
{
pos = (8,0);
ref = a;
scale = (0.9978,1);
}
);
};
layerId = "2D8F7115-C311-411E-929D-56333CF7FFB2";
shapes = (
{
closed = 1;
nodes = (
(608,-16,o),
(744,94,o),
(772,232,c),
(700,230,l),
(756,70,o),
(902,-16,o),
(1088,-16,cs),
(1194,-16,o),
(1340,14,o),
(1408,56,c),
(1286,316,l),
(1256,282,o),
(1178,254,o),
(1104,254,cs),
(956,254,o),
(884,364,o),
(884,580,cs),
(884,766,o),
(932,854,o),
(1030,854,cs),
(1130,854,o),
(1164,766,o),
(1166,648,c),
(818,648,l),
(818,444,l),
(1456,444,l),
(1462,476,o),
(1468,526,o),
(1468,594,cs),
(1468,936,o),
(1302,1116,o),
(1042,1116,cs),
(872,1116,o),
(768,1038,o),
(702,908,c),
(812,908,l),
(772,1024,o),
(688,1116,o),
(472,1116,cs),
(296,1116,o),
(162,1060,o),
(98,1014,c),
(210,754,l),
(254,794,o),
(356,846,o),
(446,846,cs),
(542,846,o),
(582,784,o),
(582,684,cs),
(582,372,ls),
(582,294,o),
(544,244,o),
(480,244,cs),
(424,244,o),
(384,284,o),
(384,342,cs),
(384,422,o),
(458,448,o),
(522,448,cs),
(638,448,l),
(638,662,l),
(470,662,ls),
(222,662,o),
(52,534,o),
(52,334,cs),
(52,154,o),
(186,-16,o),
(418,-16,cs)
);
}
);
width = 1512;
},
{
anchors = (
{
name = bottom;
pos = (740,0);
},
{
name = top;
pos = (736,1080);
}
);
layerId = "FD1CEFBD-BAB1-4C2A-A598-30E93F9A29F6";
shapes = (
{
closed = 1;
nodes = (
(584,-16,o),
(708,116,o),
(746,252,c),
(706,252,l),
(774,76,o),
(898,-16,o),
(1060,-16,cs),
(1166,-16,o),
(1282,24,o),
(1358,82,c),
(1292,234,l),
(1232,176,o),
(1142,138,o),
(1064,138,cs),
(916,138,o),
(796,278,o),
(796,558,cs),
(796,800,o),
(882,944,o),
(1030,944,cs),
(1164,944,o),
(1254,826,o),
(1250,620,c),
(766,620,l),
(768,480,l),
(1404,480,l),
(1408,504,o),
(1412,538,o),
(1412,588,cs),
(1412,902,o),
(1276,1096,o),
(1040,1096,cs),
(898,1096,o),
(782,1024,o),
(718,872,c),
(764,872,l),
(730,1024,o),
(622,1096,o),
(464,1096,cs),
(352,1096,o),
(226,1056,o),
(136,988,c),
(198,840,l),
(258,898,o),
(364,940,o),
(456,940,cs),
(650,940,o),
(640,746,o),
(640,636,cs),
(640,398,ls),
(640,234,o),
(522,134,o),
(408,134,cs),
(318,134,o),
(244,200,o),
(244,304,cs),
(244,418,o),
(328,480,o),
(480,480,cs),
(672,480,l),
(672,620,l),
(466,620,ls),
(232,620,o),
(84,506,o),
(84,302,cs),
(84,110,o),
(216,-16,o),
(400,-16,cs)
);
}
);
width = 1496;
}
);
metricLeft = a;
metricRight = e;
unicode = 230;
},
{
color = 3;
glyphname = b;
kernLeft = LAT_H_UC;
kernRight = LAT_O_LC;
lastChange = "2023-11-23 10:09:18 +0000";
layers = (
{
anchors = (
{
name = bottom;
pos = (532,0);
},
{
name = center;
pos = (188,1262);
},
{
name = top;
pos = (576,1156);
}
);
layerId = "AB099EFE-E788-4EFC-8633-CF147CB782A6";
shapes = (
{
closed = 1;
nodes = (
(220,0,l),
(220,224,l),
(248,224,l),
(210,312,l),
(210,728,l),
(238,852,l),
(220,852,l),
(220,1540,l),
(160,1540,l),
(160,0,l)
);
},
{
pos = (8,0);
ref = _part.bowl;
}
);
width = 1054;
},
{
anchors = (
{
name = bottom;
pos = (560,0);
},
{
name = center;
pos = (258,1298);
},
{
name = top;
pos = (708,1164);
}
);
layerId = "2D8F7115-C311-411E-929D-56333CF7FFB2";
shapes = (
{
closed = 1;
nodes = (
(412,0,l),
(412,132,l),
(458,132,l),
(420,226,l),
(420,816,l),
(480,1008,l),
(436,1008,l),
(436,1540,l),
(84,1540,l),
(84,0,l)
);
},
{
pos = (10,0);
ref = _part.bowl;
}
);
width = 1106;
},
{
anchors = (
{
name = bottom;
pos = (540,0);
},
{
name = center;
pos = (212,1276);
},
{
name = top;
pos = (618,1160);
}
);
layerId = "FD1CEFBD-BAB1-4C2A-A598-30E93F9A29F6";
shapes = (
{
closed = 1;
nodes = (
(296,0,l),
(296,124,l),
(322,124,l),
(276,246,l),
(276,806,l),
(312,960,l),
(296,960,l),
(296,1540,l),
(128,1540,l),
(128,0,l)
);
},
{
alignment = -1;
pos = (4,0);
ref = _part.bowl;
}
);
width = 1062;
}
);
metricLeft = h;
metricRight = o;
unicode = 98;
},
{
color = 3;
glyphname = b.ss01;
kernLeft = LAT_L_LC;
kernRight = LAT_O_LC;
lastChange = "2023-11-23 10:09:18 +0000";
layers = (
{
anchors = (
{
name = bottom;
pos = (536,0);
},
{
name = center;
pos = (190,1262);
},
{
name = top;
pos = (580,1156);
}
);
layerId = "AB099EFE-E788-4EFC-8633-CF147CB782A6";
shapes = (
{
closed = 1;
nodes = (
(220,0,l),
(220,230,l),
(246,230,l),
(218,302,l),
(218,756,l),
(250,836,l),
(220,836,l),
(220,1540,l),
(160,1540,l),
(160,0,l)
);
},
{
pos = (4,0);
ref = _part.bowl.ss01;
}
);
width = 1068;
},
{
anchors = (
{
name = bottom;
pos = (560,0);
},
{
name = center;
pos = (258,1298);
},
{
name = top;
pos = (708,1164);
}
);
layerId = "2D8F7115-C311-411E-929D-56333CF7FFB2";
shapes = (
{
closed = 1;
nodes = (
(412,0,l),
(412,124,l),
(460,124,l),
(408,226,l),
(408,862,l),
(480,1012,l),
(436,1012,l),
(436,1540,l),
(84,1540,l),
(84,0,l)
);
},
{
pos = (4,0);
ref = _part.bowl.ss01;
}
);
width = 1108;
},
{
anchors = (
{
name = bottom;
pos = (544,0);
},
{
name = center;
pos = (212,1276);
},
{
name = top;
pos = (618,1160);
}
);
layerId = "FD1CEFBD-BAB1-4C2A-A598-30E93F9A29F6";
shapes = (
{
closed = 1;
nodes = (
(292,0,l),
(292,156,l),
(338,156,l),
(290,250,l),
(290,826,l),
(330,928,l),
(296,928,l),
(296,1540,l),
(128,1540,l),
(128,0,l)
);
},
{
alignment = -1;
pos = (-2,0);
ref = _part.bowl.ss01;
}
);
width = 1078;
}
);
metricLeft = h;
metricRight = o.ss01;
},
{
color = 6;
glyphname = c;
kernLeft = LAT_O_LC;
kernRight = LAT_C_LC;
lastChange = "2023-11-23 10:09:18 +0000";
layers = (
{
anchors = (
{
name = base;
pos = (704,0);
},
{
name = bottom;
pos = (508,0);
},
{
name = cedilla;
pos = (520,0);
},
{
name = top;
pos = (508,1068);
}
);
layerId = "AB099EFE-E788-4EFC-8633-CF147CB782A6";
shapes = (
{
closed = 1;
nodes = (
(620,-12,o),
(732,34,o),
(800,108,c),
(774,168,l),
(720,92,o),
(622,44,o),
(528,44,cs),
(312,44,o),
(168,238,o),
(168,538,cs),
(168,836,o),
(312,1028,o),
(530,1028,cs),
(620,1028,o),
(720,986,o),
(770,918,c),
(798,976,l),
(728,1042,o),
(618,1084,o),
(530,1084,cs),
(276,1084,o),
(108,870,o),
(108,538,cs),
(108,204,o),
(274,-12,o),
(524,-12,cs)
);
}
);
userData = {
RMXScaler = {
height = 71.5;
weight = 20;
width = 77;
};
};
width = 888;
},
{
anchors = (
{
name = base;
pos = (752,0);
},
{
name = bottom;
pos = (554,0);
},
{
name = cedilla;
pos = (564,0);
},
{
name = top;
pos = (566,1100);
}
);
layerId = "2D8F7115-C311-411E-929D-56333CF7FFB2";
shapes = (
{
closed = 1;
nodes = (
(662,-12,o),
(760,20,o),
(832,68,c),
(710,352,l),
(680,316,o),
(618,288,o),
(558,288,cs),
(444,288,o),
(376,396,o),
(376,554,cs),
(376,716,o),
(450,816,o),
(552,816,cs),
(606,816,o),
(656,790,o),
(706,744,c),
(834,1020,l),
(758,1072,o),
(660,1116,o),
(534,1116,cs),
(236,1116,o),
(44,894,o),
(44,554,cs),
(44,210,o),
(244,-12,o),
(552,-12,cs)
);
}
);
userData = {
RMXScaler = {
height = 73.5;
weight = -50;
width = 73;
};
};
width = 858;
},
{
anchors = (
{
name = base;
pos = (728,0);
},
{
name = bottom;
pos = (526,0);
},
{
name = cedilla;
pos = (540,0);
},
{
name = top;
pos = (532,1080);
}
);
layerId = "FD1CEFBD-BAB1-4C2A-A598-30E93F9A29F6";
shapes = (
{
closed = 1;
nodes = (
(642,-12,o),
(752,32,o),
(820,96,c),
(756,240,l),
(708,180,o),
(618,144,o),
(540,144,cs),
(366,144,o),
(252,300,o),
(252,542,cs),
(252,782,o),
(366,942,o),
(540,942,cs),
(610,942,o),
(704,908,o),
(756,850,c),
(820,990,l),
(750,1050,o),
(648,1098,o),
(528,1098,cs),
(266,1098,o),
(84,878,o),
(84,546,cs),
(84,208,o),
(268,-12,o),
(528,-12,cs)
);
}
);
userData = {
RMXScaler = {
height = 71.5;
weight = 20;
width = 77;
};
};
width = 892;
}
);
metricLeft = o;
unicode = 99;
userData = {
RMXScaler = {
source = C;
};
};
},
{
color = 3;
glyphname = d;
kernLeft = LAT_O_LC;
kernRight = LAT_D_LC;
lastChange = "2023-11-23 10:09:18 +0000";
layers = (
{
anchors = (
{
name = bottom;
pos = (538,0);
},
{
name = center;
pos = (866,1262);
},
{
name = top;
pos = (864,1540);
},
{
name = topright;
pos = (904,1540);
}
);
layerId = "AB099EFE-E788-4EFC-8633-CF147CB782A6";
shapes = (
{
closed = 1;
nodes = (
(974,38,l),
(910,76,o),
(894,118,o),
(894,232,cs),
(894,1540,l),
(834,1540,l),
(834,852,l),
(814,852,l),
(846,756,l),
(846,294,l),
(816,224,l),
(846,224,l),
(836,234,l),
(840,78,o),
(874,32,o),
(946,-16,c)
);
},
{
pos = (1046,0);
ref = _part.bowl;
scale = (-1,1);
}
);
width = 1076;
},
{
anchors = (
{
name = bottom;
pos = (542,0);
},
{
name = center;
pos = (836,1298);
},
{
name = top;
pos = (842,1540);
},
{
name = topright;
pos = (1022,1540);
}
);
background = {
shapes = (
{
pos = (36,0);
ref = u;
}
);
};
layerId = "2D8F7115-C311-411E-929D-56333CF7FFB2";
shapes = (
{
closed = 1;
nodes = (
(1098,274,l),
(1046,296,o),
(1022,320,o),
(1022,392,cs),
(1022,1540,l),
(670,1540,l),
(670,1008,l),
(642,1008,l),
(686,890,l),
(686,274,l),
(654,144,l),
(736,144,l),
(682,182,l),
(716,94,o),
(808,32,o),
(962,-16,c)
);
},
{
pos = (1096,0);
ref = _part.bowl;
scale = (-1,1);
}
);
width = 1138;
},
{
anchors = (
{
name = bottom;
pos = (530,0);
},
{
name = center;
pos = (854,1274);
},
{
name = top;
pos = (854,1540);
},
{
name = topright;
pos = (1016,1540);
}
);
layerId = "FD1CEFBD-BAB1-4C2A-A598-30E93F9A29F6";
shapes = (
{
closed = 1;
nodes = (
(1016,136,l),
(962,166,o),
(934,194,o),
(934,262,cs),
(934,1540,l),
(766,1540,l),
(766,940,l),
(746,940,l),
(788,822,l),
(788,290,l),
(744,168,l),
(822,168,l),
(792,196,l),
(796,102,o),
(840,44,o),
(950,-16,c)
);
},
{
alignment = -1;
pos = (1058,0);
ref = _part.bowl;
scale = (-1,1);
}
);
width = 1092;
}
);
metricLeft = o;
unicode = 100;
},
{
color = 6;
glyphname = eth;
kernLeft = LAT_ETH_LC;
kernRight = LAT_ETH_LC;
lastChange = "2023-11-23 10:09:18 +0000";
layers = (
{
layerId = "AB099EFE-E788-4EFC-8633-CF147CB782A6";
shapes = (
{
closed = 1;
nodes = (
(772,-16,o),
(936,200,o),
(936,590,cs),
(936,1122,o),
(630,1444,o),
(308,1558,c),
(288,1506,l),
(512,1430,o),
(776,1222,o),
(862,818,c),
(874,838,l),
(846,838,l),
(876,796,l),
(816,946,o),
(674,1024,o),
(528,1024,cs),
(286,1024,o),
(112,812,o),
(112,504,cs),
(112,196,o),
(286,-16,o),
(528,-16,cs)
);
},
{
closed = 1;
nodes = (
(322,40,o),
(172,228,o),
(172,504,cs),
(172,780,o),
(322,968,o),
(538,968,cs),
(704,968,o),
(878,854,o),
(878,534,cs),
(878,246,o),
(736,40,o),
(524,40,cs)
);
},
{
closed = 1;
nodes = (
(816,1508,l),
(792,1554,l),
(278,1220,l),
(306,1172,l)
);
}
);
width = 1048;
},
{
layerId = "2D8F7115-C311-411E-929D-56333CF7FFB2";
shapes = (
{
closed = 1;
nodes = (
(848,-16,o),
(1038,246,o),
(1038,648,cs),
(1038,1096,o),
(800,1458,o),
(316,1698,c),
(180,1428,l),
(454,1318,o),
(632,1122,o),
(706,898,c),
(746,946,l),
(660,946,l),
(720,876,l),
(694,996,o),
(564,1028,o),
(468,1028,cs),
(226,1028,o),
(48,826,o),
(48,518,cs),
(48,192,o),
(246,-16,o),
(530,-16,cs)
);
},
{
closed = 1;
nodes = (
(446,290,o),
(384,380,o),
(384,528,cs),
(384,674,o),
(446,756,o),
(542,756,cs),
(642,756,o),
(702,670,o),
(702,528,cs),
(702,384,o),
(642,290,o),
(542,290,cs)
);
},
{
closed = 1;
nodes = (
(926,1512,l),
(806,1690,l),
(186,1212,l),
(274,1084,l)
);
}
);
width = 1076;
},
{
layerId = "FD1CEFBD-BAB1-4C2A-A598-30E93F9A29F6";
shapes = (
{
closed = 1;
nodes = (
(794,-16,o),
(966,236,o),
(966,620,cs),
(966,1130,o),
(678,1446,o),
(308,1612,c),
(244,1474,l),
(466,1380,o),
(706,1190,o),
(794,868,c),
(812,898,l),
(766,898,l),
(802,860,l),
(768,952,o),
(642,1032,o),
(510,1032,cs),
(252,1032,o),
(84,824,o),
(84,512,cs),
(84,196,o),
(258,-16,o),
(526,-16,cs)
);
},
{
closed = 1;
nodes = (
(364,136,o),
(260,280,o),
(260,516,cs),
(260,732,o),
(360,876,o),
(530,876,cs),
(680,876,o),
(804,750,o),
(804,528,cs),
(804,300,o),
(698,144,o),
(532,140,cs)
);
},
{
closed = 1;
nodes = (
(860,1518,l),
(798,1616,l),
(232,1234,l),
(296,1138,l)
);
}
);
width = 1050;
}
);
unicode = 240;
},
{
color = 6;
glyphname = e;
kernLeft = LAT_O_LC;
kernRight = LAT_E_LC;
lastChange = "2023-11-23 10:09:18 +0000";
layers = (
{
anchors = (
{
name = bottom;
pos = (500,0);
},
{
name = cedilla;
pos = (500,0);
},
{
name = ogonek;
pos = (804,120);
},
{
name = top;
pos = (502,1068);
}
);
layerId = "AB099EFE-E788-4EFC-8633-CF147CB782A6";
shapes = (
{
closed = 1;
nodes = (
(614,-16,o),
(726,36,o),
(804,120,c),
(780,176,l),
(712,100,o),
(608,40,o),
(498,40,cs),
(304,40,o),
(168,232,o),
(168,536,cs),
(168,826,o),
(292,1028,o),
(492,1028,cs),
(678,1028,o),
(806,854,o),
(796,572,c),
(156,572,l),
(156,516,l),
(852,516,l),
(854,548,o),
(856,582,o),
(856,614,cs),
(856,892,o),
(708,1084,o),
(490,1084,cs),
(258,1084,o),
(108,866,o),
(108,538,cs),
(108,200,o),
(268,-16,o),
(500,-16,cs)
);
}
);
width = 964;
},
{
anchors = (
{
name = bottom;
pos = (534,0);
},
{
name = cedilla;
pos = (562,0);
},
{
name = ogonek;
pos = (888,56);
},
{
name = top;
pos = (526,1100);
}
);
background = {
shapes = (
{
closed = 1;
nodes = (
(667,-16,o),
(769,-3,o),
(854,12,c),
(730,278,l),
(668,260,o),
(611,256,o),
(552,256,cs),
(450,256,o),
(379,371,o),
(380,568,cs),
(379,715,o),
(417,824,o),
(494,824,cs),
(563,824,o),
(602,785,o),
(614,640,c),
(314,640,l),
(314,426,l),
(926,426,l),
(943,446,o),
(951,509,o),
(952,594,cs),
(951,903,o),
(778,1096,o),
(496,1096,cs),
(219,1096,o),
(49,878,o),
(50,550,cs),
(49,201,o),
(250,-16,o),
(544,-16,cs)
);
}
);
};
layerId = "2D8F7115-C311-411E-929D-56333CF7FFB2";
shapes = (
{
closed = 1;
nodes = (
(690,-16,o),
(816,12,o),
(888,56,c),
(766,316,l),
(738,286,o),
(662,260,o),
(582,260,cs),
(420,260,o),
(346,368,o),
(346,568,cs),
(346,736,o),
(398,848,o),
(506,848,cs),
(588,848,o),
(640,786,o),
(640,648,c),
(324,648,l),
(324,436,l),
(942,436,l),
(950,470,o),
(956,542,o),
(956,610,cs),
(956,926,o),
(790,1116,o),
(512,1116,cs),
(214,1116,o),
(44,898,o),
(44,558,cs),
(44,196,o),
(236,-16,o),
(568,-16,cs)
);
}
);
width = 1000;
},
{
anchors = (
{
name = bottom;
pos = (506,0);
},
{
name = cedilla;
pos = (516,0);
},
{
name = ogonek;
pos = (822,82);
},
{
name = top;
pos = (502,1080);
}
);
layerId = "FD1CEFBD-BAB1-4C2A-A598-30E93F9A29F6";
shapes = (
{
closed = 1;
nodes = (
(626,-16,o),
(738,20,o),
(822,82,c),
(760,234,l),
(690,172,o),
(598,140,o),
(524,140,cs),
(352,140,o),
(248,298,o),
(248,544,cs),
(248,780,o),
(336,940,o),
(494,940,cs),
(638,940,o),
(724,808,o),
(724,612,c),
(212,612,l),
(212,472,l),
(880,472,l),
(884,508,o),
(888,550,o),
(888,598,cs),
(888,898,o),
(732,1096,o),
(494,1096,cs),
(240,1096,o),
(84,874,o),
(84,550,cs),
(84,206,o),
(258,-16,o),
(522,-16,cs)
);
}
);
width = 972;
}
);
metricLeft = o;
unicode = 101;
},
{
color = 3;
glyphname = f;
kernLeft = LAT_F_LC;
kernRight = LAT_F_LC;
lastChange = "2023-11-23 10:09:18 +0000";
layers = (
{
anchors = (
{
name = bottom;
pos = (282,0);
},
{
name = top;
pos = (442,1540);
}
);
layerId = "AB099EFE-E788-4EFC-8633-CF147CB782A6";
shapes = (
{
closed = 1;
nodes = (
(538,1012,l),
(538,1068,l),
(88,1068,l),
(88,1012,l)
);
},
{
pos = (8,2);
ref = "_part.f-stem";
}
);
width = 640;
},
{
anchors = (
{
name = bottom;
pos = (392,0);
},
{
name = top;
pos = (506,1540);
}
);
layerId = "2D8F7115-C311-411E-929D-56333CF7FFB2";
shapes = (
{
closed = 1;
nodes = (
(774,800,l),
(774,1100,l),
(22,1100,l),
(22,800,l)
);
},
{
pos = (6,0);
ref = "_part.f-stem";
}
);
width = 838;
},
{
anchors = (
{
name = bottom;
pos = (306,0);
},
{
name = top;
pos = (466,1540);
}
);
layerId = "FD1CEFBD-BAB1-4C2A-A598-30E93F9A29F6";
shapes = (
{
closed = 1;
nodes = (
(608,924,l),
(608,1080,l),
(52,1080,l),
(52,924,l)
);
},
{
ref = "_part.f-stem";
}
);
width = 688;
}
);
unicode = 102;
},
{
color = 6;
glyphname = g;
kernLeft = LAT_G_LC;
kernRight = LAT_G_LC;
lastChange = "2023-11-23 10:09:18 +0000";
layers = (
{
anchors = (
{
name = bottom;
pos = (522,-428);
},
{
name = top;
pos = (518,1068);
}
);
layerId = "AB099EFE-E788-4EFC-8633-CF147CB782A6";
shapes = (
{
closed = 1;
nodes = (
(750,-436,o),
(892,-280,o),
(892,-28,cs),
(892,1068,l),
(832,1068,l),
(832,868,l),
(804,868,l),
(836,786,l),
(836,288,l),
(804,200,l),
(832,200,l),
(832,-32,ls),
(832,-248,o),
(714,-380,o),
(516,-380,cs),
(406,-380,o),
(296,-334,o),
(228,-264,c),
(204,-324,l),
(278,-394,o),
(398,-436,o),
(516,-436,cs)
);
},
{
closed = 1;
nodes = (
(750,-16,o),
(890,186,o),
(890,536,cs),
(890,884,o),
(750,1084,o),
(502,1084,cs),
(254,1084,o),
(112,886,o),
(112,536,cs),
(112,188,o),
(252,-16,o),
(502,-16,cs)
);
},
{
closed = 1;
nodes = (
(292,40,o),
(172,220,o),
(172,536,cs),
(172,848,o),
(290,1028,o),
(504,1028,cs),
(714,1028,o),
(836,854,o),
(836,542,cs),
(836,228,o),
(714,40,o),
(502,40,cs)
);
}
);
width = 1052;
},
{
anchors = (
{
name = bottom;
pos = (542,-428);
},
{
name = top;
pos = (524,1100);
}
);
layerId = "2D8F7115-C311-411E-929D-56333CF7FFB2";
shapes = (
{
closed = 1;
nodes = (
(806,-436,o),
(1016,-260,o),
(1016,58,cs),
(1016,1100,l),
(700,1100,l),
(700,998,l),
(624,998,l),
(706,874,l),
(706,256,l),
(662,144,l),
(692,144,l),
(692,56,ls),
(692,-74,o),
(574,-146,o),
(452,-146,cs),
(376,-146,o),
(304,-116,o),
(218,-64,c),
(104,-336,l),
(204,-398,o),
(344,-436,o),
(492,-436,cs)
);
},
{
closed = 1;
nodes = (
(696,28,o),
(790,246,o),
(790,584,cs),
(790,914,o),
(698,1116,o),
(450,1116,cs),
(196,1116,o),
(44,908,o),
(44,568,cs),
(44,234,o),
(190,28,o),
(440,28,cs)
);
},
{
closed = 1;
nodes = (
(434,308,o),
(376,402,o),
(376,576,cs),
(376,744,o),
(436,836,o),
(540,836,cs),
(646,836,o),
(702,744,o),
(702,580,cs),
(702,404,o),
(644,308,o),
(534,308,cs)
);
}
);
width = 1096;
},
{
anchors = (
{
name = bottom;
pos = (532,-428);
},
{
name = top;
pos = (520,1080);
}
);
guides = (
{
angle = 67.5;
pos = (462,308);
}
);
layerId = "FD1CEFBD-BAB1-4C2A-A598-30E93F9A29F6";
shapes = (
{
closed = 1;
nodes = (
(764,-436,o),
(940,-278,o),
(940,12,cs),
(940,1080,l),
(776,1080,l),
(776,940,l),
(736,940,l),
(788,838,l),
(788,266,l),
(750,156,l),
(780,156,l),
(780,6,ls),
(780,-188,o),
(652,-280,o),
(496,-280,cs),
(402,-280,o),
(296,-246,o),
(228,-176,c),
(164,-332,l),
(256,-400,o),
(382,-436,o),
(502,-436,cs)
);
},
{
closed = 1;
nodes = (
(738,-4,o),
(864,208,o),
(864,542,cs),
(864,862,o),
(748,1096,o),
(488,1096,cs),
(246,1096,o),
(88,888,o),
(88,546,cs),
(88,204,o),
(246,-4,o),
(490,-4,cs)
);
},
{
closed = 1;
nodes = (
(360,152,o),
(256,302,o),
(256,550,cs),
(256,794,o),
(356,940,o),
(518,940,cs),
(682,940,o),
(784,794,o),
(784,552,cs),
(784,306,o),
(684,152,o),
(520,152,cs)
);
}
);
width = 1068;
}
);
unicode = 103;
},
{
color = 3;
glyphname = g.ss01;
kernLeft = LAT_G_LC;
kernRight = LAT_G_LC;
lastChange = "2023-11-23 10:09:18 +0000";
layers = (
{
anchors = (
{
name = bottom;
pos = (538,-428);
},
{
name = top;
pos = (532,1068);
}
);
layerId = "AB099EFE-E788-4EFC-8633-CF147CB782A6";
shapes = (
{
closed = 1;
nodes = (
(700,-436,o),
(932,-316,o),
(932,8,cs),
(932,1068,l),
(872,1068,l),
(872,824,l),
(858,824,l),
(876,754,l),
(876,324,l),
(862,254,l),
(872,254,l),
(872,4,ls),
(872,-274,o),
(676,-382,o),
(522,-380,cs),
(412,-378,o),
(288,-336,o),
(220,-264,c),
(196,-324,l),
(264,-388,o),
(412,-436,o),
(522,-436,cs)
);
},
{
pos = (1088,0);
ref = _part.bowl.ss01;
scale = (-1,1);
}
);
width = 1092;
},
{
anchors = (
{
name = bottom;
pos = (534,-436);
},
{
name = top;
pos = (512,1100);
}
);
layerId = "2D8F7115-C311-411E-929D-56333CF7FFB2";
shapes = (
{
closed = 1;
nodes = (
(792,-436,o),
(1018,-262,o),
(1018,58,cs),
(1018,1100,l),
(702,1100,l),
(702,992,l),
(626,992,l),
(716,876,l),
(716,256,l),
(664,152,l),
(692,152,l),
(692,56,ls),
(692,-74,o),
(562,-146,o),
(438,-146,cs),
(362,-146,o),
(290,-116,o),
(204,-64,c),
(90,-336,l),
(190,-398,o),
(332,-436,o),
(478,-436,cs)
);
},
{
pos = (1112,46);
ref = _part.bowl.ss01;
scale = (-1,0.9597);
}
);
width = 1098;
},
{
anchors = (
{
name = bottom;
pos = (538,-428);
},
{
name = top;
pos = (526,1080);
}
);
layerId = "FD1CEFBD-BAB1-4C2A-A598-30E93F9A29F6";
shapes = (
{
closed = 1;
nodes = (
(740,-436,o),
(954,-286,o),
(954,34,cs),
(954,1080,l),
(790,1080,l),
(790,934,l),
(764,934,l),
(796,836,l),
(796,270,l),
(768,168,l),
(794,168,l),
(794,26,ls),
(794,-204,o),
(616,-280,o),
(486,-280,cs),
(388,-280,o),
(280,-244,o),
(204,-174,c),
(142,-320,l),
(220,-388,o),
(358,-436,o),
(492,-436,cs)
);
},
{
alignment = -1;
pos = (1092,16);
ref = _part.bowl.ss01;
scale = (-1,0.9848);
}
);
width = 1082;
}
);
metricRight = g;
},
{
color = 6;
glyphname = g.ss03;
kernLeft = LAT_GSS03_LC;
kernRight = LAT_GSS03_LC;
lastChange = "2023-11-23 10:09:18 +0000";
layers = (
{
anchors = (
{
name = bottom;
pos = (500,-436);
},
{
name = top;
pos = (478,1068);
}
);
layerId = "AB099EFE-E788-4EFC-8633-CF147CB782A6";
shapes = (
{
closed = 1;
nodes = (
(726,-436,o),
(910,-294,o),
(910,-98,cs),
(910,44,o),
(808,128,o),
(642,128,cs),
(406,128,ls),
(296,128,o),
(208,204,o),
(208,318,cs),
(208,378,o),
(234,422,o),
(260,446,c),
(218,494,l),
(188,460,o),
(152,400,o),
(152,322,cs),
(152,202,o),
(234,72,o),
(408,72,cs),
(650,72,ls),
(776,72,o),
(850,10,o),
(850,-98,cs),
(850,-252,o),
(706,-380,o),
(490,-380,cs),
(300,-380,o),
(170,-280,o),
(170,-132,cs),
(170,-28,o),
(242,76,o),
(310,108,c),
(260,146,l),
(178,92,o),
(110,-12,o),
(110,-132,cs),
(110,-312,o),
(264,-436,o),
(486,-436,cs)
);
},
{
closed = 1;
nodes = (
(680,338,o),
(826,490,o),
(826,716,cs),
(826,934,o),
(686,1084,o),
(480,1084,cs),
(280,1084,o),
(134,938,o),
(134,718,cs),
(134,494,o),
(282,338,o),
(482,338,cs)
);
},
{
closed = 1;
nodes = (
(318,394,o),
(196,530,o),
(196,714,cs),
(196,892,o),
(310,1028,o),
(480,1028,cs),
(642,1028,o),
(766,902,o),
(766,714,cs),
(766,514,o),
(632,394,o),
(480,394,cs)
);
},
{
closed = 1;
nodes = (
(798,982,o),
(844,1008,o),
(926,1056,c),
(896,1114,l),
(832,1078,o),
(798,1052,o),
(714,984,c),
(744,932,l)
);
}
);
width = 1008;
},
{
anchors = (
{
name = bottom;
pos = (540,-436);
},
{
name = top;
pos = (528,1100);
}
);
layerId = "2D8F7115-C311-411E-929D-56333CF7FFB2";
shapes = (
{
closed = 1;
nodes = (
(922,-436,o),
(1062,-268,o),
(1062,-84,cs),
(1062,118,o),
(922,234,o),
(722,234,cs),
(492,234,ls),
(402,234,o),
(338,234,o),
(338,302,cs),
(338,346,o),
(366,370,o),
(398,394,c),
(202,482,l),
(132,438,o),
(88,374,o),
(88,286,cs),
(88,130,o),
(232,-4,o),
(468,-4,cs),
(672,-4,ls),
(686,-4,o),
(748,-4,o),
(750,-72,cs),
(752,-152,o),
(662,-174,o),
(544,-174,cs),
(450,-174,o),
(304,-160,o),
(304,-56,cs),
(304,-8,o),
(334,52,o),
(380,68,c),
(188,128,l),
(112,106,o),
(12,26,o),
(12,-112,cs),
(12,-292,o),
(182,-436,o),
(538,-436,cs)
);
},
{
closed = 1;
nodes = (
(776,314,o),
(956,478,o),
(956,712,cs),
(956,948,o),
(778,1116,o),
(522,1116,cs),
(276,1116,o),
(90,958,o),
(92,712,cs),
(94,484,o),
(262,314,o),
(522,314,cs)
);
},
{
closed = 1;
nodes = (
(448,550,o),
(396,615,o),
(396,710,cs),
(396,805,o),
(448,870,o),
(524,870,cs),
(600,870,o),
(652,805,o),
(652,710,cs),
(652,615,o),
(600,550,o),
(524,550,cs)
);
},
{
closed = 1;
nodes = (
(948,948,o),
(968,956,o),
(1080,960,c),
(1026,1210,l),
(924,1178,o),
(852,1138,o),
(706,1026,c),
(846,904,l)
);
}
);
width = 1072;
},
{
anchors = (
{
name = bottom;
pos = (500,-436);
},
{
name = top;
pos = (482,1080);
}
);
layerId = "FD1CEFBD-BAB1-4C2A-A598-30E93F9A29F6";
shapes = (
{
closed = 1;
nodes = (
(784,-436,o),
(950,-274,o),
(950,-94,cs),
(950,68,o),
(826,166,o),
(650,166,cs),
(462,166,ls),
(392,166,o),
(296,198,o),
(296,306,cs),
(296,346,o),
(310,372,o),
(348,406,c),
(234,498,l),
(186,446,o),
(148,378,o),
(148,302,cs),
(148,178,o),
(242,26,o),
(462,26,cs),
(604,26,ls),
(700,26,o),
(786,-6,o),
(786,-102,cs),
(786,-206,o),
(668,-288,o),
(496,-288,cs),
(350,-288,o),
(230,-230,o),
(230,-110,cs),
(230,-16,o),
(298,52,o),
(344,70,c),
(222,142,l),
(134,88,o),
(72,-18,o),
(72,-130,cs),
(72,-310,o),
(244,-436,o),
(496,-436,cs)
);
},
{
closed = 1;
nodes = (
(706,334,o),
(856,490,o),
(856,718,cs),
(856,942,o),
(706,1096,o),
(488,1096,cs),
(270,1096,o),
(120,942,o),
(120,718,cs),
(120,490,o),
(270,334,o),
(488,334,cs)
);
},
{
closed = 1;
nodes = (
(370,478,o),
(284,577,o),
(284,714,cs),
(284,852,o),
(370,952,o),
(488,952,cs),
(606,952,o),
(692,853,o),
(692,718,cs),
(692,579,o),
(606,478,o),
(488,478,cs)
);
},
{
closed = 1;
nodes = (
(836,962,o),
(878,992,o),
(964,1014,c),
(904,1160,l),
(810,1118,o),
(750,1080,o),
(666,1012,c),
(760,918,l)
);
}
);
width = 1012;
}
);
},
{
color = 6;
glyphname = h;
kernLeft = LAT_H_UC;
kernRight = LAT_N_LC;
lastChange = "2023-11-23 10:09:18 +0000";
layers = (
{
anchors = (
{
name = bottom;
pos = (494,0);
},
{
name = center;
pos = (190,1262);
},
{
name = top;
pos = (190,1474);
}
);
layerId = "AB099EFE-E788-4EFC-8633-CF147CB782A6";
shapes = (
{
closed = 1;
nodes = (
(220,0,l),
(220,732,ls),
(220,906,o),
(348,1028,o),
(512,1028,cs),
(668,1028,o),
(768,914,o),
(768,738,cs),
(768,0,l),
(828,0,l),
(828,738,ls),
(828,948,o),
(704,1084,o),
(516,1084,cs),
(380,1084,o),
(250,1010,o),
(208,886,c),
(246,916,l),
(220,916,l),
(220,1540,l),
(160,1540,l),
(160,0,l)
);
}
);
width = 980;
},
{
anchors = (
{
name = bottom;
pos = (536,0);
},
{
name = center;
pos = (256,1298);
},
{
name = top;
pos = (256,1540);
}
);
layerId = "2D8F7115-C311-411E-929D-56333CF7FFB2";
shapes = (
{
closed = 1;
nodes = (
(436,0,l),
(436,716,ls),
(436,782,o),
(476,826,o),
(538,826,cs),
(598,826,o),
(636,782,o),
(636,718,cs),
(636,0,l),
(988,0,l),
(988,794,ls),
(988,988,o),
(880,1116,o),
(710,1116,cs),
(558,1116,o),
(445,1041,o),
(424,924,c),
(468,978,l),
(436,978,l),
(436,1540,l),
(84,1540,l),
(84,0,l)
);
}
);
width = 1064;
},
{
anchors = (
{
name = bottom;
pos = (504,0);
},
{
name = center;
pos = (214,1274);
},
{
name = top;
pos = (212,1514);
}
);
layerId = "FD1CEFBD-BAB1-4C2A-A598-30E93F9A29F6";
shapes = (
{
closed = 1;
nodes = (
(296,0,l),
(296,720,ls),
(296,854,o),
(384,944,o),
(514,944,cs),
(630,944,o),
(712,856,o),
(712,722,cs),
(712,0,l),
(880,0,l),
(880,742,ls),
(880,956,o),
(756,1096,o),
(566,1096,cs),
(426,1096,o),
(304,1020,o),
(264,896,c),
(334,964,l),
(296,964,l),
(296,1540,l),
(128,1540,l),
(128,0,l)
);
}
);
width = 1004;
}
);
metricRight = n;
unicode = 104;
},
{
color = 6;
glyphname = idotless;
lastChange = "2023-11-23 10:09:18 +0000";
layers = (
{
anchors = (
{
name = bottom;
pos = (198,0);
},
{
name = ogonek;
pos = (228,0);
},
{
name = top;
pos = (198,1068);
}
);
layerId = "AB099EFE-E788-4EFC-8633-CF147CB782A6";
shapes = (
{
closed = 1;
nodes = (
(228,0,l),
(228,1068,l),
(168,1068,l),
(168,0,l)
);
}
);
width = 396;
},
{
anchors = (
{
name = bottom;
pos = (272,0);
},
{
name = ogonek;
pos = (448,0);
},
{
name = top;
pos = (272,1100);
}
);
guides = (
{
angle = 60;
pos = (208,0);
}
);
layerId = "2D8F7115-C311-411E-929D-56333CF7FFB2";
shapes = (
{
closed = 1;
nodes = (
(448,0,l),
(448,1100,l),
(96,1100,l),
(96,0,l)
);
}
);
width = 544;
},
{
anchors = (
{
name = bottom;
pos = (220,0);
},
{
name = ogonek;
pos = (304,0);
},
{
name = top;
pos = (220,1080);
}
);
layerId = "FD1CEFBD-BAB1-4C2A-A598-30E93F9A29F6";
shapes = (
{
closed = 1;
nodes = (
(304,0,l),
(304,1080,l),
(136,1080,l),
(136,0,l)
);
}
);
width = 440;
}
);
unicode = 305;
},
{
color = 6;
glyphname = idotless.ss02;
kernRight = LAT_A_LC;
lastChange = "2023-11-23 10:09:18 +0000";
layers = (
{
anchors = (
{
name = bottom;
pos = (264,0);
},
{
name = center;
pos = (192,580);
},
{
name = ogonek;
pos = (300,-16);
},
{
name = top;
pos = (192,1068);
}
);
background = {
anchors = (
{
name = bottom;
pos = (298,0);
},
{
name = center;
pos = (216,570);
},
{
name = ogonek;
pos = (436,12);
},
{
name = top;
pos = (216,1048);
}
);
shapes = (
{
closed = 1;
nodes = (
(373,-8,o),
(416,0,o),
(436,12,c),
(436,74,l),
(408,59,o),
(369,49,o),
(334,50,cs),
(246,49,o),
(244,119,o),
(244,208,cs),
(244,1048,l),
(182,1048,l),
(182,222,ls),
(182,111,o),
(182,-8,o),
(338,-8,cs)
);
}
);
};
guides = (
{
angle = 80;
pos = (176,-8);
}
);
layerId = "AB099EFE-E788-4EFC-8633-CF147CB782A6";
shapes = (
{
closed = 1;
nodes = (
(320,38,l),
(264,68,o),
(220,116,o),
(220,200,cs),
(220,1068,l),
(160,1068,l),
(160,240,ls),
(160,128,o),
(186,40,o),
(300,-16,c)
);
}
);
width = 440;
},
{
anchors = (
{
name = bottom;
pos = (278,0);
},
{
name = center;
pos = (272,580);
},
{
name = ogonek;
pos = (440,-16);
},
{
name = top;
pos = (272,1100);
}
);
background = {
anchors = (
{
name = bottom;
pos = (326,0);
},
{
name = center;
pos = (302,570);
},
{
name = ogonek;
pos = (588,8);
},
{
name = top;
pos = (302,1080);
}
);
shapes = (
{
closed = 1;
nodes = (
(473,-16,o),
(541,-10,o),
(588,8,c),
(588,286,l),
(561,281,o),
(549,279,o),
(534,278,cs),
(477,279,o),
(473,319,o),
(474,376,cs),
(474,1082,l),
(116,1082,l),
(116,278,ls),
(117,111,o),
(228,-16,o),
(420,-16,cs)
);
}
);
};
guides = (
{
angle = 80;
pos = (274,-8);
}
);
layerId = "2D8F7115-C311-411E-929D-56333CF7FFB2";
shapes = (
{
closed = 1;
nodes = (
(568,278,l),
(474,302,o),
(444,370,o),
(444,464,cs),
(444,1102,l),
(92,1102,l),
(92,450,ls),
(92,178,o),
(192,-4,o),
(440,-16,c)
);
}
);
width = 596;
},
{
anchors = (
{
name = bottom;
pos = (276,0);
},
{
name = center;
pos = (220,580);
},
{
name = ogonek;
pos = (360,-16);
},
{
name = top;
pos = (220,1080);
}
);
layerId = "FD1CEFBD-BAB1-4C2A-A598-30E93F9A29F6";
shapes = (
{
closed = 1;
nodes = (
(400,144,l),
(350,156,o),
(300,198,o),
(300,280,cs),
(300,1080,l),
(132,1080,l),
(132,316,ls),
(132,146,o),
(184,10,o),
(362,-16,c)
);
}
);
width = 500;
}
);
},
{
color = 6;
glyphname = jdotless;
kernLeft = LAT_J_LC;
kernRight = LAT_J_LC;
lastChange = "2023-11-23 10:09:18 +0000";
layers = (
{
anchors = (
{
name = center;
pos = (234,580);
},
{
name = top;
pos = (234,1068);
}
);
layerId = "AB099EFE-E788-4EFC-8633-CF147CB782A6";
shapes = (
{
closed = 1;
nodes = (
(198,-444,o),
(266,-310,o),
(266,-140,cs),
(266,1068,l),
(204,1068,l),
(204,-158,ls),
(204,-276,o),
(156,-388,o),
(40,-388,cs),
(22,-388,o),
(-2,-386,o),
(-24,-376,c),
(-24,-436,l),
(0,-442,o),
(20,-444,o),
(44,-444,cs)
);
}
);
width = 434;
},
{
anchors = (
{
name = center;
pos = (290,580);
},
{
name = top;
pos = (286,1100);
}
);
layerId = "2D8F7115-C311-411E-929D-56333CF7FFB2";
shapes = (
{
closed = 1;
nodes = (
(344,-452,o),
(464,-266,o),
(464,-16,cs),
(464,1100,l),
(112,1100,l),
(112,-40,ls),
(112,-96,o),
(92,-142,o),
(30,-142,cs),
(14,-142,o),
(-30,-138,o),
(-56,-124,c),
(-56,-436,l),
(-12,-446,o),
(46,-452,o),
(90,-452,cs)
);
}
);
width = 560;
},
{
anchors = (
{
name = center;
pos = (256,580);
},
{
name = top;
pos = (256,1080);
}
);
layerId = "FD1CEFBD-BAB1-4C2A-A598-30E93F9A29F6";
shapes = (
{
closed = 1;
nodes = (
(252,-444,o),
(340,-306,o),
(340,-126,cs),
(340,1080,l),
(172,1080,l),
(172,-114,ls),
(172,-220,o),
(130,-284,o),
(46,-284,cs),
(16,-284,o),
(-6,-280,o),
(-32,-272,c),
(-32,-432,l),
(-2,-440,o),
(28,-444,o),
(64,-444,cs)
);
}
);
width = 476;
}
);
unicode = 567;
},
{
color = 6;
glyphname = k;
kernLeft = LAT_H_UC;
kernRight = LAT_K_LC;
lastChange = "2023-11-23 10:09:18 +0000";
layers = (
{
anchors = (
{
name = bottom;
pos = (462,0);
},
{
name = top;
pos = (188,1540);
}
);
layerId = "AB099EFE-E788-4EFC-8633-CF147CB782A6";
shapes = (
{
closed = 1;
nodes = (
(220,0,l),
(220,524,l),
(300,524,l),
(260,548,l),
(714,0,l),
(794,0,l),
(314,572,l),
(314,536,l),
(766,1068,l),
(684,1068,l),
(260,560,l),
(300,586,l),
(220,586,l),
(220,1540,l),
(160,1540,l),
(160,0,l)
);
}
);
width = 866;
},
{
anchors = (
{
name = bottom;
pos = (560,0);
},
{
name = top;
pos = (262,1540);
}
);
layerId = "2D8F7115-C311-411E-929D-56333CF7FFB2";
shapes = (
{
closed = 1;
nodes = (
(436,0,l),
(436,488,l),
(516,488,l),
(430,530,l),
(686,0,l),
(1082,0,l),
(712,686,l),
(712,484,l),
(1092,1100,l),
(690,1100,l),
(434,628,l),
(516,672,l),
(436,672,l),
(436,1540,l),
(84,1540,l),
(84,0,l)
);
}
);
width = 1092;
},
{
anchors = (
{
name = bottom;
pos = (492,0);
},
{
name = top;
pos = (212,1518);
}
);
layerId = "FD1CEFBD-BAB1-4C2A-A598-30E93F9A29F6";
shapes = (
{
closed = 1;
nodes = (
(296,0,l),
(296,524,l),
(370,524,l),
(322,562,l),
(698,0,l),
(900,0,l),
(466,632,l),
(458,540,l),
(878,1080,l),
(668,1080,l),
(318,612,l),
(370,648,l),
(296,648,l),
(296,1540,l),
(128,1540,l),
(128,0,l)
);
}
);
width = 940;
}
);
metricLeft = h;
unicode = 107;
},
{
color = 6;
glyphname = kgreenlandic;
kernLeft = LAT_N_LC;
kernRight = LAT_K_LC;
lastChange = "2023-11-23 10:09:18 +0000";
layers = (
{
anchors = (
{
name = bottom;
pos = (440,0);
},
{
name = top;
pos = (440,1068);
}
);
layerId = "AB099EFE-E788-4EFC-8633-CF147CB782A6";
shapes = (
{
closed = 1;
nodes = (
(220,0,l),
(220,514,l),
(290,514,l),
(246,538,l),
(712,0,l),
(800,0,l),
(304,562,l),
(304,526,l),
(766,1068,l),
(680,1068,l),
(246,550,l),
(290,576,l),
(220,576,l),
(220,1068,l),
(160,1068,l),
(160,0,l)
);
}
);
width = 872;
},
{
anchors = (
{
name = bottom;
pos = (540,0);
},
{
name = top;
pos = (540,1100);
}
);
layerId = "2D8F7115-C311-411E-929D-56333CF7FFB2";
shapes = (
{
closed = 1;
nodes = (
(432,0,l),
(432,464,l),
(494,464,l),
(390,518,l),
(688,0,l),
(1092,0,l),
(644,676,l),
(644,472,l),
(1078,1100,l),
(666,1100,l),
(390,616,l),
(494,668,l),
(432,668,l),
(432,1100,l),
(80,1100,l),
(80,0,l)
);
}
);
width = 1092;
},
{
anchors = (
{
name = bottom;
pos = (472,0);
},
{
name = top;
pos = (472,1080);
}
);
layerId = "FD1CEFBD-BAB1-4C2A-A598-30E93F9A29F6";
shapes = (
{
closed = 1;
nodes = (
(296,0,l),
(296,472,l),
(368,472,l),
(300,520,l),
(702,0,l),
(916,0,l),
(442,592,l),
(442,500,l),
(890,1080,l),
(674,1080,l),
(300,572,l),
(368,616,l),
(296,616,l),
(296,1080,l),
(128,1080,l),
(128,0,l)
);
}
);
width = 956;
}
);
metricLeft = n;
metricRight = k;
unicode = 312;
},
{
color = 6;
glyphname = l;
kernLeft = LAT_L_LC;
kernRight = LAT_L_LC;
lastChange = "2023-11-23 10:09:18 +0000";
layers = (
{
anchors = (
{
name = bottom;
pos = (264,0);
},
{
name = center;
pos = (194,738);
},
{
name = dot;
pos = (462,738);
},
{
name = top;
pos = (194,1540);
},
{
name = topright;
pos = (228,1540);
}
);
layerId = "AB099EFE-E788-4EFC-8633-CF147CB782A6";
shapes = (
{
closed = 1;
nodes = (
(318,-8,o),
(350,-4,o),
(368,4,c),
(368,64,l),
(352,54,o),
(326,48,o),
(302,48,cs),
(224,48,o),
(224,112,o),
(224,174,cs),
(224,1540,l),
(164,1540,l),
(164,174,ls),
(164,70,o),
(184,-8,o),
(296,-8,cs)
);
}
);
width = 432;
},
{
anchors = (
{
name = bottom;
pos = (310,0);
},
{
name = center;
pos = (258,786);
},
{
name = dot;
pos = (758,754);
},
{
name = top;
pos = (260,1540);
},
{
name = topright;
pos = (438,1540);
}
);
guides = (
{
angle = 100;
pos = (300,-12);
}
);
layerId = "2D8F7115-C311-411E-929D-56333CF7FFB2";
shapes = (
{
closed = 1;
nodes = (
(434,-16,o),
(492,-4,o),
(536,12,c),
(536,282,l),
(528,278,o),
(510,274,o),
(496,274,cs),
(462,274,o),
(438,300,o),
(438,354,cs),
(438,1540,l),
(86,1540,l),
(86,294,ls),
(86,132,o),
(190,-16,o),
(376,-16,cs)
);
}
);
width = 580;
},
{
anchors = (
{
name = bottom;
pos = (278,0);
},
{
name = center;
pos = (222,772);
},
{
name = dot;
pos = (570,746);
},
{
name = top;
pos = (218,1540);
},
{
name = topright;
pos = (304,1540);
}
);
layerId = "FD1CEFBD-BAB1-4C2A-A598-30E93F9A29F6";
shapes = (
{
closed = 1;
nodes = (
(362,-16,o),
(398,-12,o),
(424,-4,c),
(424,148,l),
(414,144,o),
(396,140,o),
(378,140,cs),
(300,140,o),
(300,216,o),
(300,246,cs),
(300,1540,l),
(132,1540,l),
(132,250,ls),
(132,84,o),
(192,-16,o),
(334,-16,cs)
);
}
);
width = 488;
}
);
unicode = 108;
},
{
color = 6;
glyphname = l.ss01;
kernLeft = LAT_H_UC;
kernRight = LAT_H_UC;
lastChange = "2023-11-23 10:09:18 +0000";
layers = (
{
anchors = (
{
name = bottom;
pos = (208,0);
},
{
name = center;
pos = (204,738);
},
{
name = dot;
pos = (428,738);
},
{
name = top;
pos = (204,1540);
},
{
name = topright;
pos = (236,1540);
}
);
layerId = "AB099EFE-E788-4EFC-8633-CF147CB782A6";
shapes = (
{
closed = 1;
nodes = (
(236,0,l),
(236,1540,l),
(176,1540,l),
(176,0,l)
);
}
);
width = 412;
},
{
anchors = (
{
name = bottom;
pos = (274,0);
},
{
name = center;
pos = (274,786);
},
{
name = dot;
pos = (736,754);
},
{
name = top;
pos = (274,1540);
},
{
name = topright;
pos = (448,1540);
}
);
layerId = "2D8F7115-C311-411E-929D-56333CF7FFB2";
shapes = (
{
closed = 1;
nodes = (
(448,0,l),
(448,1540,l),
(96,1540,l),
(96,0,l)
);
}
);
width = 544;
},
{
anchors = (
{
name = bottom;
pos = (222,0);
},
{
name = center;
pos = (222,756);
},
{
name = dot;
pos = (534,746);
},
{
name = top;
pos = (222,1540);
},
{
name = topright;
pos = (306,1540);
}
);
layerId = "FD1CEFBD-BAB1-4C2A-A598-30E93F9A29F6";
shapes = (
{
closed = 1;
nodes = (
(306,0,l),
(306,1540,l),
(138,1540,l),
(138,0,l)
);
}
);
width = 444;
}
);
},
{
color = 6;
glyphname = m;
kernLeft = LAT_N_LC;
kernRight = LAT_N_LC;
lastChange = "2023-11-23 10:09:18 +0000";
layers = (
{
anchors = (
{
name = bottom;
pos = (728,0);
},
{
name = leghookleft;
pos = (1266,0);
},
{
name = top;
pos = (732,1068);
}
);
background = {
shapes = (
{
closed = 1;
nodes = (
(234,0,l),
(234,652,ls),
(233,815,o),
(360,1008,o),
(558,1008,cs),
(680,1008,o),
(811,930,o),
(812,680,cs),
(812,0,l),
(872,0,l),
(872,676,ls),
(872,819,o),
(995,1008,o),
(1192,1008,cs),
(1323,1008,o),
(1442,930,o),
(1442,668,cs),
(1442,0,l),
(1504,0,l),
(1504,688,ls),
(1503,954,o),
(1360,1065,o),
(1188,1064,cs),
(999,1065,o),
(889,934,o),
(852,828,c),
(876,840,l),
(832,840,l),
(860,820,l),
(823,971,o),
(700,1065,o),
(552,1064,cs),
(393,1065,o),
(283,958,o),
(222,824,c),
(246,856,l),
(234,856,l),
(234,1048,l),
(172,1048,l),
(172,0,l)
);
}
);
};
guides = (
{
angle = 60;
pos = (268,338);
}
);
layerId = "AB099EFE-E788-4EFC-8633-CF147CB782A6";
shapes = (
{
closed = 1;
nodes = (
(220,0,l),
(220,732,ls),
(220,912,o),
(318,1028,o),
(466,1028,cs),
(608,1028,o),
(698,922,o),
(698,764,cs),
(698,0,l),
(758,0,l),
(758,764,ls),
(758,924,o),
(854,1028,o),
(1006,1028,cs),
(1148,1028,o),
(1240,924,o),
(1240,764,cs),
(1240,0,l),
(1300,0,l),
(1300,770,ls),
(1300,960,o),
(1186,1084,o),
(1008,1084,cs),
(870,1084,o),
(754,1000,o),
(716,872,c),
(754,908,l),
(708,908,l),
(740,872,l),
(708,992,o),
(606,1084,o),
(472,1084,cs),
(352,1084,o),
(250,1010,o),
(208,902,c),
(236,938,l),
(220,934,l),
(220,1068,l),
(160,1068,l),
(160,0,l)
);
}
);
width = 1452;
},
{
anchors = (
{
name = bottom;
pos = (784,0);
},
{
name = leghookleft;
pos = (1290,0);
},
{
name = top;
pos = (774,1100);
}
);
layerId = "2D8F7115-C311-411E-929D-56333CF7FFB2";
shapes = (
{
closed = 1;
nodes = (
(432,0,l),
(432,732,ls),
(432,788,o),
(464,828,o),
(514,828,cs),
(564,828,o),
(596,788,o),
(596,732,cs),
(596,0,l),
(948,0,l),
(948,732,ls),
(948,788,o),
(980,828,o),
(1030,828,cs),
(1080,828,o),
(1112,788,o),
(1112,732,cs),
(1112,0,l),
(1464,0,l),
(1464,738,ls),
(1464,966,o),
(1348,1116,o),
(1168,1116,cs),
(1040,1116,o),
(920,1046,o),
(872,926,c),
(900,962,l),
(872,962,l),
(896,926,l),
(874,1040,o),
(782,1116,o),
(666,1116,cs),
(522,1116,o),
(410,1014,o),
(380,862,c),
(454,958,l),
(408,958,l),
(408,1100,l),
(80,1100,l),
(80,0,l)
);
}
);
width = 1540;
},
{
anchors = (
{
name = bottom;
pos = (746,0);
},
{
name = leghookleft;
pos = (1276,0);
},
{
name = top;
pos = (766,1080);
}
);
layerId = "FD1CEFBD-BAB1-4C2A-A598-30E93F9A29F6";
shapes = (
{
closed = 1;
nodes = (
(296,0,l),
(296,720,ls),
(296,852,o),
(370,944,o),
(478,944,cs),
(588,944,o),
(660,856,o),
(660,726,cs),
(660,0,l),
(828,0,l),
(828,726,ls),
(828,854,o),
(900,944,o),
(1012,944,cs),
(1120,944,o),
(1194,856,o),
(1194,726,cs),
(1194,0,l),
(1362,0,l),
(1362,722,ls),
(1362,946,o),
(1242,1096,o),
(1060,1096,cs),
(916,1096,o),
(792,1010,o),
(754,882,c),
(816,942,l),
(738,942,l),
(802,882,l),
(760,1010,o),
(660,1096,o),
(542,1096,cs),
(404,1096,o),
(300,1008,o),
(270,894,c),
(322,958,l),
(294,958,l),
(294,1080,l),
(128,1080,l),
(128,0,l)
);
}
);
width = 1486;
}
);
metricLeft = n;
metricRight = n;
unicode = 109;
},
{
color = 6;
glyphname = n;
kernLeft = LAT_N_LC;
kernRight = LAT_N_LC;
lastChange = "2023-11-23 10:09:18 +0000";
layers = (
{
anchors = (
{
name = bottom;
pos = (512,0);
},
{
name = leghookleft;
pos = (190,0);
},
{
name = leghookright;
pos = (798,0);
},
{
name = top;
pos = (518,1068);
}
);
layerId = "AB099EFE-E788-4EFC-8633-CF147CB782A6";
shapes = (
{
closed = 1;
nodes = (
(220,0,l),
(220,726,ls),
(220,902,o),
(348,1028,o),
(508,1028,cs),
(666,1028,o),
(768,904,o),
(768,730,cs),
(768,0,l),
(828,0,l),
(828,730,ls),
(828,942,o),
(704,1084,o),
(516,1084,cs),
(380,1084,o),
(250,1008,o),
(208,882,c),
(246,912,l),
(218,912,l),
(218,1068,l),
(160,1068,l),
(160,0,l)
);
}
);
width = 980;
},
{
anchors = (
{
name = bottom;
pos = (522,0);
},
{
name = leghookleft;
pos = (252,0);
},
{
name = leghookright;
pos = (810,0);
},
{
name = top;
pos = (556,1100);
}
);
layerId = "2D8F7115-C311-411E-929D-56333CF7FFB2";
shapes = (
{
closed = 1;
nodes = (
(432,0,l),
(432,710,ls),
(432,778,o),
(472,826,o),
(534,826,cs),
(594,826,o),
(632,778,o),
(632,712,cs),
(632,0,l),
(984,0,l),
(984,786,ls),
(984,984,o),
(876,1116,o),
(706,1116,cs),
(546,1116,o),
(426,1030,o),
(404,898,c),
(464,954,l),
(416,954,l),
(416,1100,l),
(80,1100,l),
(80,0,l)
);
}
);
width = 1060;
},
{
anchors = (
{
name = bottom;
pos = (508,0);
},
{
name = leghookleft;
pos = (212,0);
},
{
name = leghookright;
pos = (796,0);
},
{
name = top;
pos = (532,1080);
}
);
background = {
shapes = (
{
closed = 1;
nodes = (
(294,0,l),
(294,648,ls),
(294,822,o),
(392,916,o),
(514,916,cs),
(636,916,o),
(712,826,o),
(712,648,cs),
(712,0,l),
(886,0,l),
(886,692,ls),
(886,876,o),
(790,1076,o),
(572,1076,cs),
(430,1076,o),
(306,1000,o),
(262,856,c),
(328,930,l),
(292,930,l),
(292,1060,l),
(122,1060,l),
(122,0,l)
);
}
);
};
layerId = "FD1CEFBD-BAB1-4C2A-A598-30E93F9A29F6";
shapes = (
{
closed = 1;
nodes = (
(296,0,l),
(296,714,ls),
(296,852,o),
(386,944,o),
(514,944,cs),
(632,944,o),
(712,852,o),
(712,716,cs),
(712,0,l),
(880,0,l),
(880,736,ls),
(880,950,o),
(756,1096,o),
(568,1096,cs),
(432,1096,o),
(308,1022,o),
(266,892,c),
(334,960,l),
(296,960,l),
(296,1080,l),
(128,1080,l),
(128,0,l)
);
}
);
width = 1004;
}
);
unicode = 110;
},
{
color = 6;
glyphname = o;
kernLeft = LAT_O_LC;
kernRight = LAT_O_LC;
lastChange = "2023-11-23 10:09:18 +0000";
layers = (
{
anchors = (
{
name = bottom;
pos = (514,0);
},
{
name = center;
pos = (514,534);
},
{
name = horn;
pos = (702,1032);
},
{
name = ogonek;
pos = (622,0);
},
{
name = top;
pos = (514,1068);
},
{
name = topright;
pos = (982,1068);
}
);
layerId = "AB099EFE-E788-4EFC-8633-CF147CB782A6";
shapes = (
{
closed = 1;
nodes = (
(760,-16,o),
(920,200,o),
(920,534,cs),
(920,868,o),
(760,1084,o),
(514,1084,cs),
(268,1084,o),
(108,868,o),
(108,534,cs),
(108,200,o),
(268,-16,o),
(514,-16,cs)
);
},
{
closed = 1;
nodes = (
(304,40,o),
(168,234,o),
(168,534,cs),
(168,834,o),
(304,1028,o),
(514,1028,cs),
(724,1028,o),
(860,834,o),
(860,534,cs),
(860,234,o),
(724,40,o),
(514,40,cs)
);
}
);
width = 1028;
},
{
anchors = (
{
name = bottom;
pos = (530,0);
},
{
name = center;
pos = (532,550);
},
{
name = horn;
pos = (802,1036);
},
{
name = ogonek;
pos = (652,0);
},
{
name = top;
pos = (530,1100);
},
{
name = topright;
pos = (1004,1100);
}
);
layerId = "2D8F7115-C311-411E-929D-56333CF7FFB2";
shapes = (
{
closed = 1;
nodes = (
(834,-16,o),
(1018,202,o),
(1018,550,cs),
(1018,900,o),
(834,1116,o),
(530,1116,cs),
(228,1116,o),
(44,902,o),
(44,550,cs),
(44,200,o),
(228,-16,o),
(530,-16,cs)
);
},
{
closed = 1;
nodes = (
(430,280,o),
(376,378,o),
(376,550,cs),
(376,722,o),
(430,820,o),
(530,820,cs),
(632,820,o),
(686,720,o),
(686,550,cs),
(686,378,o),
(632,280,o),
(530,280,cs)
);
}
);
width = 1062;
},
{
anchors = (
{
name = bottom;
pos = (518,0);
},
{
name = center;
pos = (518,540);
},
{
name = horn;
pos = (734,1036);
},
{
name = ogonek;
pos = (632,0);
},
{
name = top;
pos = (518,1080);
},
{
name = topright;
pos = (992,1080);
}
);
layerId = "FD1CEFBD-BAB1-4C2A-A598-30E93F9A29F6";
shapes = (
{
closed = 1;
nodes = (
(780,-16,o),
(950,206,o),
(950,546,cs),
(950,878,o),
(780,1096,o),
(518,1096,cs),
(254,1096,o),
(84,878,o),
(84,546,cs),
(84,208,o),
(254,-16,o),
(518,-16,cs)
);
},
{
closed = 1;
nodes = (
(356,140,o),
(252,300,o),
(252,546,cs),
(252,784,o),
(356,940,o),
(518,940,cs),
(678,940,o),
(782,784,o),
(782,546,cs),
(782,298,o),
(678,140,o),
(518,140,cs)
);
}
);
width = 1034;
}
);
unicode = 111;
},
{
color = 6;
glyphname = o.ss01;
kernLeft = LAT_O_LC;
kernRight = LAT_O_LC;
lastChange = "2023-11-23 10:09:18 +0000";
layers = (
{
anchors = (
{
name = bottom;
pos = (528,0);
},
{
name = center;
pos = (528,534);
},
{
name = horn;
pos = (714,1032);
},
{
name = ogonek;
pos = (616,0);
},
{
name = top;
pos = (528,1068);
},
{
name = topright;
pos = (1020,1068);
}
);
layerId = "AB099EFE-E788-4EFC-8633-CF147CB782A6";
shapes = (
{
closed = 1;
nodes = (
(778,-16,o),
(960,217,o),
(960,538,cs),
(960,854,o),
(778,1084,o),
(528,1084,cs),
(278,1084,o),
(96,854,o),
(96,538,cs),
(96,217,o),
(278,-16,o),
(528,-16,cs)
);
},
{
closed = 1;
nodes = (
(313,40,o),
(156,250,o),
(156,538,cs),
(156,822,o),
(313,1028,o),
(528,1028,cs),
(743,1028,o),
(900,822,o),
(900,538,cs),
(900,250,o),
(743,40,o),
(528,40,cs)
);
}
);
width = 1056;
},
{
anchors = (
{
name = bottom;
pos = (540,0);
},
{
name = center;
pos = (540,550);
},
{
name = horn;
pos = (810,1036);
},
{
name = ogonek;
pos = (646,0);
},
{
name = top;
pos = (544,1100);
},
{
name = topright;
pos = (1060,1100);
}
);
layerId = "2D8F7115-C311-411E-929D-56333CF7FFB2";
shapes = (
{
closed = 1;
nodes = (
(836,-16,o),
(1040,216,o),
(1040,550,cs),
(1040,884,o),
(836,1116,o),
(540,1116,cs),
(244,1116,o),
(40,884,o),
(40,550,cs),
(40,216,o),
(244,-16,o),
(540,-16,cs)
);
},
{
closed = 1;
nodes = (
(440,280,o),
(372,391,o),
(372,552,cs),
(372,711,o),
(440,820,o),
(540,820,cs),
(640,820,o),
(708,710,o),
(708,550,cs),
(708,390,o),
(640,280,o),
(540,280,cs)
);
}
);
width = 1080;
},
{
anchors = (
{
name = bottom;
pos = (530,0);
},
{
name = center;
pos = (530,542);
},
{
name = horn;
pos = (746,1036);
},
{
name = ogonek;
pos = (624,0);
},
{
name = top;
pos = (532,1080);
},
{
name = topright;
pos = (1032,1080);
}
);
layerId = "FD1CEFBD-BAB1-4C2A-A598-30E93F9A29F6";
shapes = (
{
closed = 1;
nodes = (
(795,-16,o),
(988,221,o),
(988,546,cs),
(988,864,o),
(795,1096,o),
(530,1096,cs),
(267,1096,o),
(76,864,o),
(76,546,cs),
(76,221,o),
(267,-16,o),
(530,-16,cs)
);
},
{
closed = 1;
nodes = (
(365,140,o),
(244,311,o),
(244,546,cs),
(244,774,o),
(365,940,o),
(530,940,cs),
(698,940,o),
(820,776,o),
(820,550,cs),
(820,313,o),
(698,140,o),
(530,140,cs)
);
}
);
width = 1064;
}
);
},
{
color = 6;
glyphname = oe;
kernLeft = LAT_O_LC;
kernRight = LAT_E_LC;
lastChange = "2023-11-23 10:09:18 +0000";
layers = (
{
anchors = (
{
name = top;
pos = (872,1068);
}
);
layerId = "AB099EFE-E788-4EFC-8633-CF147CB782A6";
shapes = (
{
closed = 1;
nodes = (
(746,-16,o),
(902,210,o),
(902,534,cs),
(902,862,o),
(744,1084,o),
(510,1084,cs),
(274,1084,o),
(108,862,o),
(108,534,cs),
(108,208,o),
(274,-16,o),
(510,-16,cs)
);
},
{
closed = 1;
nodes = (
(310,40,o),
(168,240,o),
(168,534,cs),
(168,828,o),
(310,1028,o),
(510,1028,cs),
(710,1028,o),
(846,828,o),
(846,534,cs),
(846,242,o),
(710,40,o),
(510,40,cs)
);
},
{
closed = 1;
nodes = (
(1342,-16,o),
(1450,34,o),
(1528,110,c),
(1504,174,l),
(1430,90,o),
(1330,40,o),
(1230,40,cs),
(1040,40,o),
(906,230,o),
(906,538,cs),
(906,822,o),
(1020,1028,o),
(1216,1028,cs),
(1398,1028,o),
(1514,850,o),
(1512,572,c),
(890,572,l),
(890,516,l),
(1572,516,l),
(1574,529,o),
(1576,549,o),
(1576,580,cs),
(1576,878,o),
(1440,1084,o),
(1220,1084,cs),
(988,1084,o),
(848,858,o),
(848,542,cs),
(848,204,o),
(1006,-16,o),
(1232,-16,cs)
);
}
);
width = 1684;
},
{
anchors = (
{
name = top;
pos = (820,1100);
}
);
layerId = "2D8F7115-C311-411E-929D-56333CF7FFB2";
shapes = (
{
closed = 1;
nodes = (
(776,-16,o),
(950,214,o),
(950,550,cs),
(950,886,o),
(774,1116,o),
(506,1116,cs),
(232,1116,o),
(44,888,o),
(44,554,cs),
(44,216,o),
(234,-16,o),
(508,-16,cs)
);
},
{
closed = 1;
nodes = (
(424,272,o),
(368,376,o),
(368,548,cs),
(368,718,o),
(424,824,o),
(516,824,cs),
(610,824,o),
(666,720,o),
(666,550,cs),
(666,378,o),
(610,272,o),
(518,272,cs)
);
},
{
closed = 1;
nodes = (
(1284,-16,o),
(1422,14,o),
(1490,56,c),
(1368,316,l),
(1338,282,o),
(1260,254,o),
(1188,254,cs),
(1036,254,o),
(956,382,o),
(956,574,cs),
(956,748,o),
(1022,852,o),
(1122,852,cs),
(1206,852,o),
(1258,778,o),
(1260,648,c),
(916,648,l),
(916,444,l),
(1538,444,l),
(1544,476,o),
(1550,540,o),
(1550,592,cs),
(1550,910,o),
(1394,1116,o),
(1132,1116,cs),
(848,1116,o),
(706,876,o),
(706,554,cs),
(706,210,o),
(870,-16,o),
(1176,-16,cs)
);
}
);
width = 1594;
},
{
anchors = (
{
name = top;
pos = (850,1080);
}
);
layerId = "FD1CEFBD-BAB1-4C2A-A598-30E93F9A29F6";
shapes = (
{
closed = 1;
nodes = (
(760,-16,o),
(922,204,o),
(922,542,cs),
(922,874,o),
(758,1096,o),
(502,1096,cs),
(250,1096,o),
(84,878,o),
(84,548,cs),
(84,208,o),
(254,-16,o),
(512,-16,cs)
);
},
{
closed = 1;
nodes = (
(352,140,o),
(248,300,o),
(248,542,cs),
(248,782,o),
(350,940,o),
(512,940,cs),
(670,940,o),
(776,780,o),
(776,534,cs),
(776,298,o),
(674,140,o),
(514,140,cs)
);
},
{
closed = 1;
nodes = (
(1320,-16,o),
(1438,24,o),
(1516,82,c),
(1454,234,l),
(1386,174,o),
(1294,140,o),
(1214,140,cs),
(1040,140,o),
(924,296,o),
(924,540,cs),
(924,780,o),
(1026,940,o),
(1180,940,cs),
(1316,940,o),
(1406,814,o),
(1404,612,c),
(896,612,l),
(896,472,l),
(1550,472,l),
(1554,496,o),
(1558,538,o),
(1558,590,cs),
(1558,896,o),
(1410,1096,o),
(1182,1096,cs),
(942,1096,o),
(788,874,o),
(788,546,cs),
(788,206,o),
(954,-16,o),
(1210,-16,cs)
);
}
);
width = 1642;
}
);
metricLeft = o;
metricRight = e;
unicode = 339;
},
{
color = 3;
glyphname = p;
kernLeft = LAT_P_LC;
kernRight = LAT_O_LC;
lastChange = "2023-11-23 10:09:18 +0000";
layers = (
{
anchors = (
{
name = bottom;
pos = (190,-420);
},
{
name = top;
pos = (540,1068);
}
);
layerId = "AB099EFE-E788-4EFC-8633-CF147CB782A6";
shapes = (
{
closed = 1;
nodes = (
(220,-420,l),
(220,224,l),
(242,224,l),
(212,330,l),
(212,748,l),
(248,848,l),
(220,848,l),
(220,1068,l),
(160,1068,l),
(160,-420,l)
);
},
{
pos = (8,0);
ref = _part.bowl;
}
);
width = 1054;
},
{
anchors = (
{
name = bottom;
pos = (252,-420);
},
{
name = top;
pos = (558,1100);
}
);
layerId = "2D8F7115-C311-411E-929D-56333CF7FFB2";
shapes = (
{
closed = 1;
nodes = (
(432,-420,l),
(432,96,l),
(484,96,l),
(412,214,l),
(412,862,l),
(454,980,l),
(412,980,l),
(412,1100,l),
(80,1100,l),
(80,-420,l)
);
},
{
pos = (4,0);
ref = _part.bowl;
}
);
width = 1100;
},
{
anchors = (
{
name = bottom;
pos = (218,-420);
},
{
name = top;
pos = (550,1080);
}
);
layerId = "FD1CEFBD-BAB1-4C2A-A598-30E93F9A29F6";
shapes = (
{
closed = 1;
nodes = (
(296,-420,l),
(296,124,l),
(326,124,l),
(274,268,l),
(274,818,l),
(318,960,l),
(296,960,l),
(296,1080,l),
(128,1080,l),
(128,-420,l)
);
},
{
alignment = -1;
pos = (4,0);
ref = _part.bowl;
}
);
width = 1062;
}
);
metricRight = o;
unicode = 112;
},
{
color = 3;
glyphname = p.ss01;
kernLeft = LAT_P_LC;
kernRight = LAT_O_LC;
lastChange = "2023-11-23 10:09:18 +0000";
layers = (
{
anchors = (
{
name = bottom;
pos = (190,-420);
},
{
name = top;
pos = (540,1048);
}
);
layerId = "AB099EFE-E788-4EFC-8633-CF147CB782A6";
shapes = (
{
closed = 1;
nodes = (
(220,-420,l),
(220,228,l),
(244,228,l),
(216,304,l),
(216,756,l),
(238,840,l),
(220,840,l),
(220,1068,l),
(160,1068,l),
(160,-420,l)
);
},
{
pos = (4,0);
ref = _part.bowl.ss01;
}
);
width = 1068;
},
{
anchors = (
{
name = bottom;
pos = (252,-420);
},
{
name = top;
pos = (558,1080);
}
);
layerId = "2D8F7115-C311-411E-929D-56333CF7FFB2";
shapes = (
{
closed = 1;
nodes = (
(432,-420,l),
(432,96,l),
(456,96,l),
(412,214,l),
(412,866,l),
(456,960,l),
(410,960,l),
(410,1100,l),
(80,1100,l),
(80,-420,l)
);
},
{
pos = (4,0);
ref = _part.bowl.ss01;
}
);
width = 1108;
},
{
anchors = (
{
name = bottom;
pos = (214,-420);
},
{
name = top;
pos = (550,1060);
}
);
layerId = "FD1CEFBD-BAB1-4C2A-A598-30E93F9A29F6";
shapes = (
{
closed = 1;
nodes = (
(292,-420,l),
(292,154,l),
(316,154,l),
(284,274,l),
(284,832,l),
(310,928,l),
(292,928,l),
(292,1080,l),
(124,1080,l),
(124,-420,l)
);
},
{
alignment = -1;
pos = (-6,0);
ref = _part.bowl.ss01;
}
);
width = 1074;
}
);
metricRight = o.ss01;
},
{
color = 3;
glyphname = thorn;
kernLeft = LAT_L_LC;
kernRight = LAT_O_LC;
lastChange = "2023-11-23 10:09:18 +0000";
layers = (
{
anchors = (
{
name = bottom;
pos = (554,-4);
},
{
name = top;
pos = (190,1540);
}
);
layerId = "AB099EFE-E788-4EFC-8633-CF147CB782A6";
shapes = (
{
closed = 1;
nodes = (
(220,-420,l),
(220,224,l),
(244,224,l),
(212,330,l),
(212,770,l),
(240,852,l),
(220,852,l),
(220,1540,l),
(160,1540,l),
(160,-420,l)
);
},
{
pos = (8,0);
ref = _part.bowl;
}
);
width = 1054;
},
{
anchors = (
{
name = bottom;
pos = (654,0);
},
{
name = top;
pos = (254,1540);
}
);
layerId = "2D8F7115-C311-411E-929D-56333CF7FFB2";
shapes = (
{
closed = 1;
nodes = (
(436,-420,l),
(436,96,l),
(488,96,l),
(416,214,l),
(416,888,l),
(460,1008,l),
(436,1008,l),
(436,1540,l),
(84,1540,l),
(84,-420,l)
);
},
{
pos = (10,0);
ref = _part.bowl;
}
);
width = 1106;
},
{
anchors = (
{
name = bottom;
pos = (588,0);
},
{
name = top;
pos = (212,1518);
}
);
layerId = "FD1CEFBD-BAB1-4C2A-A598-30E93F9A29F6";
shapes = (
{
closed = 1;
nodes = (
(296,-420,l),
(296,124,l),
(324,124,l),
(274,268,l),
(274,802,l),
(318,960,l),
(296,960,l),
(296,1540,l),
(128,1540,l),
(128,-420,l)
);
},
{
alignment = -1;
pos = (4,0);
ref = _part.bowl;
}
);
width = 1062;
}
);
metricLeft = h;
metricRight = p;
unicode = 254;
},
{
color = 3;
glyphname = thorn.ss01;
kernLeft = LAT_L_LC;
kernRight = LAT_O_LC;
lastChange = "2023-11-23 10:09:18 +0000";
layers = (
{
anchors = (
{
name = bottom;
pos = (586,0);
},
{
name = top;
pos = (190,1540);
}
);
layerId = "AB099EFE-E788-4EFC-8633-CF147CB782A6";
shapes = (
{
closed = 1;
nodes = (
(220,-420,l),
(220,228,l),
(244,228,l),
(216,330,l),
(216,764,l),
(240,840,l),
(220,840,l),
(220,1540,l),
(160,1540,l),
(160,-420,l)
);
},
{
pos = (4,0);
ref = _part.bowl.ss01;
}
);
width = 1068;
},
{
anchors = (
{
name = bottom;
pos = (690,0);
},
{
name = top;
pos = (250,1540);
}
);
layerId = "2D8F7115-C311-411E-929D-56333CF7FFB2";
shapes = (
{
closed = 1;
nodes = (
(436,-420,l),
(436,88,l),
(488,88,l),
(408,214,l),
(408,888,l),
(460,1016,l),
(436,1016,l),
(436,1540,l),
(84,1540,l),
(84,-420,l)
);
},
{
ref = _part.bowl.ss01;
}
);
width = 1104;
},
{
anchors = (
{
name = bottom;
pos = (616,0);
},
{
name = top;
pos = (210,1518);
}
);
layerId = "FD1CEFBD-BAB1-4C2A-A598-30E93F9A29F6";
shapes = (
{
closed = 1;
nodes = (
(296,-420,l),
(296,148,l),
(336,148,l),
(280,254,l),
(280,816,l),
(324,928,l),
(296,928,l),
(296,1540,l),
(128,1540,l),
(128,-420,l)
);
},
{
alignment = -1;
pos = (-4,0);
ref = _part.bowl.ss01;
}
);
width = 1076;
}
);
metricLeft = h;
metricRight = o.ss01;
},
{
color = 3;
glyphname = q;
kernLeft = LAT_O_LC;
kernRight = LAT_Q_LC;
lastChange = "2023-11-23 10:09:18 +0000";
layers = (
{
anchors = (
{
name = bottom;
pos = (866,-420);
},
{
name = top;
pos = (500,1068);
}
);
layerId = "AB099EFE-E788-4EFC-8633-CF147CB782A6";
shapes = (
{
closed = 1;
nodes = (
(974,-380,l),
(920,-348,o),
(894,-282,o),
(894,-188,cs),
(894,1068,l),
(834,1068,l),
(834,848,l),
(812,848,l),
(842,782,l),
(842,296,l),
(820,224,l),
(834,224,l),
(834,-194,ls),
(834,-320,o),
(866,-384,o),
(950,-436,c)
);
},
{
pos = (1046,0);
ref = _part.bowl;
scale = (-1,1);
}
);
width = 1062;
},
{
anchors = (
{
name = bottom;
pos = (838,-420);
},
{
name = top;
pos = (462,1100);
}
);
layerId = "2D8F7115-C311-411E-929D-56333CF7FFB2";
shapes = (
{
closed = 1;
nodes = (
(1094,-150,l),
(1046,-130,o),
(1022,-108,o),
(1022,-28,cs),
(1022,1100,l),
(690,1100,l),
(690,980,l),
(662,980,l),
(686,856,l),
(686,174,l),
(620,96,l),
(670,96,l),
(670,-62,ls),
(670,-238,o),
(772,-358,o),
(970,-436,c)
);
},
{
pos = (1096,0);
ref = _part.bowl;
scale = (-1,1);
}
);
width = 1106;
},
{
anchors = (
{
name = bottom;
pos = (866,-420);
},
{
name = top;
pos = (492,1080);
}
);
layerId = "FD1CEFBD-BAB1-4C2A-A598-30E93F9A29F6";
shapes = (
{
closed = 1;
nodes = (
(1004,-286,l),
(942,-256,o),
(934,-218,o),
(934,-100,cs),
(934,1080,l),
(766,1080,l),
(766,960,l),
(734,960,l),
(780,814,l),
(780,236,l),
(738,124,l),
(766,124,l),
(766,-152,ls),
(766,-292,o),
(818,-380,o),
(942,-436,c)
);
},
{
alignment = -1;
pos = (1058,0);
ref = _part.bowl;
scale = (-1,1);
}
);
width = 1074;
}
);
metricLeft = o;
unicode = 113;
},
{
color = 6;
glyphname = r;
kernLeft = LAT_N_LC;
kernRight = LAT_R_LC;
lastChange = "2023-11-23 10:09:18 +0000";
layers = (
{
anchors = (
{
name = bottom;
pos = (190,0);
},
{
name = top;
pos = (346,1068);
}
);
guides = (
{
angle = 67.5;
pos = (156,-220);
}
);
layerId = "AB099EFE-E788-4EFC-8633-CF147CB782A6";
shapes = (
{
closed = 1;
nodes = (
(220,0,l),
(220,656,ls),
(220,872,o),
(392,1028,o),
(508,1028,cs),
(530,1028,o),
(544,1024,o),
(566,1016,c),
(590,1072,l),
(570,1082,o),
(540,1084,o),
(518,1084,cs),
(394,1084,o),
(270,982,o),
(206,828,c),
(242,868,l),
(220,868,l),
(220,1068,l),
(160,1068,l),
(160,0,l)
);
}
);
width = 626;
},
{
anchors = (
{
name = bottom;
pos = (258,0);
},
{
name = top;
pos = (394,1100);
}
);
guides = (
{
angle = 67.5;
pos = (824,1088);
}
);
layerId = "2D8F7115-C311-411E-929D-56333CF7FFB2";
shapes = (
{
closed = 1;
nodes = (
(432,0,l),
(432,552,ls),
(432,710,o),
(506,776,o),
(580,776,cs),
(616,776,o),
(658,760,o),
(670,746,c),
(814,1092,l),
(798,1104,o),
(746,1116,o),
(692,1116,cs),
(516,1116,o),
(420,974,o),
(386,872,c),
(448,950,l),
(416,950,l),
(416,1100,l),
(80,1100,l),
(80,0,l)
);
}
);
width = 798;
},
{
anchors = (
{
name = bottom;
pos = (212,0);
},
{
name = top;
pos = (360,1080);
}
);
guides = (
{
angle = 67.5;
pos = (876,1536);
}
);
layerId = "FD1CEFBD-BAB1-4C2A-A598-30E93F9A29F6";
shapes = (
{
closed = 1;
nodes = (
(296,0,l),
(296,618,ls),
(296,836,o),
(432,922,o),
(532,922,cs),
(558,922,o),
(588,918,o),
(598,914,c),
(668,1082,l),
(654,1088,o),
(608,1096,o),
(572,1096,cs),
(416,1096,o),
(314,998,o),
(272,868,c),
(324,934,l),
(296,934,l),
(296,1080,l),
(128,1080,l),
(128,0,l)
);
}
);
width = 680;
}
);
metricLeft = n;
unicode = 114;
},
{
color = 6;
glyphname = s;
kernLeft = LAT_S_LC;
kernRight = LAT_S_LC;
lastChange = "2023-11-23 10:09:18 +0000";
layers = (
{
anchors = (
{
name = bottom;
pos = (380,0);
},
{
name = cedilla;
pos = (388,0);
},
{
name = top;
pos = (378,1068);
}
);
background = {
shapes = (
{
closed = 1;
nodes = (
(550,-16,o),
(680,96,o),
(680,272,cs),
(680,480,o),
(508,536,o),
(398,578,cs),
(308,612,o),
(196,658,o),
(192,804,cs),
(190,934,o),
(270,1008,o),
(376,1008,cs),
(474,1008,o),
(556,944,o),
(592,862,c),
(648,884,l),
(600,994,o),
(498,1064,o),
(378,1064,cs),
(240,1064,o),
(132,960,o),
(132,814,cs),
(132,640,o),
(284,554,o),
(384,522,cs),
(464,496,o),
(620,442,o),
(620,272,cs),
(620,138,o),
(518,40,o),
(404,40,cs),
(290,40,o),
(200,128,o),
(164,232,c),
(104,208,l),
(144,94,o),
(252,-16,o),
(404,-16,cs)
);
}
);
};
layerId = "AB099EFE-E788-4EFC-8633-CF147CB782A6";
shapes = (
{
closed = 1;
nodes = (
(566,-16,o),
(682,106,o),
(682,274,cs),
(682,436,o),
(576,514,o),
(420,580,cs),
(260,648,o),
(182,720,o),
(182,832,cs),
(182,944,o),
(260,1028,o),
(378,1028,cs),
(464,1028,o),
(562,984,o),
(612,918,c),
(636,974,l),
(588,1040,o),
(480,1084,o),
(380,1084,cs),
(226,1084,o),
(122,980,o),
(122,832,cs),
(122,692,o),
(214,608,o),
(366,542,cs),
(540,466,o),
(622,398,o),
(622,272,cs),
(622,142,o),
(532,40,o),
(402,40,cs),
(292,40,o),
(176,114,o),
(114,208,c),
(88,146,l),
(152,50,o),
(276,-16,o),
(398,-16,cs)
);
}
);
width = 786;
},
{
anchors = (
{
name = bottom;
pos = (438,0);
},
{
name = cedilla;
pos = (458,0);
},
{
name = top;
pos = (446,1100);
}
);
layerId = "2D8F7115-C311-411E-929D-56333CF7FFB2";
shapes = (
{
closed = 1;
nodes = (
(670,-16,o),
(848,120,o),
(848,328,cs),
(848,500,o),
(728,600,o),
(554,660,cs),
(434,702,o),
(408,726,o),
(408,764,cs),
(408,808,o),
(456,830,o),
(496,830,cs),
(552,830,o),
(644,792,o),
(690,746,c),
(814,1004,l),
(720,1074,o),
(594,1116,o),
(472,1116,cs),
(252,1116,o),
(76,984,o),
(76,782,cs),
(76,606,o),
(210,508,o),
(364,456,cs),
(474,418,o),
(516,388,o),
(516,344,cs),
(516,306,o),
(486,274,o),
(420,274,cs),
(324,274,o),
(226,334,o),
(156,406,c),
(44,124,l),
(142,46,o),
(298,-16,o),
(448,-16,cs)
);
}
);
width = 892;
},
{
anchors = (
{
name = bottom;
pos = (396,0);
},
{
name = cedilla;
pos = (406,0);
},
{
name = top;
pos = (400,1080);
}
);
background = {
shapes = (
{
closed = 1;
nodes = (
(594,-16,o),
(726,112,o),
(726,288,cs),
(726,452,o),
(614,564,o),
(454,610,cs),
(318,650,o),
(260,706,o),
(260,792,cs),
(260,866,o),
(312,924,o),
(398,924,cs),
(480,924,o),
(566,876,o),
(630,800,c),
(692,954,l),
(620,1030,o),
(506,1076,o),
(396,1076,cs),
(220,1076,o),
(96,964,o),
(96,802,cs),
(96,652,o),
(202,526,o),
(364,480,cs),
(504,440,o),
(562,374,o),
(562,292,cs),
(562,206,o),
(496,136,o),
(406,136,cs),
(320,136,o),
(216,198,o),
(132,302,c),
(60,146,l),
(152,48,o),
(290,-16,o),
(416,-16,cs)
);
}
);
};
layerId = "FD1CEFBD-BAB1-4C2A-A598-30E93F9A29F6";
shapes = (
{
closed = 1;
nodes = (
(598,-16,o),
(736,114,o),
(736,294,cs),
(736,464,o),
(618,566,o),
(462,618,cs),
(324,664,o),
(260,722,o),
(260,808,cs),
(260,888,o),
(322,944,o),
(408,944,cs),
(488,944,o),
(576,900,o),
(636,828,c),
(698,976,l),
(630,1050,o),
(514,1096,o),
(404,1096,cs),
(230,1096,o),
(96,984,o),
(96,816,cs),
(96,660,o),
(212,546,o),
(368,494,cs),
(506,448,o),
(572,388,o),
(572,296,cs),
(572,206,o),
(502,136,o),
(408,136,cs),
(320,136,o),
(212,198,o),
(132,298,c),
(64,146,l),
(154,46,o),
(292,-16,o),
(416,-16,cs)
);
}
);
width = 816;
},
{
anchors = (
{
name = bottom;
pos = (417,0);
},
{
name = cedilla;
pos = (432,0);
},
{
name = top;
pos = (430,1088);
}
);
associatedMasterId = "FD1CEFBD-BAB1-4C2A-A598-30E93F9A29F6";
attr = {
coordinates = (
124
);
};
background = {
shapes = (
{
closed = 1;
nodes = (
(622,-16,o),
(772,114,o),
(772,302,cs),
(772,480,o),
(636,574,o),
(500,624,cs),
(370,672,o),
(312,702,o),
(312,776,cs),
(312,846,o),
(362,884,o),
(432,882,cs),
(508,882,o),
(594,838,o),
(650,776,c),
(740,966,l),
(668,1032,o),
(550,1082,o),
(428,1082,cs),
(248,1082,o),
(92,974,o),
(92,780,cs),
(92,608,o),
(216,512,o),
(370,458,cs),
(496,414,o),
(552,380,o),
(552,306,cs),
(552,238,o),
(502,184,o),
(422,184,cs),
(328,184,o),
(220,256,o),
(148,340,c),
(56,138,l),
(144,50,o),
(290,-16,o),
(428,-16,cs)
);
}
);
};
layerId = "108E7A61-51CD-41A8-9EFA-58AF1D8DF4AC";
name = "{124}";
shapes = (
{
closed = 1;
nodes = (
(630,-16,o),
(782,116,o),
(782,306,cs),
(782,488,o),
(644,590,o),
(500,638,cs),
(368,682,o),
(320,724,o),
(320,790,cs),
(320,858,o),
(374,900,o),
(442,900,cs),
(518,900,o),
(608,850,o),
(658,792,c),
(750,986,l),
(672,1056,o),
(552,1104,o),
(432,1104,cs),
(246,1104,o),
(94,988,o),
(94,800,cs),
(94,636,o),
(210,528,o),
(372,474,cs),
(486,436,o),
(554,390,o),
(554,314,cs),
(554,246,o),
(502,190,o),
(422,190,cs),
(336,190,o),
(228,254,o),
(150,346,c),
(60,140,l),
(148,52,o),
(296,-16,o),
(436,-16,cs)
);
}
);
width = 844;
}
);
unicode = 115;
userData = {
com.typemytype.robofont.layerData = {
background = {
anchors = (
);
components = (
);
contours = (
{
points = (
{
segmentType = curve;
smooth = 1;
x = 213;
y = -12;
},
{
smooth = 0;
x = 318;
y = -12;
},
{
smooth = 0;
x = 376;
y = 50;
},
{
segmentType = curve;
smooth = 1;
x = 376;
y = 120;
},
{
smooth = 0;
x = 376;
y = 214;
},
{
smooth = 0;
x = 288;
y = 237;
},
{
segmentType = curve;
smooth = 1;
x = 208;
y = 266;
},
{
smooth = 0;
x = 147;
y = 288;
},
{
smooth = 0;
x = 85;
y = 310;
},
{
segmentType = curve;
smooth = 1;
x = 85;
y = 368;
},
{
smooth = 0;
x = 85;
y = 415;
},
{
smooth = 0;
x = 124;
y = 462;
},
{
segmentType = curve;
smooth = 1;
x = 208;
y = 462;
},
{
smooth = 0;
x = 253;
y = 462;
},
{
smooth = 0;
x = 284;
y = 448;
},
{
segmentType = curve;
smooth = 1;
x = 314;
y = 429;
},
{
smooth = 0;
x = 325;
y = 422;
},
{
smooth = 0;
x = 336;
y = 423;
},
{
segmentType = curve;
smooth = 1;
x = 343;
y = 434;
},
{
segmentType = line;
smooth = 1;
x = 346;
y = 439;
},
{
smooth = 0;
x = 347;
y = 441;
},
{
smooth = 0;
x = 347;
y = 443;
},
{
segmentType = curve;
smooth = 1;
x = 345;
y = 444;
},
{
smooth = 0;
x = 311;
y = 468;
},
{
smooth = 0;
x = 257;
y = 490;
},
{
segmentType = curve;
smooth = 1;
x = 211;
y = 490;
},
{
smooth = 0;
x = 108;
y = 490;
},
{
smooth = 0;
x = 54;
y = 432;
},
{
segmentType = curve;
smooth = 1;
x = 54;
y = 366;
},
{
smooth = 0;
x = 54;
y = 284;
},
{
smooth = 0;
x = 141;
y = 256;
},
{
segmentType = curve;
smooth = 1;
x = 218;
y = 230;
},
{
smooth = 0;
x = 277;
y = 210;
},
{
smooth = 0;
x = 344;
y = 182;
},
{
segmentType = curve;
smooth = 1;
x = 344;
y = 118;
},
{
smooth = 0;
x = 344;
y = 64;
},
{
smooth = 0;
x = 300;
y = 16;
},
{
segmentType = curve;
smooth = 1;
x = 215;
y = 16;
},
{
smooth = 0;
x = 148;
y = 16;
},
{
smooth = 0;
x = 105;
y = 37;
},
{
segmentType = curve;
smooth = 1;
x = 66;
y = 65;
},
{
smooth = 0;
x = 55;
y = 73;
},
{
smooth = 0;
x = 45;
y = 74;
},
{
segmentType = curve;
smooth = 1;
x = 37;
y = 63;
},
{
segmentType = line;
smooth = 1;
x = 33;
y = 57;
},
{
smooth = 0;
x = 32;
y = 55;
},
{
smooth = 0;
x = 32;
y = 53;
},
{
segmentType = curve;
smooth = 1;
x = 34;
y = 51;
},
{
smooth = 0;
x = 73;
y = 12;
},
{
smooth = 0;
x = 139;
y = -12;
}
);
}
);
lib = {
};
name = s;
unicodes = (
);
width = 439;
};
};
};
},
{
color = 6;
glyphname = germandbls;
kernLeft = LAT_L_LC;
kernRight = LAT_GERMANDBLS_LC;
lastChange = "2023-11-23 10:10:50 +0000";
layers = (
{
layerId = "AB099EFE-E788-4EFC-8633-CF147CB782A6";
shapes = (
{
closed = 1;
nodes = (
(744,-16,o),
(894,196,o),
(894,418,cs),
(894,672,o),
(718,864,o),
(486,852,c),
(486,824,l),
(664,812,o),
(800,972,o),
(800,1188,cs),
(800,1410,o),
(662,1556,o),
(476,1556,cs),
(288,1556,o),
(160,1398,o),
(160,1178,cs),
(160,0,l),
(220,0,l),
(220,1190,ls),
(220,1366,o),
(334,1500,o),
(480,1500,cs),
(630,1500,o),
(740,1364,o),
(740,1184,cs),
(740,1004,o),
(624,870,o),
(472,870,cs),
(412,870,l),
(412,814,l),
(440,814,ls),
(664,814,o),
(834,654,o),
(834,418,cs),
(834,220,o),
(706,40,o),
(514,40,cs),
(458,40,o),
(400,56,o),
(366,68,c),
(366,8,l),
(408,-8,o),
(478,-16,o),
(522,-16,cs)
);
}
);
width = 1018;
},
{
layerId = "2D8F7115-C311-411E-929D-56333CF7FFB2";
shapes = (
{
closed = 1;
nodes = (
(962,-16,o),
(1138,144,o),
(1138,402,cs),
(1138,650,o),
(976,806,o),
(716,802,c),
(716,746,l),
(842,746,o),
(1026,882,o),
(1026,1130,cs),
(1026,1380,o),
(840,1556,o),
(570,1556,cs),
(280,1556,o),
(84,1352,o),
(84,1058,cs),
(84,0,l),
(436,0,l),
(436,1066,ls),
(436,1186,o),
(496,1260,o),
(588,1260,cs),
(666,1260,o),
(724,1206,o),
(724,1104,cs),
(724,998,o),
(666,926,o),
(588,926,cs),
(540,926,l),
(540,612,l),
(626,612,ls),
(738,612,o),
(792,546,o),
(792,430,cs),
(792,330,o),
(744,274,o),
(660,274,cs),
(636,274,o),
(572,280,o),
(542,290,c),
(542,-10,l),
(590,-14,o),
(640,-16,o),
(672,-16,cs)
);
}
);
width = 1186;
},
{
layerId = "FD1CEFBD-BAB1-4C2A-A598-30E93F9A29F6";
shapes = (
{
closed = 1;
nodes = (
(798,-16,o),
(980,170,o),
(980,422,cs),
(980,676,o),
(796,848,o),
(580,838,c),
(580,788,l),
(746,782,o),
(884,948,o),
(884,1176,cs),
(884,1406,o),
(742,1556,o),
(506,1556,cs),
(272,1556,o),
(128,1408,o),
(128,1134,cs),
(128,0,l),
(296,0,l),
(296,1120,ls),
(296,1306,o),
(378,1400,o),
(512,1400,cs),
(644,1400,o),
(716,1306,o),
(716,1158,cs),
(716,996,o),
(628,884,o),
(512,884,cs),
(458,884,l),
(458,734,l),
(508,734,ls),
(696,734,o),
(808,602,o),
(812,426,cs),
(816,258,o),
(716,140,o),
(550,140,cs),
(520,140,o),
(466,144,o),
(426,154,c),
(426,-4,l),
(466,-12,o),
(520,-16,o),
(556,-16,cs)
);
}
);
width = 1076;
}
);
metricLeft = h;
metricRight = B;
unicode = 223;
},
{
color = 6;
glyphname = t;
kernLeft = LAT_T_LC;
kernRight = LAT_T_LC;
lastChange = "2023-11-23 10:09:18 +0000";
layers = (
{
anchors = (
{
name = bottom;
pos = (412,0);
},
{
name = cedilla;
pos = (432,0);
},
{
name = center;
pos = (272,524);
},
{
name = top;
pos = (272,1414);
},
{
name = topright;
pos = (328,1582);
}
);
guides = (
{
angle = 112.5;
pos = (452,-32);
}
);
layerId = "AB099EFE-E788-4EFC-8633-CF147CB782A6";
shapes = (
{
closed = 1;
nodes = (
(490,-12,o),
(524,-8,o),
(556,8,c),
(532,60,l),
(508,48,o),
(478,44,o),
(456,44,cs),
(350,44,o),
(300,136,o),
(300,274,cs),
(300,1414,l),
(240,1414,l),
(240,286,ls),
(240,98,o),
(308,-12,o),
(458,-12,cs)
);
},
{
closed = 1;
nodes = (
(546,1012,l),
(546,1068,l),
(88,1068,l),
(88,1012,l)
);
}
);
width = 656;
},
{
anchors = (
{
name = bottom;
pos = (542,0);
},
{
name = cedilla;
pos = (566,0);
},
{
name = center;
pos = (382,540);
},
{
name = top;
pos = (378,1380);
},
{
name = topright;
pos = (552,1730);
}
);
guides = (
{
angle = 149.6568;
pos = (426,-12);
}
);
layerId = "2D8F7115-C311-411E-929D-56333CF7FFB2";
shapes = (
{
closed = 1;
nodes = (
(702,-16,o),
(798,0,o),
(862,28,c),
(750,304,l),
(724,292,o),
(694,282,o),
(664,282,cs),
(598,282,o),
(552,322,o),
(552,408,cs),
(552,1380,l),
(200,1380,l),
(200,408,ls),
(200,160,o),
(330,-16,o),
(614,-16,cs)
);
},
{
closed = 1;
nodes = (
(798,800,l),
(798,1100,l),
(16,1100,l),
(16,800,l)
);
}
);
width = 878;
},
{
anchors = (
{
name = bottom;
pos = (446,0);
},
{
name = cedilla;
pos = (468,0);
},
{
name = center;
pos = (306,536);
},
{
name = top;
pos = (304,1402);
},
{
name = topright;
pos = (420,1628);
}
);
background = {
shapes = (
{
closed = 1;
nodes = (
(582,-16,o),
(632,0,o),
(672,16,c),
(606,168,l),
(582,156,o),
(554,144,o),
(520,144,cs),
(440,144,o),
(386,202,o),
(386,312,cs),
(386,1400,l),
(214,1400,l),
(214,294,ls),
(214,112,o),
(316,-16,o),
(516,-16,cs)
);
},
{
closed = 1;
nodes = (
(648,904,l),
(648,1060,l),
(38,1060,l),
(38,904,l)
);
}
);
};
layerId = "FD1CEFBD-BAB1-4C2A-A598-30E93F9A29F6";
shapes = (
{
closed = 1;
nodes = (
(558,-16,o),
(606,2,o),
(640,16,c),
(578,164,l),
(556,150,o),
(530,140,o),
(506,140,cs),
(438,140,o),
(386,204,o),
(386,312,cs),
(386,1402,l),
(218,1402,l),
(218,296,ls),
(218,112,o),
(316,-16,o),
(496,-16,cs)
);
},
{
closed = 1;
nodes = (
(614,924,l),
(614,1080,l),
(52,1080,l),
(52,924,l)
);
}
);
width = 696;
}
);
unicode = 116;
},
{
color = 6;
glyphname = t.ss01;
kernLeft = LAT_T_LC;
kernRight = LAT_TSS01_LC;
lastChange = "2023-11-23 10:09:18 +0000";
layers = (
{
anchors = (
{
name = bottom;
pos = (310,0);
},
{
name = cedilla;
pos = (298,0);
},
{
name = center;
pos = (310,524);
},
{
name = top;
pos = (310,1414);
},
{
name = topright;
pos = (372,1540);
}
);
layerId = "AB099EFE-E788-4EFC-8633-CF147CB782A6";
shapes = (
{
closed = 1;
nodes = (
(340,0,l),
(340,1414,l),
(280,1414,l),
(280,0,l)
);
},
{
closed = 1;
nodes = (
(548,1012,l),
(548,1068,l),
(72,1068,l),
(72,1012,l)
);
}
);
width = 620;
},
{
anchors = (
{
name = bottom;
pos = (378,0);
},
{
name = cedilla;
pos = (408,0);
},
{
name = center;
pos = (376,540);
},
{
name = top;
pos = (376,1380);
},
{
name = topright;
pos = (516,1726);
}
);
layerId = "2D8F7115-C311-411E-929D-56333CF7FFB2";
shapes = (
{
closed = 1;
nodes = (
(552,0,l),
(552,1380,l),
(200,1380,l),
(200,0,l)
);
},
{
closed = 1;
nodes = (
(744,800,l),
(744,1100,l),
(8,1100,l),
(8,800,l)
);
}
);
width = 752;
},
{
anchors = (
{
name = bottom;
pos = (336,0);
},
{
name = cedilla;
pos = (340,0);
},
{
name = center;
pos = (334,532);
},
{
name = top;
pos = (336,1402);
},
{
name = topright;
pos = (424,1610);
}
);
layerId = "FD1CEFBD-BAB1-4C2A-A598-30E93F9A29F6";
shapes = (
{
closed = 1;
nodes = (
(420,0,l),
(420,1402,l),
(252,1402,l),
(252,0,l)
);
},
{
closed = 1;
nodes = (
(624,924,l),
(624,1080,l),
(48,1080,l),
(48,924,l)
);
}
);
width = 672;
}
);
},
{
color = 6;
glyphname = u;
kernLeft = LAT_U_LC;
kernRight = LAT_A_LC;
lastChange = "2023-11-23 10:09:18 +0000";
layers = (
{
anchors = (
{
name = bottom;
pos = (532,0);
},
{
name = horn;
pos = (792,1068);
},
{
name = ogonek;
pos = (878,-16);
},
{
name = top;
pos = (500,1068);
}
);
background = {
anchors = (
{
name = bottom;
pos = (456,0);
},
{
name = leghookretroflex;
pos = (172,1048);
},
{
name = leghookright;
pos = (786,1048);
},
{
name = top;
pos = (462,1048);
}
);
shapes = (
{
closed = 1;
nodes = (
(756,1048,l),
(756,336,ls),
(754,162,o),
(628,40,o),
(464,40,cs),
(302,42,o),
(204,160,o),
(204,332,cs),
(204,1048,l),
(144,1048,l),
(144,332,ls),
(144,130,o),
(268,-16,o),
(460,-16,cs),
(596,-16,o),
(724,58,o),
(766,182,c),
(728,152,l),
(756,152,l),
(756,0,l),
(816,0,l),
(816,1048,l)
);
}
);
};
guides = (
{
angle = 67.5;
pos = (638,-18);
}
);
layerId = "AB099EFE-E788-4EFC-8633-CF147CB782A6";
shapes = (
{
closed = 1;
nodes = (
(608,-16,o),
(742,80,o),
(784,224,c),
(742,174,l),
(792,174,l),
(764,230,l),
(766,104,o),
(796,25,o),
(878,-16,c),
(902,42,l),
(836,74,o),
(822,122,o),
(822,236,cs),
(822,1068,l),
(762,1068,l),
(762,356,ls),
(762,188,o),
(640,36,o),
(462,40,cs),
(308,44,o),
(212,164,o),
(212,336,cs),
(212,1068,l),
(152,1068,l),
(152,336,ls),
(152,134,o),
(276,-16,o),
(466,-16,cs)
);
}
);
width = 1018;
},
{
anchors = (
{
name = bottom;
pos = (588,0);
},
{
name = horn;
pos = (810,1100);
},
{
name = ogonek;
pos = (920,-16);
},
{
name = top;
pos = (540,1100);
}
);
background = {
shapes = (
{
angle = 180;
pos = (1052,1080);
ref = n;
}
);
};
guides = (
{
angle = 67.5;
pos = (522,0);
}
);
layerId = "2D8F7115-C311-411E-929D-56333CF7FFB2";
shapes = (
{
closed = 1;
nodes = (
(566,-16,o),
(696,78,o),
(734,220,c),
(622,130,l),
(744,130,l),
(678,204,l),
(680,98,o),
(782,15,o),
(920,-16,c),
(1056,274,l),
(996,300,o),
(980,328,o),
(980,396,cs),
(980,1100,l),
(628,1100,l),
(628,388,ls),
(628,324,o),
(588,272,o),
(528,272,cs),
(472,272,o),
(428,320,o),
(428,390,cs),
(428,1100,l),
(76,1100,l),
(76,346,ls),
(76,134,o),
(218,-16,o),
(416,-16,cs)
);
}
);
width = 1096;
},
{
anchors = (
{
name = bottom;
pos = (522,0);
},
{
name = horn;
pos = (788,1080);
},
{
name = ogonek;
pos = (894,-16);
},
{
name = top;
pos = (506,1080);
}
);
background = {
shapes = (
{
angle = 180;
pos = (996,1060);
ref = n;
}
);
};
layerId = "FD1CEFBD-BAB1-4C2A-A598-30E93F9A29F6";
shapes = (
{
closed = 1;
nodes = (
(590,-16,o),
(708,66,o),
(764,182,c),
(704,144,l),
(774,144,l),
(738,184,l),
(744,112,o),
(792,36,o),
(894,-16,c),
(960,136,l),
(906,162,o),
(878,204,o),
(878,254,cs),
(878,1080,l),
(710,1080,l),
(710,348,ls),
(710,226,o),
(612,136,o),
(492,136,cs),
(368,136,o),
(292,230,o),
(292,350,cs),
(292,1080,l),
(124,1080,l),
(124,348,ls),
(124,134,o),
(266,-16,o),
(450,-16,cs)
);
}
);
width = 1032;
}
);
unicode = 117;
},
{
color = 6;
glyphname = v;
kernLeft = LAT_V_LC;
kernRight = LAT_V_LC;
lastChange = "2023-11-23 10:09:18 +0000";
layers = (
{
anchors = (
{
name = bottom;
pos = (452,0);
},
{
name = top;
pos = (452,1068);
}
);
layerId = "AB099EFE-E788-4EFC-8633-CF147CB782A6";
shapes = (
{
closed = 1;
nodes = (
(482,0,l),
(832,1068,l),
(766,1068,l),
(550,376,l),
(456,80,l),
(448,80,l),
(354,376,l),
(138,1068,l),
(72,1068,l),
(422,0,l)
);
}
);
width = 904;
},
{
anchors = (
{
name = bottom;
pos = (522,0);
},
{
name = top;
pos = (522,1100);
}
);
layerId = "2D8F7115-C311-411E-929D-56333CF7FFB2";
shapes = (
{
closed = 1;
nodes = (
(696,0,l),
(1040,1100,l),
(670,1100,l),
(578,650,l),
(524,366,l),
(518,366,l),
(466,650,l),
(374,1100,l),
(4,1100,l),
(348,0,l)
);
}
);
width = 1044;
},
{
anchors = (
{
name = bottom;
pos = (476,0);
},
{
name = top;
pos = (476,1080);
}
);
layerId = "FD1CEFBD-BAB1-4C2A-A598-30E93F9A29F6";
shapes = (
{
closed = 1;
nodes = (
(558,0,l),
(912,1080,l),
(730,1080,l),
(556,478,l),
(482,228,l),
(474,228,l),
(400,478,l),
(226,1080,l),
(44,1080,l),
(398,0,l)
);
}
);
width = 956;
}
);
unicode = 118;
},
{
color = 6;
glyphname = w;
kernLeft = LAT_V_LC;
kernRight = LAT_V_LC;
lastChange = "2023-11-23 10:09:18 +0000";
layers = (
{
anchors = (
{
name = bottom;
pos = (672,0);
},
{
name = top;
pos = (672,1068);
}
);
layerId = "AB099EFE-E788-4EFC-8633-CF147CB782A6";
shapes = (
{
closed = 1;
nodes = (
(422,0,l),
(532,396,l),
(668,886,l),
(676,886,l),
(810,396,l),
(920,0,l),
(988,0,l),
(1262,1068,l),
(1196,1068,l),
(1042,432,l),
(954,72,l),
(950,72,l),
(858,418,l),
(690,1002,l),
(652,1002,l),
(484,418,l),
(394,72,l),
(390,72,l),
(302,432,l),
(148,1068,l),
(80,1068,l),
(354,0,l)
);
}
);
userData = {
RMXScaler = {
adjustSpace = 8;
height = 72;
weight = 8;
width = 80;
};
};
width = 1342;
},
{
anchors = (
{
name = bottom;
pos = (732,0);
},
{
name = top;
pos = (734,1100);
}
);
layerId = "2D8F7115-C311-411E-929D-56333CF7FFB2";
shapes = (
{
closed = 1;
nodes = (
(578,0,l),
(648,198,l),
(732,470,l),
(740,470,l),
(816,198,l),
(886,0,l),
(1162,0,l),
(1444,1100,l),
(1102,1100,l),
(1020,604,l),
(996,420,l),
(988,420,l),
(962,524,l),
(784,1064,l),
(680,1064,l),
(502,524,l),
(476,420,l),
(468,420,l),
(444,604,l),
(362,1100,l),
(20,1100,l),
(302,0,l)
);
}
);
userData = {
RMXScaler = {
adjustSpace = 20;
height = 73;
weight = -120;
width = 79;
};
};
width = 1464;
},
{
anchors = (
{
name = bottom;
pos = (694,0);
},
{
name = top;
pos = (694,1080);
}
);
layerId = "FD1CEFBD-BAB1-4C2A-A598-30E93F9A29F6";
shapes = (
{
closed = 1;
nodes = (
(480,0,l),
(568,296,l),
(688,688,l),
(696,688,l),
(816,296,l),
(904,0,l),
(1062,0,l),
(1324,1080,l),
(1154,1080,l),
(1030,512,l),
(978,236,l),
(970,236,l),
(904,480,l),
(740,998,l),
(646,998,l),
(480,480,l),
(416,236,l),
(408,236,l),
(354,512,l),
(232,1080,l),
(60,1080,l),
(322,0,l)
);
}
);
userData = {
RMXScaler = {
adjustSpace = 8;
height = 72;
weight = 8;
width = 80;
};
};
width = 1384;
}
);
unicode = 119;
userData = {
RMXScaler = {
source = W;
};
};
},
{
color = 6;
glyphname = w.ss03;
kernLeft = LAT_V_LC;
kernRight = LAT_V_LC;
lastChange = "2023-11-23 10:09:18 +0000";
layers = (
{
anchors = (
{
name = bottom;
pos = (682,0);
},
{
name = top;
pos = (682,1068);
}
);
layerId = "AB099EFE-E788-4EFC-8633-CF147CB782A6";
shapes = (
{
closed = 1;
nodes = (
(426,0,l),
(538,414,l),
(674,942,l),
(684,942,l),
(820,414,l),
(932,0,l),
(1006,0,l),
(1286,1068,l),
(1222,1068,l),
(1062,432,l),
(970,72,l),
(966,72,l),
(870,432,l),
(700,1068,l),
(658,1068,l),
(490,432,l),
(392,72,l),
(390,72,l),
(296,432,l),
(136,1068,l),
(72,1068,l),
(354,0,l)
);
}
);
width = 1358;
},
{
anchors = (
{
name = bottom;
pos = (728,0);
},
{
name = top;
pos = (728,1100);
}
);
background = {
shapes = (
{
pos = (-6,0);
ref = w;
}
);
};
layerId = "2D8F7115-C311-411E-929D-56333CF7FFB2";
shapes = (
{
closed = 1;
nodes = (
(602,0,l),
(680,316,l),
(726,538,l),
(732,538,l),
(776,316,l),
(854,0,l),
(1180,0,l),
(1452,1100,l),
(1096,1100,l),
(1030,634,l),
(998,374,l),
(990,374,l),
(938,662,l),
(840,1100,l),
(616,1100,l),
(518,662,l),
(466,374,l),
(458,374,l),
(426,634,l),
(358,1100,l),
(4,1100,l),
(278,0,l)
);
}
);
width = 1456;
},
{
anchors = (
{
name = bottom;
pos = (698,0);
},
{
name = top;
pos = (698,1080);
}
);
layerId = "FD1CEFBD-BAB1-4C2A-A598-30E93F9A29F6";
shapes = (
{
closed = 1;
nodes = (
(492,0,l),
(600,394,l),
(694,764,l),
(702,764,l),
(796,394,l),
(904,0,l),
(1072,0,l),
(1352,1080,l),
(1172,1080,l),
(1050,524,l),
(986,218,l),
(978,218,l),
(896,524,l),
(752,1080,l),
(644,1080,l),
(500,524,l),
(418,218,l),
(410,218,l),
(346,524,l),
(224,1080,l),
(44,1080,l),
(324,0,l)
);
}
);
width = 1396;
}
);
metricLeft = v;
metricRight = v;
},
{
color = 6;
glyphname = x;
kernLeft = LAT_X_LC;
kernRight = LAT_X_LC;
lastChange = "2023-11-23 10:09:18 +0000";
layers = (
{
anchors = (
{
name = bottom;
pos = (444,0);
},
{
name = top;
pos = (444,1068);
}
);
layerId = "AB099EFE-E788-4EFC-8633-CF147CB782A6";
shapes = (
{
closed = 1;
nodes = (
(160,0,l),
(440,488,l),
(450,488,l),
(486,530,l),
(486,538,l),
(800,1068,l),
(728,1068,l),
(446,578,l),
(436,578,l),
(400,538,l),
(400,530,l),
(86,0,l)
);
},
{
closed = 1;
nodes = (
(800,0,l),
(486,530,l),
(486,538,l),
(450,578,l),
(440,578,l),
(158,1068,l),
(86,1068,l),
(400,538,l),
(400,530,l),
(436,488,l),
(446,488,l),
(726,0,l)
);
}
);
userData = {
RMXScaler = {
height = 71;
weight = 16;
width = 73.5;
};
};
width = 886;
},
{
anchors = (
{
name = bottom;
pos = (516,0);
},
{
name = top;
pos = (516,1100);
}
);
layerId = "2D8F7115-C311-411E-929D-56333CF7FFB2";
shapes = (
{
closed = 1;
nodes = (
(364,0,l),
(512,328,l),
(522,328,l),
(728,550,l),
(728,554,l),
(1028,1100,l),
(672,1100,l),
(518,750,l),
(512,750,l),
(300,550,l),
(300,546,l),
(0,0,l)
);
},
{
closed = 1;
nodes = (
(1024,0,l),
(728,546,l),
(728,550,l),
(518,750,l),
(512,750,l),
(356,1100,l),
(4,1100,l),
(300,554,l),
(300,550,l),
(508,328,l),
(518,328,l),
(664,0,l)
);
}
);
userData = {
RMXScaler = {
height = 73.5;
weight = -110;
width = 73;
};
};
width = 1028;
},
{
anchors = (
{
name = bottom;
pos = (464,0);
},
{
name = top;
pos = (464,1080);
}
);
layerId = "FD1CEFBD-BAB1-4C2A-A598-30E93F9A29F6";
shapes = (
{
closed = 1;
nodes = (
(242,0,l),
(460,422,l),
(470,422,l),
(570,538,l),
(570,546,l),
(876,1080,l),
(688,1080,l),
(466,650,l),
(458,650,l),
(354,546,l),
(354,538,l),
(48,0,l)
);
},
{
closed = 1;
nodes = (
(880,0,l),
(570,538,l),
(570,546,l),
(470,650,l),
(460,650,l),
(238,1080,l),
(52,1080,l),
(354,546,l),
(354,538,l),
(456,422,l),
(466,422,l),
(684,0,l)
);
}
);
userData = {
RMXScaler = {
height = 71;
weight = 16;
width = 73.5;
};
};
width = 928;
}
);
unicode = 120;
userData = {
RMXScaler = {
source = X;
};
};
},
{
color = 6;
glyphname = y;
kernLeft = LAT_Y_LC;
kernRight = LAT_Y_LC;
lastChange = "2023-11-23 10:09:18 +0000";
layers = (
{
anchors = (
{
name = bottom;
pos = (282,-428);
},
{
name = top;
pos = (480,1068);
}
);
guides = (
{
angle = 68.6294;
pos = (388,-106);
},
{
angle = 67.5;
pos = (268,-28);
}
);
layerId = "AB099EFE-E788-4EFC-8633-CF147CB782A6";
shapes = (
{
closed = 1;
nodes = (
(368,-436,o),
(415,-314,o),
(462,-170,cs),
(866,1068,l),
(802,1068,l),
(580,364,l),
(484,64,l),
(476,64,l),
(376,364,l),
(146,1068,l),
(80,1068,l),
(462,-56,l),
(462,8,l),
(406,-160,ls),
(373,-260,o),
(342,-380,o),
(226,-380,cs),
(194,-380,o),
(150,-370,o),
(126,-354,c),
(102,-412,l),
(128,-424,o),
(178,-436,o),
(222,-436,cs)
);
}
);
width = 938;
},
{
anchors = (
{
name = bottom;
pos = (362,-428);
},
{
name = top;
pos = (538,1100);
}
);
guides = (
{
angle = 67.5;
pos = (136,8);
}
);
layerId = "2D8F7115-C311-411E-929D-56333CF7FFB2";
shapes = (
{
closed = 1;
nodes = (
(584,-436,o),
(643,-250,o),
(688,-108,cs),
(1072,1100,l),
(702,1100,l),
(592,554,l),
(566,434,l),
(562,434,l),
(532,554,l),
(374,1100,l),
(6,1100,l),
(454,-42,l),
(430,138,l),
(394,-30,ls),
(384,-74,o),
(368,-146,o),
(292,-146,cs),
(268,-146,o),
(236,-136,o),
(216,-122,c),
(98,-400,l),
(158,-420,o),
(246,-436,o),
(316,-436,cs)
);
}
);
width = 1076;
},
{
anchors = (
{
name = bottom;
pos = (370,-428);
},
{
name = top;
pos = (496,1080);
}
);
layerId = "FD1CEFBD-BAB1-4C2A-A598-30E93F9A29F6";
shapes = (
{
closed = 1;
nodes = (
(440,-436,o),
(508,-248,o),
(540,-146,cs),
(928,1080,l),
(748,1080,l),
(564,430,l),
(506,228,l),
(498,228,l),
(434,430,l),
(228,1080,l),
(44,1080,l),
(444,-44,l),
(444,86,l),
(392,-104,ls),
(374,-168,o),
(334,-282,o),
(236,-282,cs),
(208,-282,o),
(164,-266,o),
(134,-246,c),
(72,-398,l),
(102,-414,o),
(170,-436,o),
(236,-436,cs)
);
}
);
width = 972;
}
);
metricRight = v;
unicode = 121;
},
{
color = 6;
glyphname = z;
kernLeft = LAT_Z_LC;
kernRight = LAT_Z_LC;
lastChange = "2023-11-23 10:09:18 +0000";
layers = (
{
anchors = (
{
name = bottom;
pos = (412,0);
},
{
name = center;
pos = (412,534);
},
{
name = leghookretroflex;
pos = (688,0);
},
{
name = top;
pos = (428,1068);
}
);
layerId = "AB099EFE-E788-4EFC-8633-CF147CB782A6";
shapes = (
{
closed = 1;
nodes = (
(716,0,l),
(716,56,l),
(182,56,l),
(182,64,l),
(706,1040,l),
(706,1068,l),
(128,1068,l),
(128,1012,l),
(622,1012,l),
(622,1004,l),
(104,36,l),
(104,0,l)
);
}
);
width = 820;
},
{
anchors = (
{
name = bottom;
pos = (442,0);
},
{
name = center;
pos = (442,550);
},
{
name = leghookretroflex;
pos = (668,0);
},
{
name = top;
pos = (454,1100);
}
);
layerId = "2D8F7115-C311-411E-929D-56333CF7FFB2";
shapes = (
{
closed = 1;
nodes = (
(846,0,l),
(846,300,l),
(508,300,l),
(508,308,l),
(848,1026,l),
(848,1100,l),
(66,1100,l),
(66,800,l),
(368,800,l),
(368,792,l),
(30,70,l),
(30,0,l)
);
}
);
width = 878;
},
{
anchors = (
{
name = bottom;
pos = (424,0);
},
{
name = center;
pos = (424,540);
},
{
name = leghookretroflex;
pos = (684,0);
},
{
name = top;
pos = (440,1080);
}
);
background = {
shapes = (
{
closed = 1;
nodes = (
(74,0,l),
(770,0,l),
(770,156,l),
(340,156,l),
(340,164,l),
(768,1020,l),
(768,1060,l),
(96,1060,l),
(96,904,l),
(502,904,l),
(502,896,l),
(74,40,l)
);
}
);
};
layerId = "FD1CEFBD-BAB1-4C2A-A598-30E93F9A29F6";
shapes = (
{
closed = 1;
nodes = (
(768,0,l),
(768,150,l),
(312,150,l),
(312,158,l),
(762,1036,l),
(762,1080,l),
(102,1080,l),
(102,932,l),
(524,932,l),
(524,924,l),
(74,48,l),
(74,0,l)
);
}
);
width = 842;
}
);
unicode = 122;
},
{
color = 6;
export = 0;
glyphname = a.ss08;
kernLeft = LAT_ASS02_LC;
kernRight = LAT_A_LC;
lastChange = "2023-11-23 10:09:18 +0000";
layers = (
{
anchors = (
{
name = bottom;
pos = (450,0);
},
{
name = ogonek;
pos = (732,0);
},
{
name = top;
pos = (450,1048);
}
);
layerId = "AB099EFE-E788-4EFC-8633-CF147CB782A6";
shapes = (
{
closed = 1;
nodes = (
(530,-16,o),
(632,44,o),
(692,158,c),
(676,142,l),
(690,142,l),
(690,0,l),
(750,0,l),
(750,752,ls),
(750,956,o),
(656,1064,o),
(466,1064,cs),
(346,1064,o),
(238,1020,o),
(158,950,c),
(180,898,l),
(258,966,o),
(356,1008,o),
(464,1008,cs),
(610,1008,o),
(690,924,o),
(690,760,cs),
(690,562,l),
(690,552,l),
(690,334,ls),
(690,168,o),
(564,40,o),
(406,40,cs),
(262,40,o),
(172,148,o),
(172,284,cs),
(172,448,o),
(306,550,o),
(500,550,cs),
(710,550,l),
(710,606,l),
(500,606,ls),
(272,606,o),
(112,482,o),
(112,284,cs),
(112,122,o),
(218,-16,o),
(406,-16,cs)
);
}
);
width = 902;
},
{
anchors = (
{
name = bottom;
pos = (498,0);
},
{
name = ogonek;
pos = (736,0);
},
{
name = top;
pos = (514,1080);
}
);
background = {
shapes = (
{
closed = 1;
nodes = (
(928,0,l),
(928,710,ls),
(928,860,o),
(900,1096,o),
(504,1096,cs),
(310,1096,o),
(172,1038,o),
(108,994,c),
(228,732,l),
(294,780,o),
(400,814,o),
(472,814,cs),
(518,814,o),
(584,780,o),
(584,706,cs),
(584,552,l),
(592,504,l),
(592,262,l),
(592,132,l),
(632,132,l),
(632,0,l)
);
},
{
closed = 1;
nodes = (
(506,-16,o),
(610,66,o),
(642,152,c),
(590,312,l),
(566,266,o),
(524,238,o),
(488,238,cs),
(432,238,o),
(402,280,o),
(402,336,cs),
(402,410,o),
(434,426,o),
(468,426,cs),
(598,426,l),
(598,630,l),
(394,630,ls),
(196,630,o),
(52,492,o),
(52,294,cs),
(52,116,o),
(170,-16,o),
(360,-16,cs)
);
}
);
};
layerId = "2D8F7115-C311-411E-929D-56333CF7FFB2";
shapes = (
{
closed = 1;
nodes = (
(542,-16,o),
(628,86,o),
(654,160,c),
(612,118,l),
(638,118,l),
(638,0,l),
(924,0,l),
(924,750,ls),
(924,982,o),
(774,1098,o),
(522,1098,cs),
(342,1098,o),
(194,1038,o),
(98,996,c),
(206,734,l),
(272,776,o),
(388,814,o),
(468,814,cs),
(546,814,o),
(600,778,o),
(600,708,cs),
(600,552,l),
(612,512,l),
(612,372,ls),
(612,274,o),
(530,244,o),
(482,244,cs),
(432,244,o),
(380,280,o),
(380,342,cs),
(380,412,o),
(452,440,o),
(526,440,cs),
(646,440,l),
(646,652,l),
(474,652,ls),
(224,652,o),
(52,528,o),
(52,324,cs),
(52,150,o),
(176,-16,o),
(392,-16,cs)
);
}
);
width = 1000;
},
{
anchors = (
{
name = bottom;
pos = (474,0);
},
{
name = ogonek;
pos = (730,0);
},
{
name = top;
pos = (476,1060);
}
);
layerId = "FD1CEFBD-BAB1-4C2A-A598-30E93F9A29F6";
shapes = (
{
closed = 1;
nodes = (
(532,-16,o),
(632,60,o),
(684,174,c),
(634,116,l),
(656,116,l),
(656,-2,l),
(808,-2,l),
(808,760,ls),
(808,952,o),
(670,1076,o),
(466,1076,cs),
(352,1076,o),
(220,1036,o),
(130,970,c),
(194,822,l),
(258,880,o),
(360,920,o),
(452,920,cs),
(564,920,o),
(648,852,o),
(648,744,cs),
(648,558,l),
(652,500,l),
(652,382,ls),
(652,232,o),
(546,128,o),
(420,128,cs),
(316,128,o),
(244,200,o),
(244,306,cs),
(244,424,o),
(338,492,o),
(496,492,cs),
(680,492,l),
(680,628,l),
(490,628,ls),
(246,628,o),
(84,508,o),
(84,300,cs),
(84,118,o),
(214,-16,o),
(394,-16,cs)
);
}
);
width = 932;
}
);
metricLeft = a;
metricRight = n;
},
{
color = 6;
export = 0;
glyphname = idotless.ss02.archive;
lastChange = "2023-11-23 10:10:50 +0000";
layers = (
{
anchors = (
{
name = bottom;
pos = (264,0);
},
{
name = center;
pos = (194,570);
},
{
name = ogonek;
pos = (382,12);
},
{
name = top;
pos = (194,1048);
}
);
guides = (
{
angle = 80;
pos = (178,-8);
}
);
layerId = "AB099EFE-E788-4EFC-8633-CF147CB782A6";
shapes = (
{
closed = 1;
nodes = (
(328,-8,o),
(364,0,o),
(382,12,c),
(382,72,l),
(358,58,o),
(326,48,o),
(298,48,cs),
(222,48,o),
(222,124,o),
(222,206,cs),
(222,1048,l),
(162,1048,l),
(162,222,ls),
(162,126,o),
(162,-8,o),
(298,-8,cs)
);
}
);
width = 442;
},
{
anchors = (
{
name = bottom;
pos = (290,0);
},
{
name = center;
pos = (282,570);
},
{
name = ogonek;
pos = (540,8);
},
{
name = top;
pos = (282,1080);
}
);
guides = (
{
angle = 80;
pos = (284,-8);
}
);
layerId = "2D8F7115-C311-411E-929D-56333CF7FFB2";
shapes = (
{
closed = 1;
nodes = (
(430,-16,o),
(496,-10,o),
(540,8,c),
(540,286,l),
(518,282,o),
(512,278,o),
(500,278,cs),
(454,278,o),
(454,336,o),
(454,376,cs),
(454,1082,l),
(98,1082,l),
(98,278,ls),
(98,112,o),
(210,-16,o),
(380,-16,cs)
);
}
);
width = 606;
},
{
anchors = (
{
name = bottom;
pos = (286,0);
},
{
name = center;
pos = (230,570);
},
{
name = ogonek;
pos = (428,-4);
},
{
name = top;
pos = (230,1060);
}
);
layerId = "FD1CEFBD-BAB1-4C2A-A598-30E93F9A29F6";
shapes = (
{
closed = 1;
nodes = (
(368,-16,o),
(408,-12,o),
(428,-4,c),
(428,152,l),
(414,148,o),
(394,144,o),
(382,144,cs),
(312,144,o),
(312,214,o),
(312,250,cs),
(312,1060,l),
(140,1060,l),
(140,254,ls),
(140,82,o),
(204,-16,o),
(340,-16,cs)
);
}
);
width = 510;
}
);
},
{
color = 3;
glyphname = fl;
kernLeft = LAT_F_LC;
kernRight = LAT_L_LC;
lastChange = "2023-11-23 10:09:18 +0000";
layers = (
{
background = {
shapes = (
{
closed = 1;
nodes = (
(1042,-8,o),
(1071,-4,o),
(1092,4,c),
(1092,66,l),
(1079,57,o),
(1051,49,o),
(1022,50,cs),
(944,49,o),
(944,131,o),
(944,196,cs),
(944,1474,l),
(882,1474,l),
(882,188,ls),
(883,45,o),
(918,-8,o),
(1018,-8,cs)
);
},
{
pos = (-2,0);
ref = f;
}
);
};
layerId = "AB099EFE-E788-4EFC-8633-CF147CB782A6";
shapes = (
{
closed = 1;
nodes = (
(902,-8,o),
(930,-4,o),
(948,4,c),
(948,64,l),
(938,56,o),
(914,48,o),
(890,48,cs),
(824,48,o),
(824,112,o),
(824,174,cs),
(824,1474,l),
(764,1474,l),
(764,176,ls),
(764,70,o),
(784,-8,o),
(882,-8,cs)
);
},
{
ref = f;
}
);
width = 1018;
},
{
background = {
shapes = (
{
closed = 1;
nodes = (
(1425,-16,o),
(1483,-4,o),
(1528,12,c),
(1528,286,l),
(1520,283,o),
(1503,279,o),
(1490,278,cs),
(1434,279,o),
(1417,324,o),
(1418,356,cs),
(1418,1474,l),
(1060,1474,l),
(1060,294,ls),
(1061,131,o),
(1167,-16,o),
(1352,-16,cs)
);
}
);
};
layerId = "2D8F7115-C311-411E-929D-56333CF7FFB2";
shapes = (
{
closed = 1;
nodes = (
(1278,-16,o),
(1338,-4,o),
(1380,12,c),
(1380,286,l),
(1374,284,o),
(1362,278,o),
(1348,278,cs),
(1314,278,o),
(1292,320,o),
(1292,356,cs),
(1292,1474,l),
(936,1474,l),
(936,294,ls),
(936,132,o),
(1036,-16,o),
(1224,-16,cs)
);
},
{
ref = f;
}
);
width = 1426;
},
{
layerId = "FD1CEFBD-BAB1-4C2A-A598-30E93F9A29F6";
shapes = (
{
closed = 1;
nodes = (
(1034,-12,o),
(1072,-4,o),
(1102,8,c),
(1102,152,l),
(1094,144,o),
(1074,136,o),
(1052,136,cs),
(1000,136,o),
(990,194,o),
(990,246,cs),
(990,1474,l),
(818,1474,l),
(818,222,ls),
(818,70,o),
(880,-12,o),
(1000,-12,cs)
);
},
{
alignment = -1;
ref = f;
}
);
width = 1166;
}
);
metricLeft = f;
metricRight = l;
unicode = 64258;
},
{
color = 3;
glyphname = r_slash.liga;
kernLeft = LAT_R_LC;
kernRight = PCT_SLASH;
lastChange = "2023-11-23 10:09:18 +0000";
layers = (
{
guides = (
{
angle = 67.5;
pos = (104,-200);
}
);
layerId = "AB099EFE-E788-4EFC-8633-CF147CB782A6";
shapes = (
{
closed = 1;
nodes = (
(220,0,l),
(220,684,ls),
(220,842,o),
(360,1010,o),
(512,1010,cs),
(562,1010,o),
(624,996,o),
(656,968,c),
(682,1028,l),
(658,1044,o),
(594,1064,o),
(530,1064,cs),
(394,1064,o),
(270,982,o),
(200,832,c),
(234,868,l),
(220,868,l),
(220,1048,l),
(160,1048,l),
(160,0,l)
);
},
{
pos = (502,0);
ref = slash;
}
);
width = 1146;
},
{
guides = (
{
angle = 67.5;
pos = (206,-200);
}
);
layerId = "2D8F7115-C311-411E-929D-56333CF7FFB2";
shapes = (
{
closed = 1;
nodes = (
(436,0,l),
(436,552,ls),
(436,674,o),
(474,754,o),
(598,754,cs),
(634,754,o),
(690,750,o),
(742,716,c),
(884,1064,l),
(864,1082,o),
(818,1098,o),
(722,1098,cs),
(550,1098,o),
(436,994,o),
(404,930,c),
(466,958,l),
(416,958,l),
(416,1082,l),
(80,1082,l),
(80,0,l)
);
},
{
pos = (696,0);
ref = slash;
}
);
width = 1550;
},
{
layerId = "FD1CEFBD-BAB1-4C2A-A598-30E93F9A29F6";
shapes = (
{
closed = 1;
nodes = (
(300,0,l),
(300,648,ls),
(300,792,o),
(404,918,o),
(540,918,cs),
(582,918,o),
(638,906,o),
(676,880,c),
(746,1044,l),
(726,1058,o),
(678,1078,o),
(600,1078,cs),
(436,1078,o),
(318,976,o),
(272,868,c),
(334,918,l),
(294,918,l),
(294,1060,l),
(128,1060,l),
(128,0,l)
);
},
{
alignment = -1;
pos = (576,0);
ref = slash;
}
);
width = 1280;
}
);
metricLeft = r;
metricRight = slash;
},
{
color = 6;
glyphname = ordfeminine;
kernLeft = PCT_QUOTE;
kernRight = PCT_QUOTE;
lastChange = "2023-11-22 11:34:34 +0000";
layers = (
{
anchors = (
{
name = bottom;
pos = (330,848);
},
{
name = ogonek;
pos = (588,840);
},
{
name = top;
pos = (330,1478);
},
{
name = topright;
pos = (624,1478);
}
);
layerId = "AB099EFE-E788-4EFC-8633-CF147CB782A6";
shapes = (
{
closed = 1;
nodes = (
(446,828,o),
(552,942,o),
(552,1160,cs),
(552,1380,o),
(456,1490,o),
(322,1490,cs),
(184,1490,o),
(82,1352,o),
(82,1156,cs),
(82,968,o),
(182,828,o),
(322,828,cs)
);
},
{
closed = 1;
nodes = (
(218,882,o),
(140,998,o),
(140,1156,cs),
(140,1318,o),
(216,1436,o),
(324,1436,cs),
(436,1436,o),
(512,1328,o),
(512,1160,cs),
(512,996,o),
(432,882,o),
(324,882,cs)
);
},
{
closed = 1;
nodes = (
(618,874,l),
(606,882,ls),
(580,900,o),
(566,934,o),
(566,992,cs),
(566,1478,l),
(508,1478,l),
(508,1360,l),
(502,1360,l),
(512,1336,l),
(512,1012,l),
(498,962,l),
(516,962,l),
(512,970,l),
(518,896,o),
(544,846,o),
(578,832,cs),
(588,828,l)
);
}
);
userData = {
RMXScaler = {
adjustSpace = 12;
height = 60;
verticalShift = 414;
weight = 18;
width = 60;
};
};
width = 694;
},
{
anchors = (
{
name = bottom;
pos = (368,812);
},
{
name = ogonek;
pos = (608,802);
},
{
name = top;
pos = (368,1474);
},
{
name = topright;
pos = (690,1474);
}
);
layerId = "2D8F7115-C311-411E-929D-56333CF7FFB2";
shapes = (
{
closed = 1;
nodes = (
(432,802,o),
(516,976,o),
(516,1150,cs),
(516,1320,o),
(442,1486,o),
(290,1486,cs),
(154,1486,o),
(46,1346,o),
(46,1138,cs),
(46,942,o),
(142,802,o),
(276,802,cs)
);
},
{
closed = 1;
nodes = (
(326,1020,o),
(298,1074,o),
(298,1146,cs),
(298,1222,o),
(326,1270,o),
(362,1270,cs),
(406,1270,o),
(422,1216,o),
(422,1146,cs),
(422,1066,o),
(398,1020,o),
(362,1020,cs)
);
},
{
closed = 1;
nodes = (
(726,1012,l),
(698,1026,ls),
(678,1036,o),
(670,1050,o),
(670,1110,cs),
(670,1474,l),
(418,1474,l),
(418,1426,l),
(384,1426,l),
(422,1372,l),
(422,974,l),
(396,898,l),
(458,898,l),
(442,898,l),
(468,856,o),
(524,822,o),
(586,806,cs),
(604,802,l)
);
}
);
userData = {
RMXScaler = {
adjustSpace = 12;
height = 61;
verticalShift = 396;
weight = -200;
width = 60;
};
};
width = 780;
},
{
anchors = (
{
name = bottom;
pos = (332,836);
},
{
name = ogonek;
pos = (586,828);
},
{
name = top;
pos = (332,1478);
},
{
name = topright;
pos = (640,1478);
}
);
layerId = "FD1CEFBD-BAB1-4C2A-A598-30E93F9A29F6";
shapes = (
{
closed = 1;
nodes = (
(430,820,o),
(526,954,o),
(526,1156,cs),
(526,1360,o),
(440,1490,o),
(300,1490,cs),
(160,1490,o),
(56,1350,o),
(56,1150,cs),
(56,954,o),
(156,820,o),
(294,820,cs)
);
},
{
closed = 1;
nodes = (
(246,938,o),
(188,1028,o),
(188,1150,cs),
(188,1282,o),
(246,1372,o),
(326,1372,cs),
(414,1372,o),
(468,1286,o),
(468,1156,cs),
(468,1026,o),
(408,938,o),
(326,938,cs)
);
},
{
closed = 1;
nodes = (
(650,930,l),
(630,940,ls),
(606,952,o),
(594,980,o),
(594,1036,cs),
(594,1478,l),
(464,1478,l),
(464,1384,l),
(444,1384,l),
(468,1352,l),
(468,1000,l),
(446,938,l),
(486,938,l),
(474,942,l),
(486,884,o),
(524,840,o),
(570,824,cs),
(582,820,l)
);
}
);
width = 702;
}
);
unicode = 170;
userData = {
RMXScaler = {
source = a.ss02;
};
};
},
{
color = 6;
glyphname = ordmasculine;
kernLeft = PCT_QUOTE;
kernRight = PCT_QUOTE;
lastChange = "2023-11-23 10:09:18 +0000";
layers = (
{
layerId = "AB099EFE-E788-4EFC-8633-CF147CB782A6";
shapes = (
{
closed = 1;
nodes = (
(500,828,o),
(614,972,o),
(614,1160,cs),
(614,1352,o),
(500,1490,o),
(348,1490,cs),
(198,1490,o),
(82,1350,o),
(82,1160,cs),
(82,974,o),
(198,828,o),
(348,828,cs)
);
},
{
closed = 1;
nodes = (
(230,882,o),
(140,1004,o),
(140,1160,cs),
(140,1320,o),
(230,1436,o),
(348,1436,cs),
(468,1436,o),
(558,1320,o),
(558,1160,cs),
(558,1004,o),
(468,882,o),
(348,882,cs)
);
}
);
userData = {
RMXScaler = {
height = 60;
verticalShift = 400;
width = 60;
};
};
width = 696;
},
{
layerId = "2D8F7115-C311-411E-929D-56333CF7FFB2";
shapes = (
{
closed = 1;
nodes = (
(548,802,o),
(684,950,o),
(684,1146,cs),
(684,1344,o),
(548,1490,o),
(364,1490,cs),
(184,1490,o),
(46,1344,o),
(46,1146,cs),
(46,950,o),
(184,802,o),
(364,802,cs)
);
},
{
closed = 1;
nodes = (
(322,1032,o),
(292,1084,o),
(292,1146,cs),
(292,1210,o),
(322,1262,o),
(364,1262,cs),
(406,1262,o),
(436,1212,o),
(436,1146,cs),
(436,1082,o),
(406,1032,o),
(364,1032,cs)
);
}
);
userData = {
RMXScaler = {
height = 60;
verticalShift = 390;
weight = -200;
width = 60;
};
};
width = 730;
},
{
layerId = "FD1CEFBD-BAB1-4C2A-A598-30E93F9A29F6";
shapes = (
{
closed = 1;
nodes = (
(508,820,o),
(628,964,o),
(628,1156,cs),
(628,1348,o),
(508,1490,o),
(342,1490,cs),
(180,1490,o),
(56,1346,o),
(56,1156,cs),
(56,966,o),
(180,820,o),
(342,820,cs)
);
},
{
closed = 1;
nodes = (
(256,942,o),
(186,1032,o),
(186,1156,cs),
(186,1278,o),
(256,1368,o),
(342,1368,cs),
(432,1368,o),
(500,1278,o),
(500,1156,cs),
(500,1032,o),
(432,942,o),
(342,942,cs)
);
}
);
width = 686;
}
);
unicode = 186;
userData = {
RMXScaler = {
source = o;
};
};
},
{
color = 6;
glyphname = pi;
kernLeft = PI_LC;
kernRight = PI_LC;
lastChange = "2023-11-23 10:09:18 +0000";
layers = (
{
layerId = "AB099EFE-E788-4EFC-8633-CF147CB782A6";
shapes = (
{
closed = 1;
nodes = (
(862,-16,o),
(888,-8,o),
(908,8,c),
(886,60,l),
(868,46,o),
(850,38,o),
(830,38,cs),
(752,38,o),
(758,172,o),
(760,236,cs),
(792,1014,l),
(732,1014,l),
(706,236,ls),
(702,110,o),
(708,-16,o),
(828,-16,cs)
);
},
{
closed = 1;
nodes = (
(298,0,l),
(362,356,o),
(402,674,o),
(396,1010,c),
(336,1010,l),
(342,636,o),
(290,312,o),
(236,0,c)
);
},
{
closed = 1;
nodes = (
(172,998,o),
(234,994,o),
(370,994,cs),
(964,994,l),
(964,1048,l),
(342,1048,ls),
(216,1048,o),
(136,1048,o),
(70,884,c),
(126,862,l)
);
}
);
width = 1054;
},
{
layerId = "2D8F7115-C311-411E-929D-56333CF7FFB2";
shapes = (
{
closed = 1;
nodes = (
(1196,-16,o),
(1292,8,o),
(1316,20,c),
(1202,300,l),
(1192,292,o),
(1162,282,o),
(1134,282,cs),
(1104,282,o),
(1070,318,o),
(1072,394,cs),
(1086,860,l),
(776,860,l),
(752,360,ls),
(738,78,o),
(908,-16,o),
(1096,-16,cs)
);
},
{
closed = 1;
nodes = (
(602,0,l),
(652,250,o),
(686,576,o),
(686,824,c),
(362,824,l),
(372,610,o),
(306,328,o),
(240,0,c)
);
},
{
closed = 1;
nodes = (
(304,740,o),
(332,776,o),
(380,776,cs),
(1256,776,l),
(1256,1080,l),
(450,1080,ls),
(220,1080,o),
(98,998,o),
(24,822,c),
(298,698,l)
);
}
);
width = 1310;
},
{
layerId = "FD1CEFBD-BAB1-4C2A-A598-30E93F9A29F6";
shapes = (
{
closed = 1;
nodes = (
(978,-16,o),
(1036,-2,o),
(1056,16,c),
(998,152,l),
(984,142,o),
(960,136,o),
(938,136,cs),
(874,136,o),
(868,220,o),
(870,260,cs),
(896,958,l),
(734,958,l),
(710,246,ls),
(704,58,o),
(792,-16,o),
(920,-16,cs)
);
},
{
closed = 1;
nodes = (
(422,0,l),
(470,316,o),
(506,644,o),
(504,942,c),
(340,942,l),
(350,632,o),
(298,326,o),
(250,0,c)
);
},
{
closed = 1;
nodes = (
(228,896,o),
(270,914,o),
(368,914,cs),
(1072,914,l),
(1072,1060,l),
(378,1060,ls),
(208,1060,o),
(112,1022,o),
(50,864,c),
(192,794,l)
);
}
);
width = 1142;
}
);
unicode = 960;
},
{
color = 6;
glyphname = zero;
kernLeft = NUM_ZERO;
kernRight = NUM_ZERO;
lastChange = "2023-11-23 10:09:18 +0000";
layers = (
{
anchors = (
{
name = center;
pos = (574,738);
}
);
layerId = "AB099EFE-E788-4EFC-8633-CF147CB782A6";
shapes = (
{
closed = 1;
nodes = (
(846,-16,o),
(1012,238,o),
(1012,656,cs),
(1012,816,ls),
(1012,1235,o),
(846,1490,o),
(574,1490,cs),
(302,1490,o),
(136,1235,o),
(136,816,cs),
(136,656,ls),
(136,238,o),
(302,-16,o),
(574,-16,cs)
);
},
{
closed = 1;
nodes = (
(342,44,o),
(200,276,o),
(200,656,cs),
(200,816,ls),
(200,1198,o),
(342,1430,o),
(574,1430,cs),
(806,1430,o),
(948,1198,o),
(948,816,cs),
(948,656,ls),
(948,276,o),
(806,44,o),
(574,44,cs)
);
}
);
width = 1148;
},
{
anchors = (
{
name = center;
pos = (582,738);
}
);
layerId = "2D8F7115-C311-411E-929D-56333CF7FFB2";
shapes = (
{
closed = 1;
nodes = (
(896,-16,o),
(1078,216,o),
(1078,622,cs),
(1078,852,ls),
(1078,1258,o),
(896,1490,o),
(582,1490,cs),
(266,1490,o),
(84,1258,o),
(84,852,cs),
(84,622,ls),
(84,216,o),
(266,-16,o),
(582,-16,cs)
);
},
{
closed = 1;
nodes = (
(498,304,o),
(448,374,o),
(448,496,cs),
(448,974,ls),
(448,1100,o),
(498,1170,o),
(582,1170,cs),
(664,1170,o),
(714,1100,o),
(714,974,cs),
(714,496,ls),
(714,374,o),
(664,304,o),
(582,304,cs)
);
}
);
width = 1162;
},
{
anchors = (
{
name = center;
pos = (578,738);
}
);
layerId = "FD1CEFBD-BAB1-4C2A-A598-30E93F9A29F6";
shapes = (
{
closed = 1;
nodes = (
(868,-16,o),
(1034,226,o),
(1034,644,cs),
(1034,830,ls),
(1034,1248,o),
(868,1490,o),
(578,1490,cs),
(288,1490,o),
(120,1250,o),
(120,830,cs),
(120,644,ls),
(120,224,o),
(288,-16,o),
(578,-16,cs)
);
},
{
closed = 1;
nodes = (
(398,144,o),
(296,312,o),
(296,598,cs),
(296,876,ls),
(296,1162,o),
(398,1330,o),
(578,1330,cs),
(756,1330,o),
(858,1164,o),
(858,876,cs),
(858,598,ls),
(858,310,o),
(756,144,o),
(578,144,cs)
);
}
);
width = 1154;
}
);
unicode = 48;
},
{
color = 6;
glyphname = one;
kernLeft = NUM_ONE;
kernRight = NUM_ONE;
lastChange = "2023-11-23 10:09:18 +0000";
layers = (
{
layerId = "AB099EFE-E788-4EFC-8633-CF147CB782A6";
shapes = (
{
closed = 1;
nodes = (
(472,0,l),
(472,1474,l),
(436,1474,l),
(148,1294,l),
(148,1226,l),
(430,1406,l),
(408,1420,l),
(408,0,l)
);
}
);
width = 676;
},
{
layerId = "2D8F7115-C311-411E-929D-56333CF7FFB2";
shapes = (
{
closed = 1;
nodes = (
(702,0,l),
(702,1474,l),
(600,1474,l),
(100,1232,l),
(100,892,l),
(402,1040,l),
(338,1146,l),
(338,0,l)
);
}
);
width = 846;
},
{
layerId = "FD1CEFBD-BAB1-4C2A-A598-30E93F9A29F6";
shapes = (
{
closed = 1;
nodes = (
(552,0,l),
(552,1474,l),
(490,1474,l),
(128,1274,l),
(128,1102,l),
(414,1268,l),
(376,1314,l),
(376,0,l)
);
}
);
width = 724;
}
);
unicode = 49;
},
{
color = 6;
glyphname = two;
kernLeft = NUM_TWO;
kernRight = NUM_TWO;
lastChange = "2023-11-23 10:09:18 +0000";
layers = (
{
layerId = "AB099EFE-E788-4EFC-8633-CF147CB782A6";
shapes = (
{
closed = 1;
nodes = (
(892,0,l),
(892,60,l),
(434,60,l),
(222,60,l),
(222,64,l),
(552,532,ls),
(742,802,o),
(856,918,o),
(856,1120,cs),
(856,1344,o),
(718,1490,o),
(506,1490,cs),
(286,1490,o),
(144,1330,o),
(144,1082,c),
(208,1082,l),
(208,1292,o),
(322,1430,o),
(504,1430,cs),
(678,1430,o),
(792,1306,o),
(792,1122,cs),
(792,952,o),
(696,844,o),
(532,612,cs),
(126,40,l),
(126,0,l)
);
}
);
width = 1018;
},
{
layerId = "2D8F7115-C311-411E-929D-56333CF7FFB2";
shapes = (
{
closed = 1;
nodes = (
(974,0,l),
(974,320,l),
(820,320,l),
(626,316,l),
(626,324,l),
(718,454,ls),
(862,660,o),
(992,836,o),
(992,1062,cs),
(992,1322,o),
(818,1490,o),
(536,1490,cs),
(240,1490,o),
(60,1306,o),
(54,988,c),
(422,988,l),
(422,1104,o),
(458,1170,o),
(532,1170,cs),
(596,1170,o),
(644,1122,o),
(644,1038,cs),
(644,888,o),
(496,708,o),
(408,578,cs),
(72,74,l),
(72,0,l)
);
}
);
width = 1064;
},
{
layerId = "FD1CEFBD-BAB1-4C2A-A598-30E93F9A29F6";
shapes = (
{
closed = 1;
nodes = (
(918,0,l),
(918,160,l),
(588,160,l),
(388,156,l),
(388,164,l),
(620,500,ls),
(788,742,o),
(900,886,o),
(900,1088,cs),
(900,1332,o),
(746,1490,o),
(510,1490,cs),
(268,1490,o),
(110,1316,o),
(108,1050,c),
(284,1050,l),
(284,1220,o),
(372,1330,o),
(508,1330,cs),
(640,1330,o),
(724,1232,o),
(724,1088,cs),
(724,918,o),
(602,772,o),
(464,570,cs),
(110,54,l),
(110,0,l)
);
}
);
width = 1030;
}
);
unicode = 50;
},
{
color = 6;
glyphname = three;
kernLeft = NUM_THREE;
kernRight = NUM_EIGHT;
lastChange = "2023-11-23 10:09:18 +0000";
layers = (
{
background = {
shapes = (
{
pos = (-38,0);
ref = eight;
}
);
};
layerId = "AB099EFE-E788-4EFC-8633-CF147CB782A6";
shapes = (
{
closed = 1;
nodes = (
(722,-16,o),
(882,152,o),
(882,386,cs),
(882,628,o),
(722,802,o),
(496,802,c),
(496,774,l),
(686,774,o),
(824,928,o),
(824,1136,cs),
(824,1346,o),
(696,1490,o),
(502,1490,cs),
(300,1490,o),
(158,1344,o),
(158,1130,c),
(222,1130,l),
(222,1310,o),
(336,1430,o),
(500,1430,cs),
(654,1430,o),
(760,1316,o),
(760,1138,cs),
(760,952,o),
(642,820,o),
(472,820,cs),
(410,820,l),
(410,760,l),
(438,760,ls),
(666,760,o),
(818,608,o),
(818,388,cs),
(818,186,o),
(684,44,o),
(496,44,cs),
(300,44,o),
(170,196,o),
(170,410,c),
(106,410,l),
(108,158,o),
(266,-16,o),
(496,-16,cs)
);
}
);
width = 1004;
},
{
background = {
shapes = (
{
pos = (-38,0);
ref = eight;
}
);
};
layerId = "2D8F7115-C311-411E-929D-56333CF7FFB2";
shapes = (
{
closed = 1;
nodes = (
(798,-16,o),
(994,160,o),
(994,404,cs),
(994,648,o),
(806,804,o),
(530,798,c),
(530,696,l),
(790,696,o),
(966,854,o),
(966,1090,cs),
(966,1324,o),
(788,1490,o),
(526,1490,cs),
(262,1490,o),
(74,1318,o),
(78,1064,c),
(418,1064,l),
(418,1138,o),
(464,1190,o),
(522,1190,cs),
(588,1190,o),
(624,1134,o),
(620,1032,cs),
(618,946,o),
(558,880,o),
(478,880,cs),
(394,880,l),
(390,610,l),
(466,610,ls),
(564,610,o),
(638,546,o),
(638,438,cs),
(638,360,o),
(596,284,o),
(520,284,cs),
(450,284,o),
(402,342,o),
(402,422,c),
(42,422,l),
(44,162,o),
(238,-16,o),
(520,-16,cs)
);
}
);
width = 1070;
},
{
background = {
shapes = (
{
pos = (-38,0);
ref = eight;
}
);
};
layerId = "FD1CEFBD-BAB1-4C2A-A598-30E93F9A29F6";
shapes = (
{
closed = 1;
nodes = (
(752,-16,o),
(924,160,o),
(924,410,cs),
(924,648,o),
(766,804,o),
(538,794,c),
(538,754,l),
(736,746,o),
(876,902,o),
(876,1118,cs),
(876,1342,o),
(730,1490,o),
(506,1490,cs),
(276,1490,o),
(124,1338,o),
(126,1104,c),
(302,1104,l),
(302,1240,o),
(382,1330,o),
(506,1330,cs),
(622,1330,o),
(704,1244,o),
(704,1108,cs),
(704,958,o),
(606,848,o),
(472,848,cs),
(410,848,l),
(408,694,l),
(464,694,ls),
(632,694,o),
(748,584,o),
(748,416,cs),
(748,260,o),
(648,144,o),
(504,144,cs),
(360,144,o),
(262,256,o),
(262,418,c),
(86,414,l),
(86,160,o),
(258,-16,o),
(504,-16,cs)
);
}
);
width = 1032;
}
);
metricRight = eight;
unicode = 51;
},
{
color = 6;
glyphname = four;
kernLeft = NUM_FOUR;
kernRight = NUM_FOUR;
lastChange = "2023-11-23 10:09:18 +0000";
layers = (
{
layerId = "AB099EFE-E788-4EFC-8633-CF147CB782A6";
shapes = (
{
closed = 1;
nodes = (
(772,0,l),
(772,1474,l),
(724,1474,l),
(86,432,l),
(86,400,l),
(946,400,l),
(946,460,l),
(174,460,l),
(174,468,l),
(596,1158,l),
(700,1328,l),
(708,1328,l),
(708,446,l),
(708,420,l),
(708,0,l)
);
}
);
width = 1040;
},
{
background = {
shapes = (
{
closed = 1;
nodes = (
(948,0,l),
(948,1474,l),
(605,1474,l),
(24,542,l),
(24,314,l),
(1074,314,l),
(1074,639,l),
(465,639,l),
(465,647,l),
(455,629,l),
(590,881,l),
(598,881,l),
(577,566,l),
(577,0,l)
);
}
);
};
layerId = "2D8F7115-C311-411E-929D-56333CF7FFB2";
shapes = (
{
closed = 1;
nodes = (
(954,0,l),
(954,1474,l),
(618,1474,l),
(28,506,l),
(28,300,l),
(1080,300,l),
(1080,600,l),
(386,600,l),
(386,608,l),
(506,820,l),
(628,1028,l),
(636,1028,l),
(624,538,l),
(606,482,l),
(606,0,l)
);
}
);
width = 1152;
},
{
layerId = "FD1CEFBD-BAB1-4C2A-A598-30E93F9A29F6";
shapes = (
{
closed = 1;
nodes = (
(844,0,l),
(844,1474,l),
(682,1474,l),
(68,466,l),
(68,360,l),
(1024,360,l),
(1024,520,l),
(296,520,l),
(296,528,l),
(550,958,l),
(664,1162,l),
(672,1162,l),
(672,490,l),
(668,418,l),
(668,0,l)
);
}
);
width = 1078;
}
);
unicode = 52;
},
{
color = 6;
glyphname = five;
kernLeft = NUM_FIVE;
kernRight = NUM_FIVE;
lastChange = "2023-11-23 10:09:18 +0000";
layers = (
{
guides = (
{
angle = 67.5;
pos = (348,740);
}
);
layerId = "AB099EFE-E788-4EFC-8633-CF147CB782A6";
shapes = (
{
closed = 1;
nodes = (
(728,-16,o),
(888,170,o),
(888,444,cs),
(888,718,o),
(726,904,o),
(502,904,cs),
(390,904,o),
(280,858,o),
(238,790,c),
(262,764,l),
(262,1414,l),
(812,1414,l),
(812,1474,l),
(198,1474,l),
(198,736,l),
(248,728,l),
(290,794,o),
(390,846,o),
(498,846,cs),
(690,846,o),
(824,686,o),
(824,446,cs),
(824,206,o),
(692,44,o),
(510,44,cs),
(368,44,o),
(224,144,o),
(152,286,c),
(124,218,l),
(206,78,o),
(356,-16,o),
(510,-16,cs)
);
}
);
width = 1008;
},
{
background = {
shapes = (
{
closed = 1;
nodes = (
(806,-16,o),
(998,169,o),
(998,457,cs),
(998,770,o),
(768,954,o),
(584,954,cs),
(520,954,o),
(456,925,o),
(414,889,c),
(491,799,l),
(491,1139,l),
(895,1139,l),
(895,1474,l),
(131,1474,l),
(131,718,l),
(409,594,l),
(452,624,o),
(492,619,o),
(528,619,cs),
(598,619,o),
(638,565,o),
(638,468,cs),
(638,384,o),
(615,329,o),
(519,329,cs),
(420,329,o),
(344,383,o),
(251,468,c),
(98,115,l),
(250,28,o),
(351,-16,o),
(558,-16,c)
);
}
);
};
guides = (
{
angle = -22.5;
pos = (294,628);
},
{
angle = 67.5;
pos = (174,308);
}
);
layerId = "2D8F7115-C311-411E-929D-56333CF7FFB2";
shapes = (
{
closed = 1;
nodes = (
(796,-16,o),
(1002,186,o),
(1002,470,cs),
(1002,730,o),
(830,926,o),
(610,926,cs),
(530,926,o),
(442,900,o),
(390,858,c),
(486,812,l),
(486,1154,l),
(914,1154,l),
(914,1474,l),
(142,1474,l),
(142,660,l),
(416,596,l),
(442,626,o),
(474,652,o),
(538,650,cs),
(600,648,o),
(658,582,o),
(658,484,cs),
(658,396,o),
(610,304,o),
(508,304,cs),
(420,304,o),
(288,380,o),
(228,450,c),
(94,128,l),
(190,42,o),
(370,-16,o),
(520,-16,cs)
);
}
);
width = 1056;
},
{
guides = (
{
angle = 67.5;
pos = (188,308);
}
);
layerId = "FD1CEFBD-BAB1-4C2A-A598-30E93F9A29F6";
shapes = (
{
closed = 1;
nodes = (
(766,-16,o),
(940,172,o),
(940,454,cs),
(940,728,o),
(778,912,o),
(538,912,cs),
(434,912,o),
(346,878,o),
(302,826,c),
(358,780,l),
(358,1314,l),
(854,1314,l),
(854,1474,l),
(182,1474,l),
(182,722,l),
(302,684,l),
(358,728,o),
(436,756,o),
(508,756,cs),
(658,756,o),
(764,634,o),
(764,448,cs),
(764,266,o),
(662,144,o),
(514,144,cs),
(392,144,o),
(268,230,o),
(194,352,c),
(116,174,l),
(214,54,o),
(364,-16,o),
(516,-16,cs)
);
}
);
width = 1044;
}
);
unicode = 53;
},
{
color = 6;
glyphname = six;
kernLeft = NUM_SIX;
kernRight = NUM_SIX;
lastChange = "2023-11-23 10:09:18 +0000";
layers = (
{
layerId = "AB099EFE-E788-4EFC-8633-CF147CB782A6";
shapes = (
{
closed = 1;
nodes = (
(752,-16,o),
(912,170,o),
(912,436,cs),
(912,702,o),
(750,888,o),
(520,888,cs),
(428,888,o),
(348,856,o),
(290,802,c),
(308,800,l),
(734,1474,l),
(658,1474,l),
(234,798,ls),
(190,728,o),
(116,604,o),
(116,430,cs),
(116,162,o),
(286,-16,o),
(518,-16,cs)
);
},
{
closed = 1;
nodes = (
(318,44,o),
(180,206,o),
(180,436,cs),
(180,668,o),
(318,828,o),
(518,828,cs),
(714,828,o),
(848,668,o),
(848,438,cs),
(848,208,o),
(714,44,o),
(516,44,cs)
);
}
);
width = 1028;
},
{
layerId = "2D8F7115-C311-411E-929D-56333CF7FFB2";
shapes = (
{
closed = 1;
nodes = (
(818,-16,o),
(1018,184,o),
(1018,470,cs),
(1018,738,o),
(838,924,o),
(610,924,cs),
(516,924,o),
(454,892,o),
(432,852,c),
(534,864,l),
(852,1474,l),
(468,1474,l),
(166,892,ls),
(98,762,o),
(48,618,o),
(48,476,cs),
(48,186,o),
(250,-16,o),
(536,-16,cs)
);
},
{
closed = 1;
nodes = (
(440,294,o),
(380,368,o),
(380,478,cs),
(380,590,o),
(442,664,o),
(534,664,cs),
(624,664,o),
(686,590,o),
(686,478,cs),
(686,370,o),
(626,294,o),
(534,294,cs)
);
}
);
width = 1066;
},
{
layerId = "FD1CEFBD-BAB1-4C2A-A598-30E93F9A29F6";
shapes = (
{
closed = 1;
nodes = (
(770,-16,o),
(946,180,o),
(946,452,cs),
(946,716,o),
(778,912,o),
(556,904,cs),
(480,902,o),
(404,874,o),
(372,836,c),
(420,830,l),
(790,1474,l),
(584,1474,l),
(214,822,ls),
(146,702,o),
(94,574,o),
(94,432,cs),
(94,160,o),
(280,-16,o),
(518,-16,cs)
);
},
{
closed = 1;
nodes = (
(378,150,o),
(270,276,o),
(270,450,cs),
(270,622,o),
(378,748,o),
(524,748,cs),
(666,748,o),
(770,622,o),
(770,450,cs),
(770,276,o),
(666,150,o),
(524,150,cs)
);
}
);
width = 1044;
},
{
associatedMasterId = "FD1CEFBD-BAB1-4C2A-A598-30E93F9A29F6";
layerId = "9B96A000-4D93-4FF3-A4EC-BED23E9B79B6";
name = "-120}";
shapes = (
{
closed = 1;
nodes = (
(775,-16,o),
(957,181,o),
(957,453,cs),
(957,719,o),
(783,906,o),
(564,903,cs),
(486,902,o),
(418,878,o),
(385,835,c),
(452,836,l),
(808,1474,l),
(538,1474,l),
(191,840,ls),
(120,711,o),
(74,561,o),
(74,435,cs),
(74,181,o),
(260,-16,o),
(517,-16,cs)
);
},
{
closed = 1;
nodes = (
(395,200,o),
(307,308,o),
(307,458,cs),
(307,607,o),
(395,713,o),
(517,713,cs),
(638,713,o),
(724,607,o),
(724,458,cs),
(724,308,o),
(638,200,o),
(517,200,cs)
);
}
);
width = 1032;
}
);
unicode = 54;
},
{
color = 6;
glyphname = seven;
kernLeft = NUM_SEVEN;
kernRight = NUM_SEVEN;
lastChange = "2023-11-23 10:09:18 +0000";
layers = (
{
layerId = "AB099EFE-E788-4EFC-8633-CF147CB782A6";
shapes = (
{
closed = 1;
nodes = (
(358,0,l),
(864,1434,l),
(864,1474,l),
(80,1474,l),
(80,1414,l),
(788,1414,l),
(788,1406,l),
(290,0,l)
);
}
);
width = 936;
},
{
layerId = "2D8F7115-C311-411E-929D-56333CF7FFB2";
shapes = (
{
closed = 1;
nodes = (
(464,0,l),
(966,1418,l),
(966,1474,l),
(32,1474,l),
(32,1154,l),
(502,1154,l),
(502,1146,l),
(90,0,l)
);
}
);
width = 982;
},
{
layerId = "FD1CEFBD-BAB1-4C2A-A598-30E93F9A29F6";
shapes = (
{
closed = 1;
nodes = (
(396,0,l),
(898,1430,l),
(898,1474,l),
(64,1474,l),
(64,1314,l),
(672,1314,l),
(672,1306,l),
(212,0,l)
);
}
);
width = 950;
}
);
unicode = 55;
},
{
color = 6;
glyphname = eight;
kernLeft = NUM_EIGHT;
kernRight = NUM_EIGHT;
lastChange = "2023-11-23 10:09:18 +0000";
layers = (
{
layerId = "AB099EFE-E788-4EFC-8633-CF147CB782A6";
shapes = (
{
closed = 1;
nodes = (
(767,-16,o),
(940,163,o),
(940,408,cs),
(940,652,o),
(766,830,o),
(532,830,cs),
(293,830,o),
(122,652,o),
(122,408,cs),
(122,163,o),
(294,-16,o),
(530,-16,cs)
);
},
{
closed = 1;
nodes = (
(332,44,o),
(186,198,o),
(186,410,cs),
(186,619,o),
(331,770,o),
(532,770,cs),
(730,770,o),
(876,619,o),
(876,410,cs),
(876,198,o),
(731,44,o),
(532,44,cs)
);
},
{
closed = 1;
nodes = (
(729,770,o),
(876,922,o),
(876,1130,cs),
(876,1338,o),
(730,1490,o),
(530,1490,cs),
(330,1490,o),
(184,1338,o),
(184,1130,cs),
(184,922,o),
(329,770,o),
(532,770,cs)
);
},
{
closed = 1;
nodes = (
(366,830,o),
(248,957,o),
(248,1132,cs),
(248,1304,o),
(367,1430,o),
(530,1430,cs),
(693,1430,o),
(812,1304,o),
(812,1132,cs),
(812,957,o),
(692,830,o),
(532,830,cs)
);
}
);
width = 1062;
},
{
layerId = "2D8F7115-C311-411E-929D-56333CF7FFB2";
shapes = (
{
closed = 1;
nodes = (
(866,-16,o),
(1068,161,o),
(1068,420,cs),
(1068,675,o),
(866,850,o),
(572,850,cs),
(278,850,o),
(76,675,o),
(76,420,cs),
(76,161,o),
(278,-16,o),
(572,-16,cs)
);
},
{
closed = 1;
nodes = (
(488,276,o),
(430,344,o),
(430,444,cs),
(430,545,o),
(488,614,o),
(572,614,cs),
(656,614,o),
(714,545,o),
(714,444,cs),
(714,344,o),
(656,276,o),
(572,276,cs)
);
},
{
closed = 1;
nodes = (
(835,670,o),
(1016,835,o),
(1016,1076,cs),
(1016,1321,o),
(835,1490,o),
(572,1490,cs),
(309,1490,o),
(128,1321,o),
(128,1076,cs),
(128,835,o),
(309,670,o),
(572,670,cs)
);
},
{
closed = 1;
nodes = (
(493,872,o),
(438,940,o),
(438,1038,cs),
(438,1135,o),
(493,1202,o),
(572,1202,cs),
(651,1202,o),
(706,1135,o),
(706,1038,cs),
(706,940,o),
(651,872,o),
(572,872,cs)
);
}
);
width = 1144;
},
{
layerId = "FD1CEFBD-BAB1-4C2A-A598-30E93F9A29F6";
shapes = (
{
closed = 1;
nodes = (
(790,-16,o),
(972,164,o),
(972,412,cs),
(972,658,o),
(790,838,o),
(540,838,cs),
(290,838,o),
(108,658,o),
(108,412,cs),
(108,164,o),
(290,-16,o),
(540,-16,cs)
);
},
{
closed = 1;
nodes = (
(392,144,o),
(284,261,o),
(284,422,cs),
(284,582,o),
(392,698,o),
(540,698,cs),
(688,698,o),
(796,582,o),
(796,422,cs),
(796,261,o),
(688,144,o),
(540,144,cs)
);
},
{
closed = 1;
nodes = (
(759,726,o),
(918,887,o),
(918,1108,cs),
(918,1329,o),
(759,1490,o),
(540,1490,cs),
(321,1490,o),
(162,1329,o),
(162,1108,cs),
(162,887,o),
(321,726,o),
(540,726,cs)
);
},
{
closed = 1;
nodes = (
(416,860,o),
(326,959,o),
(326,1096,cs),
(326,1231,o),
(416,1330,o),
(540,1330,cs),
(664,1330,o),
(754,1231,o),
(754,1094,cs),
(754,959,o),
(664,860,o),
(540,860,cs)
);
}
);
width = 1080;
}
);
unicode = 56;
},
{
color = 6;
glyphname = zero.osf;
kernLeft = NUM_ZERO_OSF;
kernRight = NUM_ZERO_OSF;
lastChange = "2023-11-23 10:09:18 +0000";
layers = (
{
anchors = (
{
name = center;
pos = (478,538);
}
);
layerId = "AB099EFE-E788-4EFC-8633-CF147CB782A6";
shapes = (
{
closed = 1;
nodes = (
(698,-16,o),
(852,176,o),
(852,470,cs),
(852,592,ls),
(852,894,o),
(698,1084,o),
(480,1084,cs),
(260,1084,o),
(108,892,o),
(108,592,cs),
(108,470,ls),
(108,176,o),
(260,-16,o),
(480,-16,cs)
);
},
{
closed = 1;
nodes = (
(298,40,o),
(172,218,o),
(172,466,cs),
(172,596,ls),
(172,852,o),
(290,1028,o),
(480,1028,cs),
(672,1028,o),
(788,854,o),
(788,596,cs),
(788,466,ls),
(788,216,o),
(662,40,o),
(480,40,cs)
);
}
);
userData = {
RMXScaler = {
adjustSpace = 2;
height = 71.5;
weight = 13;
width = 80;
};
};
width = 958;
},
{
anchors = (
{
name = center;
pos = (500,550);
}
);
layerId = "2D8F7115-C311-411E-929D-56333CF7FFB2";
shapes = (
{
closed = 1;
nodes = (
(742,-16,o),
(932,166,o),
(932,480,cs),
(932,606,ls),
(932,924,o),
(748,1118,o),
(498,1118,cs),
(266,1118,o),
(70,930,o),
(70,606,cs),
(70,480,ls),
(70,166,o),
(266,-16,o),
(498,-16,cs)
);
},
{
closed = 1;
nodes = (
(436,276,o),
(402,336,o),
(402,424,cs),
(402,678,ls),
(402,768,o),
(438,828,o),
(498,828,cs),
(564,828,o),
(600,764,o),
(600,678,cs),
(600,424,ls),
(600,338,o),
(566,276,o),
(498,276,cs)
);
}
);
userData = {
RMXScaler = {
adjustSpace = 1;
height = 73.5;
weight = -100;
width = 80;
};
};
width = 1002;
},
{
anchors = (
{
name = center;
pos = (474,546);
}
);
layerId = "FD1CEFBD-BAB1-4C2A-A598-30E93F9A29F6";
shapes = (
{
closed = 1;
nodes = (
(702,-16,o),
(868,172,o),
(868,476,cs),
(868,594,ls),
(868,902,o),
(704,1096,o),
(474,1096,cs),
(252,1096,o),
(84,904,o),
(84,594,cs),
(84,476,ls),
(84,174,o),
(252,-16,o),
(474,-16,cs)
);
},
{
closed = 1;
nodes = (
(344,140,o),
(252,254,o),
(252,450,cs),
(252,624,ls),
(252,820,o),
(338,940,o),
(478,940,cs),
(618,940,o),
(700,820,o),
(700,624,cs),
(700,450,ls),
(700,258,o),
(614,140,o),
(474,140,cs)
);
}
);
width = 952;
}
);
userData = {
RMXScaler = {
source = zero;
};
};
},
{
color = 6;
glyphname = zero.ss04;
kernLeft = NUM_ZERO;
kernRight = NUM_ZERO;
lastChange = "2023-11-23 10:09:18 +0000";
layers = (
{
anchors = (
{
name = center;
pos = (766,724);
}
);
layerId = "AB099EFE-E788-4EFC-8633-CF147CB782A6";
shapes = (
{
closed = 1;
nodes = (
(1130,-16,o),
(1402,308,o),
(1402,738,cs),
(1402,1168,o),
(1130,1490,o),
(762,1490,cs),
(398,1490,o),
(122,1168,o),
(122,738,cs),
(122,310,o),
(398,-16,o),
(762,-16,cs)
);
},
{
closed = 1;
nodes = (
(436,38,o),
(184,340,o),
(184,738,cs),
(184,1136,o),
(436,1432,o),
(762,1432,cs),
(1092,1432,o),
(1338,1136,o),
(1338,738,cs),
(1338,338,o),
(1090,38,o),
(762,38,cs)
);
}
);
width = 1524;
},
{
anchors = (
{
name = center;
pos = (696,738);
}
);
layerId = "2D8F7115-C311-411E-929D-56333CF7FFB2";
shapes = (
{
closed = 1;
nodes = (
(1068,-16,o),
(1346,306,o),
(1346,734,cs),
(1346,1166,o),
(1070,1490,o),
(706,1490,cs),
(322,1490,o),
(46,1156,o),
(48,738,cs),
(50,324,o),
(320,-16,o),
(700,-16,cs)
);
},
{
closed = 1;
nodes = (
(530,304,o),
(408,494,o),
(408,742,cs),
(408,988,o),
(532,1172,o),
(698,1172,cs),
(862,1172,o),
(984,988,o),
(984,742,cs),
(984,492,o),
(862,304,o),
(698,304,cs)
);
}
);
width = 1392;
},
{
anchors = (
{
name = center;
pos = (738,730);
}
);
layerId = "FD1CEFBD-BAB1-4C2A-A598-30E93F9A29F6";
shapes = (
{
closed = 1;
nodes = (
(1104,-16,o),
(1380,308,o),
(1380,738,cs),
(1380,1168,o),
(1104,1490,o),
(736,1490,cs),
(360,1490,o),
(88,1154,o),
(90,738,cs),
(92,320,o),
(364,-16,o),
(738,-16,cs)
);
},
{
closed = 1;
nodes = (
(470,148,o),
(268,408,o),
(268,738,cs),
(268,1076,o),
(470,1328,o),
(734,1328,cs),
(1002,1328,o),
(1200,1078,o),
(1200,738,cs),
(1200,406,o),
(1002,148,o),
(734,148,cs)
);
}
);
width = 1470;
}
);
},
{
color = 6;
glyphname = zero.tf;
lastChange = "2023-11-23 10:09:18 +0000";
layers = (
{
anchors = (
{
name = center;
pos = (544,724);
}
);
layerId = "AB099EFE-E788-4EFC-8633-CF147CB782A6";
shapes = (
{
closed = 1;
nodes = (
(802,-16,o),
(978,268,o),
(978,656,cs),
(978,816,ls),
(978,1210,o),
(802,1490,o),
(534,1490,cs),
(270,1490,o),
(102,1210,o),
(102,812,cs),
(102,656,ls),
(102,268,o),
(270,-16,o),
(534,-16,cs)
);
},
{
closed = 1;
nodes = (
(318,38,o),
(168,302,o),
(168,656,cs),
(168,816,ls),
(168,1178,o),
(318,1432,o),
(534,1432,cs),
(764,1432,o),
(912,1180,o),
(912,812,cs),
(912,656,ls),
(912,302,o),
(764,38,o),
(534,38,cs)
);
}
);
userData = {
RMXScaler = {
adjustSpace = 20;
};
};
width = 1080;
},
{
anchors = (
{
name = center;
pos = (536,738);
}
);
layerId = "2D8F7115-C311-411E-929D-56333CF7FFB2";
shapes = (
{
closed = 1;
nodes = (
(818,-16,o),
(1028,226,o),
(1028,648,cs),
(1028,824,ls),
(1028,1250,o),
(818,1500,o),
(538,1500,cs),
(262,1500,o),
(48,1248,o),
(48,824,cs),
(48,648,ls),
(48,228,o),
(262,-16,o),
(538,-16,cs)
);
},
{
closed = 1;
nodes = (
(464,300,o),
(412,396,o),
(412,590,cs),
(412,892,ls),
(412,1094,o),
(464,1184,o),
(538,1184,cs),
(634,1184,o),
(664,1066,o),
(664,892,cs),
(664,590,ls),
(664,414,o),
(632,300,o),
(538,300,cs)
);
}
);
width = 1080;
},
{
anchors = (
{
name = center;
pos = (540,730);
}
);
layerId = "FD1CEFBD-BAB1-4C2A-A598-30E93F9A29F6";
shapes = (
{
closed = 1;
nodes = (
(810,-16,o),
(996,252,o),
(996,660,cs),
(996,812,ls),
(996,1228,o),
(810,1490,o),
(536,1490,cs),
(266,1490,o),
(80,1230,o),
(80,806,cs),
(80,660,ls),
(80,250,o),
(266,-16,o),
(536,-16,cs)
);
},
{
closed = 1;
nodes = (
(368,148,o),
(260,344,o),
(260,638,cs),
(260,836,ls),
(260,1142,o),
(370,1328,o),
(536,1328,cs),
(712,1328,o),
(816,1144,o),
(816,832,cs),
(816,638,ls),
(816,334,o),
(710,148,o),
(536,148,cs)
);
}
);
userData = {
RMXScaler = {
adjustSpace = 20;
};
};
width = 1080;
}
);
userData = {
RMXScaler = {
source = zero;
};
};
},
{
color = 6;
glyphname = zero.tosf;
lastChange = "2023-11-23 10:09:18 +0000";
layers = (
{
anchors = (
{
name = center;
pos = (538,538);
}
);
layerId = "AB099EFE-E788-4EFC-8633-CF147CB782A6";
shapes = (
{
closed = 1;
nodes = (
(770,-12,o),
(932,182,o),
(932,474,cs),
(932,592,ls),
(932,892,o),
(770,1084,o),
(540,1084,cs),
(308,1084,o),
(148,892,o),
(148,592,cs),
(148,474,ls),
(148,180,o),
(308,-12,o),
(540,-12,cs)
);
},
{
closed = 1;
nodes = (
(346,44,o),
(212,222,o),
(212,470,cs),
(212,596,ls),
(212,852,o),
(338,1028,o),
(540,1028,cs),
(744,1028,o),
(868,854,o),
(868,596,cs),
(868,470,ls),
(868,218,o),
(732,44,o),
(540,44,cs)
);
}
);
userData = {
RMXScaler = {
adjustSpace = 20;
height = 71.5;
width = 86;
};
};
width = 1080;
},
{
anchors = (
{
name = center;
pos = (540,550);
}
);
layerId = "2D8F7115-C311-411E-929D-56333CF7FFB2";
shapes = (
{
closed = 1;
nodes = (
(794,-12,o),
(990,170,o),
(990,484,cs),
(990,606,ls),
(990,924,o),
(800,1118,o),
(538,1118,cs),
(294,1118,o),
(92,930,o),
(92,606,cs),
(92,484,ls),
(92,170,o),
(294,-12,o),
(538,-12,cs)
);
},
{
closed = 1;
nodes = (
(466,280,o),
(424,340,o),
(424,428,cs),
(424,678,ls),
(424,770,o),
(468,828,o),
(538,828,cs),
(614,828,o),
(658,766,o),
(658,678,cs),
(658,428,ls),
(658,342,o),
(618,280,o),
(538,280,cs)
);
}
);
userData = {
RMXScaler = {
height = 73.5;
weight = -60;
width = 88;
};
};
width = 1080;
},
{
anchors = (
{
name = center;
pos = (540,546);
}
);
layerId = "FD1CEFBD-BAB1-4C2A-A598-30E93F9A29F6";
shapes = (
{
closed = 1;
nodes = (
(780,-12,o),
(950,178,o),
(950,480,cs),
(950,594,ls),
(950,902,o),
(780,1096,o),
(540,1096,cs),
(306,1096,o),
(132,904,o),
(132,594,cs),
(132,480,ls),
(132,176,o),
(306,-12,o),
(540,-12,cs)
);
},
{
closed = 1;
nodes = (
(398,136,o),
(296,254,o),
(296,454,cs),
(296,622,ls),
(296,824,o),
(392,944,o),
(544,944,cs),
(694,944,o),
(786,826,o),
(786,622,cs),
(786,454,ls),
(786,258,o),
(690,136,o),
(540,136,cs)
);
}
);
width = 1080;
}
);
metricWidth = "=1080";
userData = {
RMXScaler = {
fourthDName = .tf;
source = zero;
};
};
},
{
color = 6;
glyphname = one.osf;
kernLeft = NUM_ONE_OSF;
kernRight = NUM_ONE_OSF;
lastChange = "2023-11-23 10:09:18 +0000";
layers = (
{
layerId = "AB099EFE-E788-4EFC-8633-CF147CB782A6";
shapes = (
{
closed = 1;
nodes = (
(458,0,l),
(458,1068,l),
(422,1068,l),
(114,920,l),
(114,856,l),
(410,1000,l),
(394,1022,l),
(394,0,l)
);
}
);
userData = {
RMXScaler = {
adjustSpace = 4;
height = 71.5;
weight = 15;
width = 77;
};
};
width = 638;
},
{
layerId = "2D8F7115-C311-411E-929D-56333CF7FFB2";
shapes = (
{
closed = 1;
nodes = (
(654,0,l),
(654,1100,l),
(566,1100,l),
(54,906,l),
(54,570,l),
(384,696,l),
(322,794,l),
(322,0,l)
);
}
);
userData = {
RMXScaler = {
adjustSpace = 8;
height = 73;
weight = -100;
width = 76;
};
};
width = 764;
},
{
layerId = "FD1CEFBD-BAB1-4C2A-A598-30E93F9A29F6";
shapes = (
{
closed = 1;
nodes = (
(528,0,l),
(528,1080,l),
(476,1080,l),
(88,890,l),
(88,726,l),
(396,876,l),
(364,934,l),
(364,0,l)
);
}
);
width = 684;
}
);
userData = {
RMXScaler = {
source = one;
};
};
},
{
color = 6;
glyphname = one.tf;
lastChange = "2023-11-23 10:09:18 +0000";
layers = (
{
layerId = "AB099EFE-E788-4EFC-8633-CF147CB782A6";
shapes = (
{
closed = 1;
nodes = (
(610,0,l),
(610,1474,l),
(570,1474,l),
(244,1294,l),
(244,1226,l),
(566,1406,l),
(546,1420,l),
(546,0,l)
);
},
{
closed = 1;
nodes = (
(920,0,l),
(920,56,l),
(176,56,l),
(176,0,l)
);
}
);
userData = {
RMXScaler = {
adjustSpace = 20;
};
};
width = 1080;
},
{
layerId = "2D8F7115-C311-411E-929D-56333CF7FFB2";
shapes = (
{
closed = 1;
nodes = (
(764,0,l),
(764,1474,l),
(666,1474,l),
(122,1274,l),
(122,934,l),
(468,1082,l),
(400,1146,l),
(400,0,l)
);
},
{
closed = 1;
nodes = (
(988,0,l),
(988,304,l),
(120,304,l),
(120,0,l)
);
}
);
width = 1080;
},
{
layerId = "FD1CEFBD-BAB1-4C2A-A598-30E93F9A29F6";
shapes = (
{
closed = 1;
nodes = (
(670,0,l),
(670,1474,l),
(608,1474,l),
(200,1286,l),
(200,1106,l),
(528,1270,l),
(490,1314,l),
(490,0,l)
);
},
{
closed = 1;
nodes = (
(948,0,l),
(948,164,l),
(156,164,l),
(156,0,l)
);
}
);
userData = {
RMXScaler = {
adjustSpace = 20;
};
};
width = 1080;
}
);
userData = {
RMXScaler = {
source = one;
};
};
},
{
color = 6;
glyphname = one.tosf;
lastChange = "2023-11-23 10:09:18 +0000";
layers = (
{
layerId = "AB099EFE-E788-4EFC-8633-CF147CB782A6";
shapes = (
{
closed = 1;
nodes = (
(584,0,l),
(584,1048,l),
(546,1048,l),
(216,888,l),
(216,826,l),
(534,980,l),
(518,1002,l),
(518,0,l)
);
},
{
closed = 1;
nodes = (
(888,0,l),
(888,56,l),
(194,56,l),
(194,0,l)
);
}
);
userData = {
RMXScaler = {
adjustSpace = 20;
};
};
width = 1080;
},
{
layerId = "2D8F7115-C311-411E-929D-56333CF7FFB2";
shapes = (
{
closed = 1;
nodes = (
(724,0,l),
(724,1082,l),
(640,1082,l),
(140,892,l),
(140,586,l),
(468,708,l),
(404,790,l),
(404,0,l)
);
},
{
closed = 1;
nodes = (
(944,0,l),
(944,270,l),
(142,270,l),
(142,0,l)
);
}
);
width = 1080;
},
{
layerId = "FD1CEFBD-BAB1-4C2A-A598-30E93F9A29F6";
shapes = (
{
closed = 1;
nodes = (
(636,0,l),
(636,1064,l),
(582,1064,l),
(186,892,l),
(186,724,l),
(506,868,l),
(472,918,l),
(472,0,l)
);
},
{
closed = 1;
nodes = (
(908,0,l),
(908,148,l),
(172,148,l),
(172,0,l)
);
}
);
width = 1080;
}
);
metricWidth = "=1080";
userData = {
RMXScaler = {
source = one;
};
};
},
{
color = 6;
glyphname = two.osf;
kernLeft = NUM_TWO_OSF;
kernRight = NUM_TWO_OSF;
lastChange = "2023-11-22 11:34:34 +0000";
layers = (
{
layerId = "AB099EFE-E788-4EFC-8633-CF147CB782A6";
shapes = (
{
closed = 1;
nodes = (
(760,0,l),
(760,60,l),
(380,60,l),
(212,60,l),
(212,64,l),
(470,374,ls),
(620,554,o),
(722,660,o),
(722,804,cs),
(722,964,o),
(600,1084,o),
(430,1084,cs),
(252,1084,o),
(118,952,o),
(118,768,c),
(180,768,l),
(180,916,o),
(286,1024,o),
(432,1024,cs),
(568,1024,o),
(660,922,o),
(660,806,cs),
(660,680,o),
(548,564,o),
(416,406,cs),
(104,32,l),
(104,0,l)
);
}
);
userData = {
RMXScaler = {
adjustSpace = 2;
height = 71.5;
weight = 13;
width = 80;
};
};
width = 864;
},
{
layerId = "2D8F7115-C311-411E-929D-56333CF7FFB2";
shapes = (
{
closed = 1;
nodes = (
(852,0,l),
(852,290,l),
(744,290,l),
(610,282,l),
(610,286,l),
(644,334,ls),
(741,470,o),
(862,590,o),
(862,770,cs),
(862,986,o),
(690,1116,o),
(460,1116,cs),
(222,1116,o),
(58,950,o),
(54,708,c),
(384,708,l),
(386,782,o),
(430,824,o),
(474,824,cs),
(504,824,o),
(544,788,o),
(544,732,cs),
(544,650,o),
(448,539,o),
(378,446,cs),
(88,64,l),
(88,0,l)
);
}
);
userData = {
RMXScaler = {
adjustSpace = 1;
height = 73.5;
weight = -100;
width = 80;
};
};
width = 936;
},
{
layerId = "FD1CEFBD-BAB1-4C2A-A598-30E93F9A29F6";
shapes = (
{
closed = 1;
nodes = (
(784,0,l),
(784,148,l),
(510,148,l),
(362,148,l),
(362,152,l),
(530,360,ls),
(650,510,o),
(770,626,o),
(770,792,cs),
(770,978,o),
(618,1096,o),
(436,1096,cs),
(226,1096,o),
(82,938,o),
(82,738,c),
(246,738,l),
(246,852,o),
(332,948,o),
(438,948,cs),
(532,948,o),
(606,874,o),
(606,780,cs),
(606,670,o),
(502,566,o),
(388,424,cs),
(88,50,l),
(88,0,l)
);
}
);
width = 872;
}
);
userData = {
RMXScaler = {
source = two;
};
};
},
